<?xml version="1.0" encoding="UTF-8"?>
<svg width="300" height="129.62" version="1.1" viewBox="0 0 79.375 34.294" xmlns="http://www.w3.org/2000/svg">
 <g transform="matrix(.95475 0 0 -.95475 .23471 5.4873)">
  <path d="m0 0v-6.948l8.991 4.786v7.888l-8.991-5.726" fill="#424a52"/>
 </g>
 <g transform="matrix(.95475 0 0 -.95475 .23471 26.215)">
  <path d="m0 0v-8.455l8.991 2.903v9.149l-8.991-3.597" fill="#424a52"/>
 </g>
 <g transform="matrix(.95475 0 0 -.95475 -9.1175e-5 15.915)">
  <path d="m0 0c2e-3 -0.525 0.469-0.957 1.058-0.958 0.588 1e-3 1.057 0.433 1.059 0.958-2e-3 0.523-0.471 0.957-1.059 0.957-0.589 0-1.056-0.434-1.058-0.957zm0.213-6.357c3e-3 -0.453 0.393-0.785 0.845-0.788 0.451 3e-3 0.842 0.335 0.847 0.788v3.563c-5e-3 0.452-0.396 0.785-0.847 0.789-0.452-4e-3 -0.842-0.337-0.845-0.789v-3.563" fill="#424a52"/>
 </g>
 <g transform="matrix(.95475 0 0 -.95475 3.6926 13.834)">
  <path d="m0 0c3e-3 -0.595 0.534-1.08 1.198-1.08 0.661 0 1.194 0.485 1.194 1.08s-0.533 1.082-1.194 1.083c-0.664-1e-3 -1.195-0.488-1.198-1.083zm0.271-7.065c4e-3 -0.493 0.43-0.861 0.927-0.864 0.494 3e-3 0.921 0.37 0.924 0.862l1e-3 4.007c-4e-3 0.494-0.43 0.86-0.925 0.861-0.497-1e-3 -0.923-0.369-0.927-0.861v-4.005" fill="#424a52"/>
 </g>
 <g transform="matrix(.95475 0 0 -.95475 16.442 15.817)">
  <path d="m0 0c1e-3 -0.521 0.466-0.952 1.052-0.952s1.053 0.431 1.054 0.952c-1e-3 0.522-0.468 0.953-1.054 0.953s-1.051-0.431-1.052-0.953zm0.211-2.782-1e-3 -3.548c3e-3 -0.45 0.392-0.78 0.842-0.784 0.449 4e-3 0.838 0.334 0.842 0.783v3.549c-4e-3 0.45-0.393 0.783-0.841 0.786-0.451-3e-3 -0.839-0.336-0.843-0.786h1e-3" fill="#47ae33"/>
 </g>
 <g transform="matrix(.95475 0 0 -.95475 12.446 13.824)">
  <path d="m0 0c1e-3 -0.593 0.532-1.078 1.192-1.079 0.66 1e-3 1.189 0.486 1.19 1.079-1e-3 0.591-0.53 1.076-1.19 1.076s-1.191-0.485-1.192-1.076zm0.309-3.045v-3.994c6e-3 -0.488 0.429-0.855 0.921-0.855 0.495 0 0.921 0.367 0.923 0.854v3.994c-2e-3 0.489-0.428 0.854-0.923 0.856-0.492-2e-3 -0.915-0.37-0.921-0.855" fill="#47ae33"/>
 </g>
 <g transform="matrix(.95475 0 0 -.95475 7.9417 12.127)">
  <path d="m0 0c3e-3 -0.659 0.592-1.2 1.328-1.201 0.736 1e-3 1.326 0.542 1.328 1.201-2e-3 0.661-0.592 1.201-1.328 1.201s-1.325-0.54-1.328-1.201zm0.329-7.86c0-0.528 0.462-0.926 0.999-0.927 0.539 1e-3 0.998 0.398 1.001 0.927v4.437c-3e-3 0.527-0.462 0.927-1.001 0.927-0.537 0-0.999-0.398-1-0.927l1e-3 -4.437" fill="#47ae33"/>
 </g>
 <g transform="matrix(.95475 0 0 -.95475 8.8188 31.523)">
  <path d="M 0,0 9.695,-2.903 V 5.545 L 0,9.149 V 0" fill="#47ae33"/>
 </g>
 <g transform="matrix(.95475 0 0 -.95475 8.8188 7.5492)">
  <path d="m 0,0 9.695,-4.806 v 6.96 L 0,7.907 V 0" fill="#47ae33"/>
 </g>
 <g transform="matrix(.98656 0 0 .98656 -64.054 -161)">
  <g transform="matrix(.86395 0 0 -.86395 87.021 172.8)">
   <path d="m0 0h1.757l1.229-9.016h0.034l1.366 9.016h2.32l1.126-9.016h0.035l1.467 9.016h1.604l-2.219-10.96h-2.081l-1.144 9.168h-0.034l-1.45-9.168h-2.065l-1.945 10.96" fill="#47ae33"/>
  </g>
  <g transform="matrix(.86395 0 0 -.86395 98.374 180.08)">
   <path d="m0 0c0-0.94 0.477-1.442 1.177-1.442 0.716 0 1.195 0.502 1.195 1.442v5.754c0 1.077-0.41 1.579-1.195 1.579-0.768 0-1.177-0.502-1.177-1.579zm-1.706 5.634c0 1.532 0.562 2.883 2.883 2.883 2.2 0 2.901-1.018 2.901-2.718v-5.539c0-1.535-0.564-2.885-2.901-2.885-2.184 0-2.883 1.016-2.883 2.717v5.542" fill="#47ae33"/>
  </g>
  <g transform="matrix(.86395 0 0 -.86395 104.42 177.05)">
   <path d="m0 0h0.444c1.348 0 1.535 0.226 1.535 1.866 0 1.626-0.102 1.777-1.16 1.777h-0.819zm-1.707 4.918h2.644c2.492 0 2.748-0.592 2.748-2.991 0-1.472-0.222-2.11-1.621-2.489v-0.031c1.161-0.106 1.553-0.636 1.553-1.669v-2.383c0-0.395 0-0.94 0.103-1.397h-1.604c-0.171 0.275-0.205 0.547-0.205 0.987v2.474c0 1.032-0.206 1.305-1.33 1.305h-0.581v-4.766h-1.707v10.96" fill="#47ae33"/>
  </g>
  <g transform="matrix(.86395 0 0 -.86395 108.68 172.8)">
   <path d="m0 0h1.705v-4.994h0.035l2.696 4.994h1.705l-2.866-5.146 3.071-5.814h-1.91l-2.696 5.48h-0.035v-5.48h-1.705v10.96" fill="#47ae33"/>
  </g>
  <g transform="matrix(.86395 0 0 -.86395 114.68 172.8)">
   <path d="m0 0h4.642v-1.275h-2.934v-3.43h2.764v-1.275h-2.764v-4.98h-1.708v10.96" fill="#47ae33"/>
  </g>
  <g transform="matrix(.86395 0 0 -.86395 120.75 180.08)">
   <path d="m0 0c0-0.94 0.478-1.442 1.176-1.442 0.717 0 1.197 0.502 1.197 1.442v5.754c0 1.077-0.411 1.579-1.197 1.579-0.766 0-1.176-0.502-1.176-1.579zm-1.707 5.634c0 1.532 0.562 2.883 2.883 2.883 2.202 0 2.901-1.018 2.901-2.718v-5.539c0-1.535-0.564-2.885-2.901-2.885-2.184 0-2.883 1.016-2.883 2.717v5.542" fill="#47ae33"/>
  </g>
  <g transform="matrix(.86395 0 0 -.86395 126.79 177.05)">
   <path d="m0 0h0.442c1.348 0 1.536 0.226 1.536 1.866 0 1.626-0.103 1.777-1.161 1.777h-0.817zm-1.707 4.918h2.643c2.492 0 2.747-0.592 2.747-2.991 0-1.472-0.22-2.11-1.62-2.489v-0.031c1.161-0.106 1.553-0.636 1.553-1.669v-2.383c0-0.395 0-0.94 0.103-1.397h-1.605c-0.17 0.275-0.204 0.547-0.204 0.987v2.474c0 1.032-0.207 1.305-1.332 1.305h-0.578v-4.766h-1.707v10.96" fill="#47ae33"/>
  </g>
  <g transform="matrix(.86395 0 0 -.86395 130.89 175.21)">
   <path d="m0 0c0 1.532 0.562 2.883 2.883 2.883 1.689 0 2.474-0.759 2.474-1.988v-1.094h-1.603v0.759c0 0.698-0.275 1.139-0.99 1.139-0.887 0-1.059-0.561-1.059-1.883v-5.373c0-1.291 0.461-1.519 1.008-1.519 0.63 0 1.041 0.397 1.041 1.307v0.757h1.603v-1.212c0-1.155-0.529-2.035-2.509-2.035-2.149 0-2.848 1.016-2.848 2.717v5.542" fill="#47ae33"/>
  </g>
  <g transform="matrix(.86395 0 0 -.86395 136.24 172.8)">
   <path d="m0 0h4.641v-1.275h-2.936v-3.43h2.765v-1.275h-2.765v-3.705h2.936v-1.275h-4.641v10.96" fill="#47ae33"/>
  </g>
  <g transform="matrix(.86395 0 0 -.86395 89.853 186.35)">
   <path d="m0 0c9e-3 0.345-0.02 0.686-0.198 0.88-0.179 0.191-0.583 0.259-0.762 0.259-0.715 0-0.997-0.385-1.024-0.47-0.029-0.066-0.199-0.216-0.199-1.254v-1.616c0-1.48 0.546-1.657 1.214-1.657 0.263 0 1.062 0.084 1.072 1.264h0.893c0.038-1.908-1.477-1.908-1.918-1.908-0.847 0-2.144 0.05-2.144 2.393v1.707c0 1.708 0.846 2.194 2.181 2.194 1.345 0 1.862-0.619 1.778-1.792h-0.893" fill="#424a52"/>
  </g>
  <g transform="matrix(.86395 0 0 -.86395 95.516 188.26)">
   <path d="m0 0v2.042c0 1.265-0.978 1.307-1.25 1.307-0.273 0-1.251-0.042-1.251-1.307v-2.042c0-1.323 0.433-1.657 1.251-1.657s1.25 0.334 1.25 1.657zm-3.385 0.035v1.982c0 1.206 0.696 1.976 2.135 1.976 1.438 0 2.134-0.77 2.134-1.976v-1.982c0-1.676-0.696-2.336-2.134-2.336-1.439 0-2.135 0.66-2.135 2.336" fill="#424a52"/>
  </g>
  <g transform="matrix(.86395 0 0 -.86395 99.117 190.14)">
   <path d="m0 0h-0.809v6.043h1.401l1.712-5.072h0.018l1.731 5.072h1.429v-6.043h-0.865v5.371h-0.019l-1.9-5.371h-0.818l-1.861 5.371h-0.019v-5.371" fill="#424a52"/>
  </g>
  <g transform="matrix(.86395 0 0 -.86395 106.72 190.14)">
   <path d="m0 0h-0.809v6.043h1.401l1.712-5.072h0.018l1.73 5.072h1.43v-6.043h-0.865v5.371h-0.02l-1.899-5.371h-0.818l-1.862 5.371h-0.018v-5.371" fill="#424a52"/>
  </g>
  <path d="m113.7 190.14h0.74818v-5.2208h-0.74818z" fill="#424a52"/>
  <g transform="matrix(.86395 0 0 -.86395 117.26 188.58)">
   <path d="m0 0v-0.175c0-0.822 0.584-1.081 1.138-1.081 0.687 0 1.213 0.259 1.213 0.98 0 1.339-3.046 1.187-3.046 3.003 0 1.072 0.855 1.642 1.993 1.642 1.241 0 1.937-0.536 1.881-1.766h-0.904c0.011 0.66-0.225 1.095-1.043 1.095-0.517 0-1.043-0.234-1.043-0.886 0-1.331 3.046-1.139 3.046-3.055 0-1.272-0.987-1.682-2.107-1.682-2.003-0.017-2.003 1.347-1.984 1.925h0.856" fill="#424a52"/>
  </g>
  <g transform="matrix(.86395 0 0 -.86395 122.61 188.58)">
   <path d="m0 0v-0.175c0-0.822 0.584-1.081 1.139-1.081 0.685 0 1.212 0.259 1.212 0.98 0 1.339-3.046 1.187-3.046 3.003 0 1.072 0.855 1.642 1.994 1.642 1.241 0 1.935-0.536 1.88-1.766h-0.904c0.011 0.66-0.224 1.095-1.042 1.095-0.517 0-1.044-0.234-1.044-0.886 0-1.331 3.045-1.139 3.045-3.055 0-1.272-0.986-1.682-2.105-1.682-2.004-0.017-2.004 1.347-1.984 1.925h0.855" fill="#424a52"/>
  </g>
  <path d="m127.49 190.14h0.74646v-5.2208h-0.74646z" fill="#424a52"/>
  <g transform="matrix(.86395 0 0 -.86395 133.38 188.26)">
   <path d="m0 0v2.042c0 1.265-0.979 1.307-1.25 1.307-0.274 0-1.252-0.042-1.252-1.307v-2.042c0-1.323 0.434-1.657 1.252-1.657 0.817 0 1.25 0.334 1.25 1.657zm-3.385 0.035v1.982c0 1.206 0.695 1.976 2.135 1.976 1.437 0 2.135-0.77 2.135-1.976v-1.982c0-1.676-0.698-2.336-2.135-2.336-1.44 0-2.135 0.66-2.135 2.336" fill="#424a52"/>
  </g>
  <g transform="matrix(.86395 0 0 -.86395 140.33 184.91)">
   <path d="m0 0v-6.043h-1.185l-2.68 5.239h-0.019v-5.239h-0.772v6.043h1.224l2.642-5.175h0.019v5.175h0.771" fill="#424a52"/>
  </g>
  <g transform="matrix(.86395 0 0 -.86395 87.273 170.17)">
   <path d="m0 0v4.698h0.673v-4.178h1.938v-0.52h-2.611" fill="#424a52"/>
  </g>
  <g transform="matrix(.86395 0 0 -.86395 93.473 168.71)">
   <path d="m0 0v1.589c0 0.983-0.76 1.015-0.972 1.015-0.213 0-0.973-0.032-0.973-1.015v-1.589c0-1.028 0.336-1.288 0.973-1.288 0.636 0 0.972 0.26 0.972 1.288zm-2.632 0.027v1.543c0 0.936 0.54 1.535 1.66 1.535 1.118 0 1.66-0.599 1.66-1.535v-1.543c0-1.302-0.542-1.816-1.66-1.816-1.12 0-1.66 0.514-1.66 1.816" fill="#424a52"/>
  </g>
  <g transform="matrix(.86395 0 0 -.86395 96.199 166.11)">
   <path d="m0 0h0.672v-3.007c0-1.028 0.351-1.288 0.988-1.288 0.636 0 0.987 0.26 0.987 1.288v3.007h0.673v-2.98c0-1.302-0.542-1.816-1.66-1.816-1.12 0-1.66 0.514-1.66 1.816v2.98" fill="#424a52"/>
  </g>
  <path d="m101.29 170.17h0.58144v-4.0597h-0.58144z" fill="#424a52"/>
  <g transform="matrix(.86395 0 0 -.86395 104.55 168.96)">
   <path d="m0 0v-0.137c0-0.638 0.454-0.84 0.884-0.84 0.535 0 0.945 0.202 0.945 0.762 0 1.041-2.371 0.924-2.371 2.337 0 0.832 0.666 1.275 1.551 1.275 0.965 0 1.507-0.416 1.463-1.374h-0.702c6e-3 0.515-0.177 0.853-0.811 0.853-0.403 0-0.812-0.183-0.812-0.69 0-1.034 2.369-0.885 2.369-2.375 0-0.989-0.769-1.308-1.638-1.308-1.558-0.012-1.558 1.047-1.544 1.497h0.666" fill="#424a52"/>
  </g>
  <path d="m108.84 170.17h0.58143v-4.0597h-0.58143z" fill="#424a52"/>
  <g transform="matrix(.86395 0 0 -.86395 113.04 166.58)">
   <path d="m0 0h-0.014l-0.827-2.506h1.688zm-0.409 0.552h0.855l1.719-4.698h-0.753l-0.38 1.119h-2.041l-0.395-1.119h-0.679l1.674 4.698" fill="#424a52"/>
  </g>
  <g transform="matrix(.86395 0 0 -.86395 119.82 166.11)">
   <path d="m0 0v-4.698h-0.922l-2.085 4.074h-0.015v-4.074h-0.6v4.698h0.952l2.054-4.022h0.014v4.022h0.602" fill="#424a52"/>
  </g>
  <path d="m123.39 166.58h-0.012l-0.71362 2.1651h1.4592zm-0.35422-0.47689h0.74041l1.4851 4.0588h-0.65055l-0.33002-0.96676h-1.7633l-0.33866 0.96676h-0.58922l1.4462-4.0588" fill="#424a52"/>
 </g>
 <g transform="matrix(.99061 0 0 1.0095 .00010451 -.0016648)" fill="#424a52" opacity=".84388" stroke-width=".11907" aria-label="The Department of Labor">
  <path d="m28.053 32.515v-3.0071h-1.1233v-0.40234h2.7024v0.40234h-1.128v3.0071z"/>
  <path d="m30.044 32.515v-3.4095h0.41862v1.2233q0.29304-0.33955 0.73957-0.33955 0.27443 0 0.47677 0.10931 0.20234 0.10698 0.28839 0.29769 0.08838 0.19071 0.08838 0.55351v1.5652h-0.41862v-1.5652q0-0.31397-0.13722-0.45584-0.13489-0.14419-0.38374-0.14419-0.18606 0-0.35118 0.09768-0.1628 0.09535-0.23257 0.26048-0.06977 0.16512-0.06977 0.45584v1.3512z"/>
  <path d="m34.386 31.719 0.43258 0.05349q-0.10233 0.37909-0.37909 0.5884-0.27676 0.20931-0.70701 0.20931-0.54188 0-0.8605-0.33257-0.31629-0.3349-0.31629-0.93725 0-0.62328 0.32094-0.96749t0.8326-0.3442q0.49537 0 0.80934 0.33722t0.31397 0.94888q0 0.03721-0.0023 0.11163h-1.8419q0.02326 0.407 0.23024 0.62328 0.20699 0.21629 0.5163 0.21629 0.23024 0 0.39304-0.12094t0.25815-0.38606zm-1.3745-0.67678h1.3791q-0.02791-0.31164-0.15815-0.46746-0.20001-0.24187-0.51863-0.24187-0.28839 0-0.48607 0.19303-0.19536 0.19303-0.21629 0.5163z"/>
  <path d="m36.721 32.515v-3.4095h1.1745q0.39769 0 0.607 0.04884 0.29304 0.06744 0.50002 0.2442 0.26978 0.22792 0.40234 0.58375 0.13489 0.3535 0.13489 0.80934 0 0.38839-0.0907 0.6884-0.0907 0.30001-0.23257 0.4977-0.14187 0.19536-0.31164 0.30932-0.16745 0.11163-0.407 0.16978-0.23722 0.05814-0.54654 0.05814zm0.45118-0.40234h0.72794q0.33722 0 0.52793-0.06279 0.19303-0.06279 0.30699-0.17675 0.16047-0.16047 0.24885-0.43025 0.0907-0.2721 0.0907-0.65817 0-0.53491-0.17675-0.82097-0.17443-0.28839-0.4256-0.38606-0.1814-0.06977-0.58375-0.06977h-0.71631z"/>
  <path d="m41.8 31.719 0.43258 0.05349q-0.10233 0.37909-0.37909 0.5884t-0.70701 0.20931q-0.54188 0-0.8605-0.33257-0.31629-0.3349-0.31629-0.93725 0-0.62328 0.32094-0.96749t0.8326-0.3442q0.49537 0 0.80934 0.33722t0.31397 0.94888q0 0.03721-0.0023 0.11163h-1.8419q0.02326 0.407 0.23024 0.62328 0.20699 0.21629 0.5163 0.21629 0.23024 0 0.39304-0.12094t0.25815-0.38606zm-1.3745-0.67678h1.3791q-0.02791-0.31164-0.15815-0.46746-0.20001-0.24187-0.51863-0.24187-0.28838 0-0.48607 0.19303-0.19536 0.19303-0.21629 0.5163z"/>
  <path d="m42.761 33.461v-3.4164h0.38141v0.32094q0.13489-0.18838 0.30466-0.28141 0.16978-0.09535 0.41165-0.09535 0.31629 0 0.55816 0.1628 0.24187 0.1628 0.36513 0.46049 0.12326 0.29536 0.12326 0.64887 0 0.37909-0.13722 0.68375-0.13489 0.30234-0.39537 0.46514-0.25815 0.16047-0.54421 0.16047-0.20931 0-0.37676-0.08838-0.16512-0.08838-0.27211-0.22327v1.2024zm0.37909-2.1675q0 0.47677 0.19303 0.70468 0.19303 0.22792 0.46746 0.22792 0.27908 0 0.47677-0.2349 0.20001-0.23722 0.20001-0.73259 0-0.47212-0.19536-0.70701-0.19303-0.2349-0.46281-0.2349-0.26745 0-0.47444 0.25118-0.20466 0.24885-0.20466 0.72561z"/>
  <path d="m47.024 32.21q-0.23257 0.19768-0.44886 0.27908-0.21396 0.0814-0.46049 0.0814-0.407 0-0.62561-0.19768-0.21862-0.20001-0.21862-0.50933 0-0.1814 0.0814-0.33025 0.08373-0.15117 0.21629-0.24187 0.13489-0.0907 0.30234-0.13722 0.12326-0.03256 0.37211-0.06279 0.507-0.06047 0.74655-0.14419 0.0023-0.08605 0.0023-0.10931 0-0.25582-0.11861-0.36048-0.16047-0.14187-0.47677-0.14187-0.29536 0-0.43723 0.10466-0.13954 0.10233-0.20699 0.36513l-0.40932-0.05582q0.05582-0.2628 0.18373-0.42328 0.12791-0.1628 0.36978-0.24885 0.24187-0.08838 0.56049-0.08838 0.31629 0 0.51398 0.07442 0.19768 0.07442 0.29071 0.18838 0.09303 0.11163 0.13024 0.28373 0.02093 0.10698 0.02093 0.38606v0.55816q0 0.58375 0.02558 0.73957 0.02791 0.1535 0.10698 0.29536h-0.43723q-0.06512-0.13024-0.08372-0.30466zm-0.03489-0.93493q-0.22792 0.09303-0.68375 0.15815-0.25815 0.03721-0.36513 0.08373-0.10698 0.04651-0.16512 0.13722-0.05814 0.08838-0.05814 0.19768 0 0.16745 0.12559 0.27908 0.12791 0.11163 0.37211 0.11163 0.24187 0 0.43025-0.10466 0.18838-0.10698 0.27676-0.29071 0.06744-0.14187 0.06744-0.41862z"/>
  <path d="m48.059 32.515v-2.4699h0.37676v0.37444q0.14419-0.2628 0.26513-0.34653 0.12326-0.08373 0.26978-0.08373 0.21164 0 0.43025 0.13489l-0.14419 0.38839q-0.1535-0.0907-0.30699-0.0907-0.13722 0-0.24652 0.08373-0.10931 0.0814-0.15582 0.22792-0.06977 0.22327-0.06977 0.4884v1.2931z"/>
  <path d="m50.568 32.14 0.06047 0.36978q-0.17675 0.03721-0.31629 0.03721-0.22792 0-0.3535-0.0721-0.12559-0.0721-0.17675-0.18838-0.05116-0.11861-0.05116-0.49537v-1.421h-0.30699v-0.3256h0.30699v-0.61166l0.4163-0.25118v0.86283h0.42095v0.3256h-0.42095v1.4443q0 0.17908 0.02093 0.23024 0.02326 0.05116 0.0721 0.0814 0.05116 0.03023 0.14419 0.03023 0.06977 0 0.18373-0.01628z"/>
  <path d="m50.975 32.515v-2.4699h0.37444v0.34653q0.11628-0.1814 0.30932-0.29071 0.19303-0.11163 0.43956-0.11163 0.27443 0 0.44886 0.11396 0.17675 0.11396 0.24885 0.31862 0.29304-0.43258 0.76283-0.43258 0.36746 0 0.56514 0.20466 0.19768 0.20234 0.19768 0.62561v1.6954h-0.4163v-1.5559q0-0.25117-0.04186-0.36048-0.03954-0.11163-0.14652-0.17908-0.10698-0.06744-0.25117-0.06744-0.26048 0-0.43258 0.17443-0.1721 0.1721-0.1721 0.55351v1.435h-0.41863v-1.6047q0-0.27908-0.10233-0.41862t-0.3349-0.13954q-0.17675 0-0.32792 0.09303-0.14884 0.09303-0.21629 0.27211-0.06744 0.17908-0.06744 0.5163v1.2815z"/>
  <path d="m56.638 31.719 0.43258 0.05349q-0.10233 0.37909-0.37909 0.5884t-0.70701 0.20931q-0.54188 0-0.8605-0.33257-0.31629-0.3349-0.31629-0.93725 0-0.62328 0.32094-0.96749t0.8326-0.3442q0.49537 0 0.80934 0.33722t0.31397 0.94888q0 0.03721-0.0023 0.11163h-1.8419q0.02326 0.407 0.23024 0.62328 0.20699 0.21629 0.5163 0.21629 0.23024 0 0.39304-0.12094 0.1628-0.12094 0.25815-0.38606zm-1.3745-0.67678h1.3791q-0.02791-0.31164-0.15815-0.46746-0.20001-0.24187-0.51863-0.24187-0.28838 0-0.48607 0.19303-0.19536 0.19303-0.21629 0.5163z"/>
  <path d="m57.599 32.515v-2.4699h0.37676v0.35118q0.27211-0.407 0.78608-0.407 0.22327 0 0.40932 0.0814 0.18838 0.07907 0.28141 0.20931 0.09303 0.13024 0.13024 0.30932 0.02326 0.11628 0.02326 0.407v1.5187h-0.41862v-1.5024q0-0.25583-0.04884-0.38141-0.04884-0.12791-0.17443-0.20234-0.12326-0.07675-0.29071-0.07675-0.26746 0-0.46281 0.16978-0.19303 0.16978-0.19303 0.64422v1.3489z"/>
  <path d="m61.164 32.14 0.06047 0.36978q-0.17675 0.03721-0.31629 0.03721-0.22792 0-0.3535-0.0721t-0.17675-0.18838q-0.05117-0.11861-0.05117-0.49537v-1.421h-0.30699v-0.3256h0.30699v-0.61166l0.4163-0.25118v0.86283h0.42095v0.3256h-0.42095v1.4443q0 0.17908 0.02093 0.23024 0.02326 0.05116 0.0721 0.0814 0.05117 0.03023 0.14419 0.03023 0.06977 0 0.18373-0.01628z"/>
  <path d="m62.736 31.28q0-0.68608 0.38141-1.0163 0.31862-0.27443 0.77678-0.27443 0.50932 0 0.8326 0.3349 0.32327 0.33257 0.32327 0.92097 0 0.47677-0.14419 0.7512-0.14187 0.27211-0.4163 0.42328-0.27211 0.15117-0.59538 0.15117-0.51863 0-0.83957-0.33257-0.31862-0.33257-0.31862-0.95818zm0.43025 0q0 0.47444 0.20699 0.71166 0.20699 0.2349 0.52096 0.2349 0.31164 0 0.51863-0.23722 0.20699-0.23722 0.20699-0.72329 0-0.45816-0.20931-0.69306-0.20699-0.23722-0.5163-0.23722-0.31397 0-0.52096 0.23489-0.20699 0.2349-0.20699 0.70934z"/>
  <path d="m65.643 32.515v-2.1443h-0.36978v-0.3256h0.36978v-0.2628q0-0.24885 0.04419-0.36978 0.06047-0.1628 0.21164-0.2628 0.1535-0.10233 0.42793-0.10233 0.17675 0 0.39072 0.04186l-0.06279 0.36513q-0.13024-0.02326-0.24652-0.02326-0.19071 0-0.26978 0.0814-0.07907 0.0814-0.07907 0.30466v0.22792h0.48142v0.3256h-0.48142v2.1443z"/>
  <path d="m68.22 32.515v-3.4095h0.45118v3.0071h1.6791v0.40234z"/>
  <path d="m72.448 32.21q-0.23257 0.19768-0.44886 0.27908-0.21396 0.0814-0.46049 0.0814-0.407 0-0.62561-0.19768-0.21862-0.20001-0.21862-0.50933 0-0.1814 0.0814-0.33025 0.08373-0.15117 0.21629-0.24187 0.13489-0.0907 0.30234-0.13722 0.12326-0.03256 0.37211-0.06279 0.507-0.06047 0.74655-0.14419 0.0023-0.08605 0.0023-0.10931 0-0.25582-0.11861-0.36048-0.16047-0.14187-0.47677-0.14187-0.29536 0-0.43723 0.10466-0.13954 0.10233-0.20699 0.36513l-0.40932-0.05582q0.05582-0.2628 0.18373-0.42328 0.12791-0.1628 0.36978-0.24885 0.24187-0.08838 0.56049-0.08838 0.31629 0 0.51398 0.07442 0.19768 0.07442 0.29071 0.18838 0.09303 0.11163 0.13024 0.28373 0.02093 0.10698 0.02093 0.38606v0.55816q0 0.58375 0.02558 0.73957 0.02791 0.1535 0.10698 0.29536h-0.43723q-0.06512-0.13024-0.08373-0.30466zm-0.03489-0.93493q-0.22792 0.09303-0.68375 0.15815-0.25815 0.03721-0.36513 0.08373-0.10698 0.04651-0.16512 0.13722-0.05814 0.08838-0.05814 0.19768 0 0.16745 0.12559 0.27908 0.12791 0.11163 0.37211 0.11163 0.24187 0 0.43025-0.10466 0.18838-0.10698 0.27676-0.29071 0.06745-0.14187 0.06745-0.41862z"/>
  <path d="m73.874 32.515h-0.38839v-3.4095h0.41862v1.2163q0.26513-0.33257 0.67678-0.33257 0.22792 0 0.43025 0.09303 0.20466 0.0907 0.3349 0.25815 0.13256 0.16512 0.20699 0.40002 0.07442 0.23489 0.07442 0.50235 0 0.63491-0.31397 0.98144-0.31397 0.34653-0.75352 0.34653-0.43723 0-0.68608-0.36513zm-0.0047-1.2535q0 0.44421 0.12094 0.64189 0.19768 0.32327 0.53491 0.32327 0.27443 0 0.47444-0.23722 0.20001-0.23955 0.20001-0.71166 0-0.48374-0.19303-0.71399-0.19071-0.23024-0.46281-0.23024-0.27443 0-0.47444 0.23955-0.20001 0.23722-0.20001 0.6884z"/>
  <path d="m75.983 31.28q0-0.68608 0.38141-1.0163 0.31862-0.27443 0.77678-0.27443 0.50933 0 0.8326 0.3349 0.32327 0.33257 0.32327 0.92097 0 0.47677-0.14419 0.7512-0.14187 0.27211-0.4163 0.42328-0.27211 0.15117-0.59538 0.15117-0.51863 0-0.83957-0.33257-0.31862-0.33257-0.31862-0.95818zm0.43025 0q0 0.47444 0.20699 0.71166 0.20699 0.2349 0.52095 0.2349 0.31164 0 0.51863-0.23722 0.20699-0.23722 0.20699-0.72329 0-0.45816-0.20931-0.69306-0.20699-0.23722-0.5163-0.23722-0.31397 0-0.52095 0.23489-0.20699 0.2349-0.20699 0.70934z"/>
  <path d="m78.786 32.515v-2.4699h0.37676v0.37444q0.14419-0.2628 0.26513-0.34653 0.12326-0.08373 0.26978-0.08373 0.21164 0 0.43025 0.13489l-0.14419 0.38839q-0.1535-0.0907-0.30699-0.0907-0.13722 0-0.24652 0.08373-0.10931 0.0814-0.15582 0.22792-0.06977 0.22327-0.06977 0.4884v1.2931z"/>
 </g>
</svg>
