<?xml version="1.0" encoding="utf-8"?>
<!-- Generator: Adobe Illustrator 26.0.2, SVG Export Plug-In . SVG Version: 6.00 Build 0)  -->
<svg version="1.1" id="Layer_1" xmlns="http://www.w3.org/2000/svg" xmlns:xlink="http://www.w3.org/1999/xlink" x="0px" y="0px"
	 viewBox="0 0 359.4 320.6" style="enable-background:new 0 0 359.4 320.6;" xml:space="preserve">
<style type="text/css">
	.st0{fill:#6F6F6E;}
	.st1{fill:#4C4A4C;}
	.st2{fill:#43B666;}
	.st3{fill:#02B3DE;}
	.st4{fill:#502390;}
	.st5{fill:#9B50BB;}
	.st6{fill:none;}
	.st7{fill:#4C4C4D;}
	.st8{fill:#43B766;}
	.st9{fill:#02B4DF;}
	.st10{fill:#9C50BC;}
</style>
<g>
	<g>
		<path class="st1" d="M93.9,141.7h9.4v-11.3c0-1.4,0.4-2.6,1.4-3.5c1-1,2.2-1.5,3.5-1.5c1.4,0,2.5,0.5,3.5,1.5c1,1,1.5,2.1,1.5,3.5
			v7.8h3.8v2.2h-4.8c-0.6,0-1.1-0.5-1.1-1.1v-8.9c0-1.5-1.3-2.8-2.8-2.8c-1.5,0-2.8,1.3-2.8,2.8v12.4c0,0.6-0.5,1.1-1.1,1.1H93.9
			c-1.7,0-3.2-0.6-4.5-1.9c-1.3-1.3-1.9-2.8-1.9-4.6c0-2.8,1.7-5,3.6-6l0.6-0.3c0.1,0,0.1,0,0.2,0c0.2,0,0.3,0.1,0.4,0.2l0.6,1.3
			c0,0.1,0.1,0.2,0.1,0.2c0,0.2-0.1,0.2-0.2,0.3l-0.6,0.3c-1.3,0.7-2.4,2.1-2.4,4C89.6,139.7,91.6,141.7,93.9,141.7z M96.8,147.2
			v1.8c0,0.3-0.1,0.4-0.4,0.4h-1.5c-0.3,0-0.4-0.1-0.4-0.4v-1.8c0-0.3,0.1-0.4,0.4-0.4h1.5C96.7,146.8,96.8,146.9,96.8,147.2z
			 M100.8,147.2v1.8c0,0.3-0.1,0.4-0.4,0.4h-1.5c-0.3,0-0.4-0.1-0.4-0.4v-1.8c0-0.3,0.2-0.4,0.4-0.4h1.5
			C100.7,146.8,100.8,146.9,100.8,147.2z"/>
		<path class="st1" d="M122,136.5v-10.1c0-0.3,0.1-0.4,0.4-0.4h1.4c0.3,0,0.4,0.2,0.4,0.4v10.6c0,0.3,0.1,0.6,0.2,0.8
			c0.3,0.3,0.9,0.5,1.8,0.5h1.4v2.2h-1c-1.5,0-2.6-0.4-3.3-1.1c0,0-0.1,0-0.1-0.1c0,0-0.1,0.1-0.1,0.2c-0.7,0.7-1.6,1-2.8,1h-4.5
			v-2.2h4.5C121.5,138.2,122,137.6,122,136.5z M122,122v-1.8c0-0.3,0.1-0.4,0.4-0.4h1.5c0.3,0,0.4,0.2,0.4,0.4v1.8
			c0,0.3-0.1,0.4-0.4,0.4h-1.5C122.1,122.4,122,122.3,122,122z"/>
		<path class="st1" d="M142.5,140.4h-15.6v-2.2h4.7V119c0-0.3,0.2-0.4,0.4-0.4h1.4c0.3,0,0.4,0.2,0.4,0.4v10.6
			c3-2.8,5.5-4.2,7.7-4.2c3.9,0,6.1,2.9,6.1,7v2.9C147.6,138.4,145.7,140.4,142.5,140.4z M145.4,135.2v-2.9c0-1.1-0.2-2-0.6-2.8
			c-0.7-1.3-1.8-2-3.3-2c-1,0-2.3,0.5-3.8,1.5c-1.5,1-2.8,2.1-3.9,3.5v5.6h8.7C144.5,138.2,145.4,137.3,145.4,135.2z"/>
		<path class="st1" d="M162.4,140.7v-0.4h-4.1c-1.7,0-3.3-0.6-4.5-1.9s-1.9-2.7-1.9-4.5v-2.3c0-1.8,0.6-3.3,1.9-4.5s2.7-1.9,4.5-1.9
			c1.7,0,3.2,0.6,4.5,1.9s1.9,2.7,1.9,4.5v6.4h4.5v2.2h-4.5v0.4c0,1.6-0.6,3-1.8,4.2s-2.5,1.7-4.1,1.7h-3.1c-0.2,0-0.4-0.1-0.4-0.4
			v-1.4c0-0.3,0.2-0.4,0.4-0.4h3.1C160.7,144.4,162.4,142.7,162.4,140.7z M158.3,138.2h4.1v-6.4c0-2.3-1.9-4.2-4.1-4.2
			c-2.2,0-4.1,1.9-4.1,4.2v2.3C154.2,136.3,156,138.2,158.3,138.2z"/>
		<path class="st1" d="M173.1,136.5V119c0-0.3,0.1-0.4,0.4-0.4h1.4c0.3,0,0.4,0.2,0.4,0.4v17.5c0,2.4-1.5,3.8-3.8,3.8h-3.5v-2.2h3.5
			h0C172.7,138.1,173.1,137.6,173.1,136.5z"/>
		<path class="st1" d="M182,140.4h-1.4c-0.3,0-0.4-0.1-0.4-0.4v-21c0-0.3,0.1-0.4,0.4-0.4h1.4c0.2,0,0.4,0.1,0.4,0.4v21
			C182.3,140.3,182.2,140.4,182,140.4z"/>
		<path class="st1" d="M196,141.5v-15.1c0-0.3,0.1-0.4,0.4-0.4h1.4c0.3,0,0.4,0.2,0.4,0.4v11.8h4.6v2.2h-4.6v1.1
			c0,3.2-1.9,5.1-5.1,5.1h-1.5c-0.3,0-0.4-0.1-0.4-0.4v-1.4c0-0.3,0.1-0.4,0.4-0.4h1.5C195.1,144.4,196,143.5,196,141.5z M196,122
			v-1.8c0-0.3,0.1-0.4,0.4-0.4h1.5c0.3,0,0.4,0.2,0.4,0.4v1.8c0,0.3-0.2,0.4-0.4,0.4h-1.5C196.1,122.4,196,122.3,196,122z"/>
		<path class="st1" d="M212.7,119.7h2.5c0.3,0,0.4,0.1,0.4,0.4v1.4c0,0.3-0.1,0.4-0.4,0.4h-2.5c-3.1,0-4.8,1.7-5.2,4.9h5.6
			c1.9,0,3.5,0.6,4.8,1.9c1.3,1.3,1.9,2.9,1.9,4.9v2.9c0,2.4-1.5,3.8-3.8,3.8h-14.7v-2.2h14.6c1.1,0,1.6-0.5,1.6-1.6v-2.9
			c0-2.7-1.8-4.6-4.4-4.6h-6.7c-0.6,0-1.1-0.5-1.1-1.1C205.3,123,207.9,119.7,212.7,119.7z"/>
		<path class="st1" d="M226,141.5v-15.1c0-0.3,0.1-0.4,0.4-0.4h1.4c0.3,0,0.4,0.2,0.4,0.4v11.8h4.5v2.2h-4.5v1.1
			c0,3.2-1.9,5.1-5.1,5.1h-1.5c-0.3,0-0.4-0.1-0.4-0.4v-1.4c0-0.3,0.1-0.4,0.4-0.4h1.5C225.1,144.4,226,143.5,226,141.5z"/>
		<path class="st1" d="M250.3,138.2h2.2v2.2h-1.8c-1.6,0-2.8-0.6-3.6-1.7c-1.2,1.2-2.7,1.7-4.3,1.7h-11.5v-2.2h5.2v-6.4
			c0-1.8,0.6-3.3,1.9-4.5s2.7-1.9,4.5-1.9s3.2,0.6,4.5,1.9s1.9,2.8,1.9,4.5v2.3c0,1.1-0.2,2-0.7,3
			C248.6,137.8,249.3,138.2,250.3,138.2z M238.7,131.7v6.4h4.1c2.3,0,4.1-1.9,4.1-4.2v-2.3c0-2.3-1.9-4.2-4.1-4.2
			S238.7,129.5,238.7,131.7z"/>
		<path class="st1" d="M256.8,136.5V119c0-0.3,0.1-0.4,0.4-0.4h1.4c0.3,0,0.4,0.2,0.4,0.4v17.5c0,2.4-1.5,3.8-3.8,3.8h-3.5v-2.2h3.5
			h0C256.4,138.1,256.8,137.6,256.8,136.5z"/>
		<path class="st1" d="M265.7,140.4h-1.4c-0.3,0-0.4-0.1-0.4-0.4v-21c0-0.3,0.1-0.4,0.4-0.4h1.4c0.2,0,0.4,0.1,0.4,0.4v21
			C266,140.3,265.9,140.4,265.7,140.4z"/>
	</g>
	<g>
		<path class="st1" d="M37.5,176.3H47V165c0-1.4,0.5-2.6,1.5-3.5c1-1,2.2-1.5,3.6-1.5s2.6,0.5,3.6,1.5c1,1,1.5,2.1,1.5,3.5v7.8H61
			v2.2H56c-0.6,0-1.1-0.5-1.1-1.1V165c0-1.5-1.3-2.8-2.8-2.8c-1.5,0-2.8,1.3-2.8,2.8v12.5c0,0.6-0.5,1.1-1.1,1.1H37.5
			c-1.8,0-3.3-0.6-4.6-1.9c-1.3-1.3-1.9-2.8-1.9-4.6c0-2.8,1.7-5,3.6-6l0.6-0.3c0.1,0,0.1,0,0.2,0c0.2,0,0.3,0.1,0.4,0.2l0.6,1.3
			c0,0.1,0.1,0.2,0.1,0.2c0,0.2-0.1,0.2-0.2,0.3l-0.6,0.3c-1.3,0.7-2.5,2.1-2.5,4C33.2,174.4,35.2,176.3,37.5,176.3z M40.5,181.9
			v1.8c0,0.3-0.1,0.4-0.4,0.4h-1.5c-0.3,0-0.4-0.1-0.4-0.4v-1.8c0-0.3,0.1-0.4,0.4-0.4h1.5C40.4,181.4,40.5,181.6,40.5,181.9z
			 M44.5,181.9v1.8c0,0.3-0.1,0.4-0.4,0.4h-1.5c-0.3,0-0.4-0.1-0.4-0.4v-1.8c0-0.3,0.2-0.4,0.4-0.4h1.5
			C44.4,181.4,44.5,181.6,44.5,181.9z"/>
		<path class="st1" d="M66.1,171.2V161c0-0.3,0.2-0.4,0.4-0.4h1.4c0.3,0,0.4,0.2,0.4,0.4v10.2c0,2.4-1.5,3.8-3.9,3.8h-4.6v-2.2h4.6
			C65.6,172.8,66.1,172.3,66.1,171.2z M68.4,154.8v1.8c0,0.3-0.2,0.4-0.4,0.4h-1.5c-0.3,0-0.4-0.1-0.4-0.4v-1.8
			c0-0.3,0.1-0.4,0.4-0.4h1.5C68.2,154.4,68.4,154.5,68.4,154.8z"/>
		<path class="st1" d="M82.8,175.4V175h-4.2c-1.8,0-3.3-0.6-4.5-1.9s-1.9-2.8-1.9-4.5v-2.3c0-1.8,0.6-3.3,1.9-4.5
			c1.2-1.2,2.8-1.9,4.5-1.9c1.8,0,3.3,0.6,4.5,1.9c1.2,1.2,1.9,2.8,1.9,4.5v9c0,1.6-0.6,3-1.8,4.2c-1.2,1.2-2.6,1.8-4.2,1.8h-3.2
			c-0.3,0-0.4-0.1-0.4-0.4v-1.4c0-0.3,0.1-0.4,0.4-0.4H79C81,179.1,82.8,177.4,82.8,175.4z M78.6,172.8h4.2v-6.4
			c0-2.3-1.9-4.2-4.2-4.2c-2.3,0-4.2,1.9-4.2,4.2v2.3C74.4,170.9,76.3,172.8,78.6,172.8z"/>
		<path class="st1" d="M91.3,176.2V161c0-0.3,0.2-0.4,0.4-0.4h1.4c0.3,0,0.4,0.2,0.4,0.4v11.8h4.6v2.2h-4.6v1.2c0,3.2-2,5.1-5.2,5.1
			h-1.5c-0.3,0-0.4-0.1-0.4-0.4v-1.4c0-0.3,0.1-0.4,0.4-0.4h1.5C90.4,179.1,91.3,178.2,91.3,176.2z"/>
		<path class="st1" d="M103.6,171.1V161c0-0.3,0.2-0.4,0.4-0.4h1.4c0.3,0,0.4,0.2,0.4,0.4v10.6c0,0.3,0.1,0.6,0.3,0.8
			c0.3,0.3,0.9,0.5,1.8,0.5h1.4v2.2h-1c-1.5,0-2.6-0.4-3.4-1.1c0,0,0,0,0-0.1l-0.1,0.2c-0.7,0.7-1.6,1-2.8,1h-5.2v-2.2h5.3
			C103.1,172.8,103.6,172.2,103.6,171.1z M101.5,156.6v-1.8c0-0.3,0.2-0.4,0.4-0.4h1.5c0.3,0,0.4,0.2,0.4,0.4v1.8
			c0,0.3-0.1,0.4-0.4,0.4h-1.5C101.6,157,101.5,156.8,101.5,156.6z M105.6,156.6v-1.8c0-0.3,0.1-0.4,0.4-0.4h1.5
			c0.3,0,0.4,0.2,0.4,0.4v1.8c0,0.3-0.2,0.4-0.4,0.4H106C105.7,157,105.6,156.8,105.6,156.6z"/>
		<path class="st1" d="M120.2,154.3h2.5c0.3,0,0.4,0.2,0.4,0.4v1.4c0,0.3-0.1,0.4-0.4,0.4h-2.5c-3.2,0-4.9,1.6-5.3,4.9h5.7
			c1.9,0,3.6,0.6,4.8,1.9c1.3,1.3,1.9,2.9,1.9,4.9v3.3c0,0.4,0.1,0.6,0.3,0.8c0.3,0.3,0.9,0.5,1.8,0.5h1.6v2.2h-1.2
			c-1.5,0-2.6-0.4-3.3-1.1l-0.1-0.1c-0.7,0.8-1.6,1.2-2.9,1.2h-14.9v-2.2h14.9c1.1,0,1.7-0.5,1.7-1.7v-2.8c0-2.7-1.8-4.6-4.5-4.6
			h-6.8c-0.6,0-1.1-0.5-1.1-1.1C112.7,157.6,115.3,154.3,120.2,154.3z"/>
		<path class="st1" d="M135.2,171.2v-17.6c0-0.3,0.1-0.4,0.4-0.4h1.4c0.3,0,0.4,0.2,0.4,0.4v17.6c0,2.4-1.5,3.8-3.9,3.8h-3.5v-2.2
			h3.5h0C134.7,172.8,135.2,172.3,135.2,171.2z"/>
		<path class="st1" d="M153.6,169.9v-16.3c0-0.3,0.1-0.4,0.4-0.4h1.4c0.3,0,0.4,0.2,0.4,0.4v16.3c0,3.2-1.9,5.1-5.2,5.1h-9
			c-0.3,0-0.4-0.2-0.4-0.4v-1.4c0-0.3,0.1-0.4,0.4-0.4h9C152.7,172.8,153.6,171.9,153.6,169.9z M146.5,179.5v1.8h3.1
			c0.2,0,0.3,0.1,0.3,0.3v0.6c0,0.2-0.1,0.3-0.3,0.3h-5.2c-0.2,0-0.3-0.1-0.3-0.3v-0.6c0-0.2,0.1-0.3,0.3-0.3h0.9v-1.8
			c0-1.2,1-2.3,2.3-2.3c1,0,1.7,0.5,2.1,1.4l0.2,0.3c0,0,0,0.1,0,0.1c0,0.1-0.1,0.2-0.2,0.2l-0.6,0.2c-0.1,0-0.1,0-0.2,0
			c-0.1,0-0.2-0.1-0.2-0.2l-0.1-0.3c-0.2-0.4-0.5-0.7-1-0.7C147,178.5,146.5,178.9,146.5,179.5z M146,169.9V156
			c0-0.3,0.1-0.4,0.4-0.4h1.4c0.3,0,0.4,0.2,0.4,0.4v13.9c0,0.3-0.1,0.4-0.4,0.4h-1.4C146.1,170.3,146,170.2,146,169.9z"/>
		<path class="st1" d="M162.6,175h-1.5c-0.3,0-0.4-0.1-0.4-0.4v-21.1c0-0.3,0.1-0.4,0.4-0.4h1.5c0.2,0,0.4,0.1,0.4,0.4v21.1
			C163,174.9,162.9,175,162.6,175z"/>
		<path class="st1" d="M193.8,172.8h2.4v2.2h-2c-1.6,0-2.9-0.6-3.6-1.8c-1.2,1.2-2.7,1.8-4.4,1.8h-7.5c-1.1,0-2,0.9-2,2v4.1
			c0,0.3-0.2,0.4-0.4,0.4h-1.4c-0.3,0-0.4-0.1-0.4-0.4V177c0-2.3,1.9-4.3,4.3-4.3h1.1v-6.4c0-1.8,0.6-3.3,1.9-4.5s2.8-1.9,4.5-1.9
			c1.8,0,3.3,0.6,4.5,1.9s1.9,2.8,1.9,4.5v2.3c0,1.1-0.2,2-0.7,3C192,172.4,192.8,172.8,193.8,172.8z M182,166.3v6.4h4.2
			c2.3,0,4.2-1.8,4.2-4.1v-2.3c0-2.3-1.9-4.1-4.2-4.1S182,164.1,182,166.3z"/>
		<path class="st1" d="M201.5,171.1V161c0-0.3,0.2-0.4,0.4-0.4h1.4c0.3,0,0.4,0.2,0.4,0.4v10.6c0,0.3,0.1,0.6,0.2,0.8
			c0.3,0.3,0.9,0.5,1.8,0.5h1.4v2.2h-1c-1.5,0-2.6-0.4-3.3-1.1c0,0-0.1,0-0.1-0.1c0,0-0.1,0.1-0.1,0.2c-0.7,0.7-1.6,1-2.8,1h-4.6
			v-2.2h4.6C201,172.8,201.5,172.3,201.5,171.1z M200.3,178.3v1.8c0,0.3-0.1,0.4-0.4,0.4h-1.5c-0.3,0-0.4-0.2-0.4-0.4v-1.8
			c0-0.3,0.1-0.4,0.4-0.4h1.5C200.2,177.9,200.3,178,200.3,178.3z M204.4,178.3v1.8c0,0.3-0.2,0.4-0.4,0.4h-1.5
			c-0.3,0-0.4-0.2-0.4-0.4v-1.8c0-0.3,0.2-0.4,0.4-0.4h1.5C204.2,177.9,204.4,178,204.4,178.3z"/>
		<path class="st1" d="M211.7,171.1v-17.6c0-0.3,0.1-0.4,0.4-0.4h1.4c0.3,0,0.4,0.2,0.4,0.4v18c0,0.4,0.1,0.6,0.3,0.8
			c0.3,0.3,0.9,0.5,1.8,0.5h1.5v2.2h-1.2c-1.5,0-2.6-0.4-3.4-1.2c0,0.1-0.1,0.1-0.1,0.2c-0.7,0.7-1.6,1-2.8,1h-3.7v-2.2h3.7
			C211.2,172.8,211.7,172.3,211.7,171.1z"/>
		<path class="st1" d="M237.5,175h-20.8v-2.2h7.1l-3-6.3c-0.1-0.2-0.1-0.3-0.1-0.5v-0.2c0.2-1.5,0.9-2.8,2.2-4
			c1.4-1.3,2.9-1.9,4.6-1.9c1.7,0,3.3,0.6,4.6,1.8c1.3,1.2,2.1,2.6,2.2,4.2v0.1c0,0.2,0,0.3-0.1,0.5l-3,6.3h6.3V175z M224.5,163.3
			c-0.8,0.7-1.4,1.6-1.6,2.5l3.3,7h2.6l3.3-7c-0.2-1-0.7-1.8-1.6-2.5c-0.9-0.7-1.9-1.1-3-1.1C226.4,162.2,225.4,162.6,224.5,163.3z"
			/>
		<path class="st1" d="M243.4,171.1V161c0-0.3,0.2-0.4,0.4-0.4h1.4c0.3,0,0.4,0.2,0.4,0.4v10.6c0,0.3,0.1,0.6,0.3,0.8
			c0.3,0.3,0.9,0.5,1.8,0.5h1.4v2.2h-1c-1.5,0-2.6-0.4-3.4-1.1c0,0,0,0,0-0.1l-0.1,0.2c-0.7,0.7-1.6,1-2.8,1h-5.2v-2.2h5.3
			C243,172.8,243.4,172.2,243.4,171.1z M241.3,156.6v-1.8c0-0.3,0.2-0.4,0.4-0.4h1.5c0.3,0,0.4,0.2,0.4,0.4v1.8
			c0,0.3-0.1,0.4-0.4,0.4h-1.5C241.5,157,241.3,156.8,241.3,156.6z M245.4,156.6v-1.8c0-0.3,0.1-0.4,0.4-0.4h1.5
			c0.3,0,0.4,0.2,0.4,0.4v1.8c0,0.3-0.2,0.4-0.4,0.4h-1.5C245.5,157,245.4,156.8,245.4,156.6z"/>
		<path class="st1" d="M253.7,171.1v-17.6c0-0.3,0.1-0.4,0.4-0.4h1.4c0.3,0,0.4,0.2,0.4,0.4v18c0,0.4,0.1,0.6,0.3,0.8
			c0.3,0.3,0.9,0.5,1.8,0.5h1.5v2.2h-1.2c-1.5,0-2.6-0.4-3.4-1.2c0,0.1-0.1,0.1-0.1,0.2c-0.7,0.7-1.6,1-2.8,1h-3.7v-2.2h3.7
			C253.2,172.8,253.7,172.3,253.7,171.1z"/>
		<path class="st1" d="M263.8,171.2v-17.6c0-0.3,0.1-0.4,0.4-0.4h1.4c0.3,0,0.4,0.2,0.4,0.4v17.6c0,2.4-1.5,3.8-3.9,3.8h-3.5v-2.2
			h3.5h0C263.3,172.8,263.8,172.3,263.8,171.2z"/>
	</g>
	<line class="st6" x1="325.2" y1="203.8" x2="323" y2="201.8"/>
	<line class="st6" x1="323.2" y1="206.4" x2="319.1" y2="202.5"/>
	<g>
		<g>
			<path class="st2" d="M283.4,126.7c0,0,0.1,0,0.1,0c0.1,0,0.2,0,0.3-0.1c0,0,0.1-0.1,0.1-0.1c-0.1-0.1-0.2-0.2-0.3-0.3
				c-2.2-2.1-4.4-4.1-6.6-6.2v6.6c0.7,0,1.7,0,2.4,0C280.7,126.7,282.1,126.6,283.4,126.7z"/>
			<path class="st2" d="M283.9,139.8C283.9,139.8,283.9,139.8,283.9,139.8c0.1-0.1,0-0.2,0-0.2c0,0-0.1,0-0.1,0c-0.2,0-0.3,0-0.4,0
				c-0.2,0-2.6,0-6.3,0v6.6C279.3,144,281.6,141.9,283.9,139.8z"/>
			<path class="st2" d="M300,104.7h-2.4c0,0,0,0,0,0h0c0,0,0,0,0,0H277c0,0,0,0,0,0c0,0,0,0,0,0c0,0,0,0,0,0c0,0,0,0,0,0
				c0,1.3,0,2.9,0,4.3v2.3c0,1.4,0,3.2,0,4.4c0.5,0.5,1.1,1.1,1.6,1.5c2.4,2.3,4.9,4.6,7.3,6.8c0.2,0.1,0.3,0.2,0.4,0.4
				c0.1,0.2,0.2,0.3,0.3,0.5c0.1,0.2,0.2,0.5,0.3,0.7c0.3,1,0,2.2-0.7,2.9c-0.7,0.7-1.6,1.1-2.6,1.2c-2.2,0-4.4,0-6.7,0v5v1.6
				c1.1,0,2.4,0,3.5,0c0.9,0,2.1,0,3,0c0.1,0,0.1,0,0.2,0c0.2,0,0.4,0.1,0.7,0.1c0.3,0.1,0.6,0.2,0.9,0.3c0.7,0.4,1.3,1,1.6,1.8
				c0.1,0.2,0.1,0.5,0.2,0.7c0,0.3,0,0.6,0,0.8c-0.1,0.5-0.3,1-0.6,1.4c-0.1,0.1-0.2,0.3-0.4,0.4c-0.3,0.4-0.7,0.7-1.1,1
				c-0.4,0.4-2.5,2.2-8,7.5c0,0,0,0.1,0,0.1c-0.1,0,0-0.1,0-0.1v6.9c9.9,8.7,13.1,11.7,13.8,12.7c0.9,1.1,2.1,1.8,3.1,2.8
				c0.1,0.1,0.2,0.1,0.3,0.2c0.1,0,0.3,0.1,0.4,0c0,0,0.1-0.1,0.1-0.1c-0.1-13.9-0.1-22.8-0.1-22.9c0-0.1,0-0.2,0-0.2
				c0-0.1,0-0.1,0-0.2c0-0.1-0.3-0.2-0.4-0.1c-0.1,0-0.2,0.1-0.2,0.1c-4,3.4-5.5,4.7-6.1,5.1c-0.4,0.4-0.7,0.6-1.2,1
				c-0.3,0.3-0.6,0.5-1,0.9c-0.2,0.2-0.4,0.4-0.6,0.5c-0.7-0.8-1.4-1.6-2-2.4c0.3-0.2,0.7-0.6,1.2-1c1.1-1,1.6-1.4,3.5-3
				c1.7-1.5,2.7-2.3,3.1-2.6c0.5-0.4,1-0.8,1.3-1.1c0.1-0.1,0.3-0.2,0.4-0.3c0.4-0.2,0.9-0.4,1.4-0.4c0.3,0,0.7,0,1,0
				c0.8,0.1,1.3,0.4,1.5,0.6c0.1,0.1,0.2,0.2,0.2,0.2c0.2,0.1,0.3,0.3,0.4,0.3c0.3,0.3,0.5,0.6,0.6,0.9c0.1,0.3,0.2,0.7,0.3,1
				c0,0.2,0,0.4,0,0.6c0,1.7,0,3.1,0,4c0,0.8,0,1.2,0,3.1c0,1.5,0,2.7,0,3.4c0,0.8,0,1.7,0,3.6c0,0.1,0,2.4,0,3.8c0,1.2,0,2.8,0,4.9
				c0,0.1,0,0.3,0,0.4c-0.1,0.6-0.3,1.2-0.7,1.7c-0.1,0.1-0.2,0.2-0.3,0.4c-0.4,0.4-0.9,0.6-1.4,0.8c-0.7,0.2-1.4,0.2-2.1,0
				c-0.6-0.2-1.1-0.5-1.5-0.9c-4-3.5-10.4-9.6-10.4-9.6c-1.2-1.2-2.5-2.3-2.5-2.3c-0.8-0.7-1.5-1.3-1.9-1.7v9.9
				c5.4,4.8,10.8,9.6,16.2,14.4c0.2,0.2,0.4,0.4,0.5,0.6c0.2,0.2,0.3,0.4,0.4,0.7c0.2,0.5,0.3,1,0.2,1.5c-0.1,0.7-0.4,1.2-0.6,1.5
				c-0.2,0.3-0.4,0.5-0.7,0.7c-1.7,1.6-3.5,3.2-5.2,4.8c-1,0.9-1.9,1.7-2.9,2.6c0.3,0.3,0.8,0.6,1.4,1c1,0.7,2.1,1.2,3.2,1.7
				c1.4,0.6,2.9,1,4.4,1.3c1,0.2,2.1,0.3,3.1,0.3c0.4,0,3,0,3,0l0,0C300,202.5,300,114.7,300,104.7z M297.8,111.6c0,0.4,0,0.5,0,1.4
				c0,1,0,0.9,0,1.6c0,0.5,0,0.6,0,1.4c0,0.5,0,0.9,0,1.1c0,0.1,0,0.2,0,0.3c0,0.1,0,0.2-0.1,0.3c-0.1,0.2-0.1,0.4-0.2,0.6
				c-0.1,0.1-0.1,0.3-0.2,0.4c-0.2,0.3-0.4,0.5-0.6,0.7c-0.1,0.1-0.2,0.2-0.4,0.3c-0.1,0.1-0.2,0.1-0.2,0.1c0,0-0.2,0.1-0.4,0.2
				c-0.2,0.1-0.4,0.2-0.6,0.2c-0.3,0.1-0.6,0.1-0.9,0.1c-0.6,0-1.1-0.1-1.6-0.4c-0.3-0.1-0.5-0.3-0.7-0.5c-0.3-0.2-0.8-0.6-1.3-1.1
				c-0.6-0.5-1.1-0.9-1.2-1.1c-1.1-0.9-3.4-2.8-3.4-2.8c-0.8-0.6-1.8-1.5-3.2-2.7c0.1-0.2,0.2-0.3,0.3-0.4c0.6-0.8,0.9-1.1,1.6-1.9
				c0.1-0.1,0.1-0.1,0.1-0.2c3.1,2.6,6.2,5.2,9.2,7.8c0.1,0,0.1,0.1,0.2,0.1c0.1,0,0.2,0,0.3,0c0.1,0,0.2-0.1,0.2-0.1
				c0,0,0-0.1,0-0.1c0-0.2,0-2.8,0-6.4l3.1,0v0c0,0.2,0,0.4,0,0.4C297.8,111.3,297.8,111.5,297.8,111.6z"/>
			<path class="st2" d="M289.4,189.9c0.3-0.3,0.4-0.4,0.5-0.5c0.3-0.3,0.6-0.6,0.8-0.7c0,0,0.1-0.1,0.2-0.2c0.1-0.1,0.1-0.1,0.1-0.1
				c0,0,0.2-0.1,0.2-0.2c0,0,0,0,0,0c0,0,0,0,0,0c0,0,0,0,0,0c-0.2-0.2-0.6-0.5-1-0.8c-2-1.7-3.5-3.1-3.8-3.5
				c-1.2-1.1-3.7-3.4-9.3-8.3c0,0.6,0,1.2,0,1.8c0,0.7,0,1.5,0,2.2c0,0.8,0,1.2,0,1.9c0,0.3,0,0.9,0,1.1c0,1.1,0.1,2.2,0.3,3.3
				c0.3,1.4,0.7,2.8,1.3,4.2c0.8,1.8,1.8,3.4,3,4.9c0.3,0.4,0.7,0.8,0.9,1.1c3.4-3.1,5.9-5.4,6.3-5.7
				C289.1,190.2,289.4,189.9,289.4,189.9z"/>
		</g>
		<g>
			<path class="st3" d="M318.5,130c-0.2,0-0.4,0-0.6,0c0,0-0.1,0-0.1,0c-0.1,0-0.3,0-0.5,0c-0.6,0-0.6,0-0.6,0
				c-0.6,0-1.2-0.2-1.7-0.5c-0.3-0.2-0.6-0.5-0.9-0.8c-0.3-0.4-0.5-0.8-0.6-1.2c-0.1-0.4-0.1-0.9-0.1-1.3c0.1-0.4,0.2-0.8,0.5-1.2
				c0.1-0.1,0.2-0.3,0.3-0.4c0.7-0.7,6.5-6.1,6.9-6.4c-0.9-2-2-3.8-3.4-5.4c-0.2-0.3-0.5-0.5-0.6-0.7c-2,1.7-3.9,3.4-5.9,5.2
				c-0.9,0.8-1.9,1.6-2.8,2.4c-0.1,0.1-0.3,0.2-0.4,0.3c-0.4,0.2-0.8,0.4-1.2,0.5c-0.4,0.1-0.9,0.1-1.3,0c-0.8-0.1-1.4-0.6-1.8-0.8
				c-0.1-0.1-0.2-0.2-0.4-0.3c-0.4-0.4-0.6-0.9-0.7-1.2c-0.1-0.2-0.1-0.4-0.1-0.5c0-0.7,0-1.3,0-2c0-1.7,0-3.3,0-5h3.1h0
				c0,2.2,0,4.3,0,6.5c0,0,0,0.1,0,0.1c0.1,0.1,0.3,0.2,0.5,0.1c0.1,0,0.1,0,0.2-0.1c0,0,0.1,0,0.1-0.1c0.1-0.1,3.3-2.9,8.5-7.2
				c-0.2-0.2-0.6-0.5-1-0.8c-3.3-2.4-7.2-3.9-11.3-4.3c-0.1,0-0.3,0-0.5,0c-0.1,0-0.4,0-0.9,0c-0.3,0-0.6,0-1.1,0
				c0,10.1,0,29.9,0,29.9h23V130c-0.8,0-1.5,0-2.2,0C320.5,130,319.4,130,318.5,130z"/>
			<path class="st3" d="M316.6,126.7C316.6,126.7,316.6,126.7,316.6,126.7c0,0.1,0.1,0.2,0.1,0.2c0.1,0,0.2,0,0.3,0c2,0,4.1,0,6.1,0
				c0-0.8-0.1-1.6-0.1-2.2c-0.1-0.8-0.2-1.4-0.3-1.9c-0.1-0.5-0.2-1-0.3-1.4C320.1,123.4,316.6,126.6,316.6,126.7z"/>
		</g>
		<g>
			<path class="st4" d="M314.7,183.1c-1,0.9-1.9,1.7-2.7,2.5c-1.3,1.1-2.3,2.1-3.2,2.9c0.5,0.5,1.2,1.1,2.1,1.9
				c0.4,0.4,0.9,0.8,1.3,1.2c2.3,2.1,4,3.6,4.7,4.3c1.5,1.4,3.6,3.3,6.3,5.9v-26.3c-1.6,1.5-3,2.7-4.1,3.8
				C317.4,180.7,316.2,181.8,314.7,183.1z"/>
			<path class="st4" d="M319,139.4c-0.2,0-0.4,0-0.6,0c-0.1,0-1.2-0.1-1.7,0c0,0,0,0,0,0c-0.1,0-0.2,0-0.2,0.1c0,0,0,0.1,0,0.1
				c0,0,0,0,0.1,0.1c0.2,0.1,0.3,0.3,0.5,0.4c1.4,1.4,2.8,2.7,4.3,4.1c0.5,0.5,1.1,0.9,1.6,1.4v-6.1
				C323,139.4,319.7,139.4,319,139.4z"/>
			<path class="st4" d="M323,136.3v-1.7h-23l0,0v67.9h19c-2.2-2.1-4.5-4.3-6.8-6.4c-0.8-0.7-1.5-1.4-2.3-2.1
				c-0.1-0.1-0.5-0.5-1.2-1.1c-0.7-0.6-1.2-1.1-1.6-1.5c-0.1-0.1-0.3-0.3-0.4-0.3c-0.2-0.2-0.2-0.2-0.4-0.3
				c-0.1-0.1-0.2-0.2-0.3-0.4c-0.2-0.3-0.4-0.6-0.5-0.9c-0.1-0.2-0.1-0.4-0.2-0.7c0-0.3,0-0.6,0-0.9c0.1-0.6,0.3-1.1,0.7-1.6
				c0.1-0.1,0.2-0.2,0.3-0.3c1.6-1.4,3.3-2.8,4.8-4.3c0.3-0.3,0.5-0.5,0.7-0.7c1.3-1.3,1.6-1.5,5.1-4.7c2.3-2.1,4.4-4,5-4.6
				c0.3-0.2,0.5-0.5,0.8-0.7v-9.3c-5.5,5.1-8.8,8.1-10.6,9.8c-1.1,1.1-1.7,1.6-1.9,1.8c-0.6,0.6-1,0.9-1.5,1.4c0,0-0.2,0.2-0.5,0.5
				c-0.2,0.2-0.5,0.4-0.7,0.6c-0.6,0.3-1.2,0.5-1.8,0.5c-0.1,0-0.2,0-0.3,0c-0.1,0-0.7-0.1-1.2-0.3c-0.1,0-0.2-0.1-0.2-0.1
				c-0.2-0.1-0.4-0.2-0.6-0.4c-0.3-0.2-0.5-0.4-0.7-0.7c-0.3-0.5-0.5-1-0.6-1.5c0-0.2,0-0.4,0-0.6c0.1-1.3,0.2-16.6,0.1-19.5
				c0-1.2,0.1-2.3,0-3.5c0-0.5,0.1-1,0.3-1.5c0.2-0.4,0.4-0.7,0.6-1c0.8-0.9,2-1.3,3.2-1.1c0.1,0,0.3,0,0.4,0.1
				c0.7,0.2,1.1,0.5,1.6,0.9c0.1,0.1,0.3,0.3,0.7,0.6c0.3,0.2,0.5,0.4,0.5,0.4c0.4,0.4,0.9,0.7,1.3,1.1c0.1,0.1,0.2,0.1,0.2,0.2
				c0.8,0.6,2.9,2.5,5.9,5.1c0,0,0,0,0,0l0,0c0,0,0,0,0,0c-0.3,0.4-0.6,0.8-1,1.2c-0.4,0.4-0.7,0.8-1.1,1.3c0,0,0,0,0,0c0,0,0,0,0,0
				c-1.4-1.2-2.7-2.4-4.1-3.5c-1.6-1.4-3.2-2.7-4.8-4.1c-0.1-0.1-0.2-0.1-0.3-0.1c-0.1,0-0.2,0-0.3,0.1c0,0-0.1,0-0.1,0.1
				c0,7.6,0,15.2-0.1,22.8c0,0.2,0,0.6,0,0.8c0,0,0.1,0.1,0.2,0.1c0.1,0,0.1,0,0.2,0c0,0,0,0,0.1,0c0.1,0,0.2,0,0.2-0.1
				c0.1,0,0.2-0.1,0.2-0.2c2.4-2.2,4.4-4,5.7-5.2c0.1-0.1,0.1-0.1,0.2-0.2c2.3-2.2,2.6-2.4,5.2-4.8c2.1-1.9,2.7-2.5,4.7-4.4
				c0.4-0.3,0.6-0.6,0.9-0.8v-7.4c-0.1-0.1-4.5-4.2-4.6-4.3l-4.3-4c-0.1-0.2-0.3-0.4-0.4-0.6c-0.2-0.3-0.3-0.6-0.4-1
				c-0.1-0.4-0.1-0.8,0-1.2c0.1-0.5,0.3-1,0.7-1.4c0.7-0.8,1.6-1.1,2-1.2c0.1,0,0.2,0,0.3,0C318.6,136.3,320.8,136.3,323,136.3
				L323,136.3z"/>
		</g>
		<g>
			<path class="st5" d="M323,201.8v-26.3c1.7-1.6,3.7-3.4,5.9-5.5v0.2c-0.1,10.3-0.1,14.9,0,17.1v3.8c0,0.1,0,0.2,0,0.3
				c-0.1,1-0.1,2.2-0.4,3.8c-0.3,1.5-0.7,3-1.3,4.4c-0.5,1.4-1.2,2.8-2,4.1L323,201.8z"/>
			<path class="st5" d="M323,134.6v22.9c0.7-0.7,5-4.6,5.9-5.4v-17.5H323z"/>
			<path class="st5" d="M323.2,206.4c-1.3,1.6-2.7,3-4.3,4.2c-1.6,1.2-3.3,2.2-5.1,3.1c-1.3,0.6-2.6,1-4,1.4
				c-1.2,0.3-2.4,0.5-3.6,0.7c-1.7,0.2-3.1,0.2-4.8,0.2c-0.7,0-1.1,0-1.5,0c0-4.5,0-8.9,0-13.4h19L323.2,206.4z"/>
			<path class="st5" d="M323,161.8v9.3c1.2-1.1,2.3-2.1,3.8-3.5c0.9-0.8,1.6-1.4,2.1-1.9v-9.5C326.7,158.3,324.8,160.2,323,161.8
				L323,161.8z"/>
		</g>
	</g>
	<g>
		<path class="st1" d="M32,192.2c0,0.3,0.1,3.3,0.1,3.8l0,8.6l-1.5,0l0-14.3l2.2,0l4.7,9c0.1,0.3,1.5,2.9,1.6,3.2l0.1,0
			c0-0.4,0-3.5,0-3.8l0-8.4l1.5,0l0,14.3l-2.2,0l-4.8-9.1c-0.1-0.3-1.5-2.9-1.6-3.2L32,192.2z"/>
		<path class="st1" d="M51.3,196.6l0,5c0,1,0.3,1.7,1.1,1.7l0.3,0l0,1.2c-0.1,0.1-0.4,0.1-0.6,0.1c-1.1,0-1.7-0.6-2-1.3l-0.1,0
			c-0.5,0.6-1.4,1.5-3.2,1.5c-2,0-3.1-1.4-3.1-3c0-2.4,2.3-3.7,6.2-3.6l0-1.2c0-1.8-0.9-2.3-2.3-2.3c-1.5,0-2.2,0.8-2.5,1.4
			l-1.1-0.9c0.4-0.5,1.4-1.8,3.6-1.8C49.9,193.3,51.3,194.3,51.3,196.6z M49.8,199.4c-2.6-0.1-4.7,0.6-4.7,2.2c0,1,0.7,1.8,2,1.8
			c1.2,0,2.2-0.8,2.7-1.5L49.8,199.4z"/>
		<path class="st1" d="M55.4,201.6l0-6.9l-1.6,0l0-1l1.6-0.3l0.5-2.9l1.1,0l0,2.9l3,0l0,1.3l-3,0l0,6.8c0,1.2,0.6,1.8,1.6,1.8
			c0.9,0,1.4-0.2,1.7-0.4l0.4,1.3c-0.4,0.2-1.1,0.5-2.4,0.5C56.4,204.6,55.4,203.7,55.4,201.6z"/>
		<path class="st1" d="M63.9,189c0.7,0,1.2,0.5,1.2,1.2c0,0.7-0.5,1.1-1.2,1.1c-0.6,0-1.1-0.5-1.1-1.1C62.8,189.5,63.3,189,63.9,189
			z M63.2,193.4l1.6,0l0,11.1l-1.6,0L63.2,193.4z"/>
		<path class="st1" d="M67.9,199c0-3.4,1.2-5.8,4.5-5.8c3.3,0,4.5,2.3,4.5,5.7c0,3.4-1.3,5.8-4.6,5.8S67.9,202.4,67.9,199z
			 M72.4,203.3c2.1,0,2.9-1.4,2.8-4.3c0-3-0.9-4.4-3-4.4c-2.1,0-2.8,1.4-2.8,4.3C69.5,201.8,70.4,203.3,72.4,203.3z"/>
		<path class="st1" d="M87.8,204.5l-1.6,0l0-7.3c0-1.7-0.8-2.6-2.3-2.6c-1.3,0-2.4,0.9-2.8,2l0,7.9l-1.6,0l0-11.1l1.2,0l0.3,1.2
			l0.1,0c0.3-0.4,1.4-1.4,3.1-1.4c2.2,0,3.5,1.2,3.5,3.7L87.8,204.5z"/>
		<path class="st1" d="M98.1,196.6l0,5c0,1,0.3,1.7,1.1,1.7l0.3,0l0,1.2c-0.1,0.1-0.4,0.1-0.6,0.1c-1.1,0-1.7-0.6-2-1.3l-0.1,0
			c-0.5,0.6-1.4,1.5-3.2,1.5c-2,0-3.1-1.4-3.1-3c0-2.4,2.3-3.7,6.2-3.6l0-1.2c0-1.8-0.9-2.3-2.3-2.3c-1.5,0-2.2,0.8-2.5,1.4
			l-1.1-0.9c0.4-0.5,1.4-1.8,3.6-1.8C96.7,193.2,98.1,194.2,98.1,196.6z M96.7,199.4c-2.6-0.1-4.7,0.6-4.7,2.2c0,1,0.7,1.8,2,1.8
			c1.2,0,2.2-0.8,2.7-1.5L96.7,199.4z"/>
		<path class="st1" d="M103.6,189l0,12.8c0,1,0.3,1.4,1.1,1.4c0.4,0,0.7-0.1,0.9-0.2l0,1.3c-0.4,0.2-0.9,0.2-1.4,0.2
			c-1.5,0-2.2-0.9-2.2-2.3l0-13.3L103.6,189z"/>
		<path class="st1" d="M121,203.6c-0.7,0.6-1.9,1-3.4,1c-3.1,0-4.8-1.6-4.8-5.7c0-4,2.2-5.7,4.6-5.7c2.6,0,4,1.7,4,4.3
			c0,0.6,0,1.2-0.1,1.9l-6.9,0c0.1,2.7,1.3,3.8,3.4,3.8c1.1,0,2.1-0.4,2.5-0.8L121,203.6z M114.4,198.1l5.4,0c0-0.2,0-0.5,0-0.6
			c0-1.9-0.8-3-2.6-3C115.9,194.5,114.6,195.4,114.4,198.1z"/>
		<path class="st1" d="M126.1,190.1l0,12.8l6,0l0,1.4l-7.6,0l0-14.3L126.1,190.1z"/>
		<path class="st1" d="M141.7,203.5c-0.7,0.6-1.9,1-3.4,1c-3.1,0-4.8-1.6-4.8-5.7c0-4,2.2-5.7,4.6-5.7c2.6,0,4,1.7,4,4.3
			c0,0.6,0,1.2-0.1,1.9l-6.9,0c0.1,2.7,1.3,3.8,3.4,3.8c1.1,0,2.1-0.4,2.5-0.8L141.7,203.5z M135.1,198.1l5.4,0c0-0.2,0-0.5,0-0.6
			c0-1.9-0.8-3-2.6-3C136.5,194.5,135.2,195.4,135.1,198.1z"/>
		<path class="st1" d="M151.9,196.5l0,5c0,1,0.3,1.7,1.1,1.7l0.3,0l0,1.2c-0.1,0.1-0.4,0.1-0.6,0.1c-1.1,0-1.7-0.6-2-1.3l-0.1,0
			c-0.5,0.6-1.4,1.5-3.2,1.5c-2,0-3.1-1.4-3.1-3c0-2.4,2.3-3.7,6.2-3.6l0-1.2c0-1.8-0.9-2.3-2.3-2.3c-1.5,0-2.2,0.8-2.5,1.4
			l-1.1-0.9c0.4-0.5,1.4-1.8,3.6-1.8C150.6,193.1,151.9,194.1,151.9,196.5z M150.5,199.3c-2.6-0.1-4.7,0.6-4.7,2.2
			c0,1,0.7,1.8,2,1.8c1.2,0,2.2-0.8,2.7-1.5L150.5,199.3z"/>
		<path class="st1" d="M161.2,194.8c-0.4-0.1-0.8-0.2-1.2-0.2c-1.1,0-2.2,0.4-2.7,1.4l0,8.3l-1.5,0l0-11.1l1.2,0l0.3,1.2l0.1,0
			c0.5-0.8,1.5-1.4,2.7-1.4c0.5,0,0.9,0,1.1,0.1L161.2,194.8z"/>
		<path class="st1" d="M171.2,204.3l-1.6,0l0-7.3c0-1.7-0.8-2.6-2.3-2.6c-1.3,0-2.4,0.9-2.8,2l0,7.9l-1.6,0l0-11.1l1.2,0l0.3,1.2
			l0.1,0c0.3-0.4,1.4-1.4,3.1-1.4c2.2,0,3.5,1.2,3.5,3.7L171.2,204.3z"/>
		<path class="st1" d="M175.6,188.8c0.7,0,1.2,0.5,1.2,1.2c0,0.7-0.5,1.1-1.2,1.1c-0.6,0-1.1-0.5-1.1-1.1
			C174.5,189.3,175,188.8,175.6,188.8z M175,193.2l1.6,0l0,11.1l-1.6,0L175,193.2z"/>
		<path class="st1" d="M188.4,204.3l-1.6,0l0-7.3c0-1.7-0.8-2.6-2.3-2.6c-1.3,0-2.4,0.9-2.8,2l0,7.9l-1.6,0l0-11.1l1.2,0l0.3,1.2
			l0.1,0c0.3-0.4,1.4-1.4,3.1-1.4c2.2,0,3.5,1.2,3.5,3.7L188.4,204.3z"/>
		<path class="st1" d="M199.5,204.4c0,2.9-1.7,4.4-4.5,4.4c-2.1,0-3.1-0.7-3.6-1.2l0.9-1.3c0.5,0.5,1.4,1,2.9,1c2,0,2.8-1,2.8-3l0-1
			l-0.1,0c-0.3,0.3-1.3,0.9-2.7,0.9c-2.2,0-4.1-1.4-4.1-5.2c0-3.5,1.7-5.9,5.3-5.9c1.4,0,2.4,0.2,3.1,0.6L199.5,204.4z M196.1,194.5
			c-2.1,0-3.5,1.4-3.5,4.3c0,3.2,1.4,4,3,4c0.9,0,1.8-0.4,2.3-1.1l0-7C197.5,194.6,196.8,194.5,196.1,194.5z"/>
		<path class="st1" d="M213.8,189.8c2.1,0,3.3,0.8,3.7,1.2l-1,1.2c-0.6-0.5-1.4-1-2.9-1c-2.4,0-3.9,1.8-3.9,5.9
			c0,3.9,1.4,5.9,4.1,5.9c1.4,0,2.2-0.4,2.7-0.9l0.9,1.2c-0.6,0.6-1.8,1.2-3.8,1.2c-3.9,0-5.5-2.8-5.5-7.2
			C208.1,192.5,210.1,189.8,213.8,189.8z"/>
		<path class="st1" d="M227.5,203.4c-0.7,0.6-1.9,1-3.4,1c-3.1,0-4.8-1.6-4.8-5.7c0-4,2.2-5.7,4.6-5.7c2.6,0,4,1.7,4,4.3
			c0,0.6,0,1.2-0.1,1.9l-6.9,0c0.1,2.7,1.3,3.8,3.4,3.8c1.1,0,2.1-0.4,2.5-0.8L227.5,203.4z M220.9,197.9l5.4,0c0-0.2,0-0.5,0-0.6
			c0-1.9-0.8-3-2.6-3C222.3,194.3,221,195.3,220.9,197.9z"/>
		<path class="st1" d="M238.9,204.2l-1.6,0l0-7.3c0-1.7-0.8-2.6-2.3-2.6c-1.3,0-2.4,0.9-2.8,2l0,7.9l-1.6,0l0-11.1l1.2,0l0.3,1.2
			l0.1,0c0.3-0.4,1.4-1.4,3.1-1.4c2.2,0,3.5,1.2,3.5,3.7L238.9,204.2z"/>
		<path class="st1" d="M242.5,201.3l0-6.9l-1.6,0l0-1l1.6-0.3l0.5-2.9l1.1,0l0,2.9l3,0l0,1.3l-3,0l0,6.8c0,1.2,0.6,1.8,1.6,1.8
			c0.9,0,1.4-0.2,1.7-0.4l0.4,1.3c-0.4,0.2-1.1,0.5-2.4,0.5C243.5,204.3,242.5,203.4,242.5,201.3z"/>
		<path class="st1" d="M257.4,203.3c-0.7,0.6-1.9,1-3.4,1c-3.1,0-4.8-1.6-4.8-5.7c0-4,2.2-5.7,4.6-5.7c2.6,0,4,1.7,4,4.3
			c0,0.6,0,1.2-0.1,1.9l-6.9,0c0.1,2.7,1.3,3.8,3.4,3.8c1.1,0,2.1-0.4,2.5-0.8L257.4,203.3z M250.7,197.9l5.4,0c0-0.2,0-0.5,0-0.6
			c0-1.9-0.8-3-2.6-3C252.2,194.3,250.9,195.2,250.7,197.9z"/>
		<path class="st1" d="M266,194.7c-0.4-0.1-0.8-0.2-1.2-0.2c-1.1,0-2.2,0.4-2.7,1.4l0,8.3l-1.5,0l0-11.1l1.2,0l0.3,1.2l0.1,0
			c0.5-0.8,1.5-1.4,2.7-1.4c0.5,0,0.9,0,1.1,0.1L266,194.7z"/>
	</g>
</g>
</svg>
