<svg id="Layer_1" data-name="Layer 1" xmlns="http://www.w3.org/2000/svg" viewBox="0 0 576 545.81"><defs><style>.cls-1{fill:#54b948;}.cls-2,.cls-4{fill:#d22630;}.cls-2{stroke:#d22630;stroke-miterlimit:10;}.cls-3{isolation:isolate;}</style></defs><path class="cls-1" d="M482.52,429.05c-46.26,59.07-118,97.21-198.72,97.21S131.33,488.12,85.07,429.05H76.59c47.34,63,122.5,104,207.21,104s159.86-41,207.2-104Z"/><path class="cls-1" d="M97.84,103.22c46.19-50.36,112.39-82.08,186-82.08s139.77,31.72,186,82.08h9c-47.56-54.33-117.25-88.83-195-88.83s-147.4,34.5-195,88.83Z"/><path class="cls-2" d="M481.83,429.05c-46.26,59.07-118,97.21-198.72,97.21S130.64,488.12,84.38,429.05H75.9c47.34,63,122.5,104,207.21,104s159.86-41,207.2-104Z"/><path class="cls-2" d="M97.14,103.22c46.2-50.36,112.4-82.08,186-82.08s139.76,31.72,186,82.08h9c-47.56-54.33-117.25-88.83-195-88.83s-147.4,34.5-195,88.83Z"/><g id="Go_your_own_way-2" data-name="Go your own way-2" class="cls-3"><g class="cls-3"><path class="cls-4" d="M45.91,123.52l21.56,79.9,20.59-79.9h35.28V247.65H98.42V155.38l-22,87.16H54.87l-22-87.16v92.27H9.79V123.52Z"/><path class="cls-4" d="M193.21,247.65l-5.32-25.25h-30l-5.61,25.25H128.8l30.67-124.13h31.78l30.1,124.13ZM163,199.78h20.16l-9.8-46.38Z"/><path class="cls-4" d="M252.58,203.58v44.07H226.82V123.52h36c8.12,0,19.88,0,29.12,7.59,8,6.61,11.62,17.5,11.62,31.2,0,18-6.16,29.22-16.38,35.49l20.44,49.85H278.48L262.8,203.58Zm0-24.1h10.5c2.24,0,6.72.17,9.52-2.31,2.66-2.31,4.62-7.1,4.62-13.87,0-5.94-1.54-10.89-4.48-13.37s-7.28-2.47-9.52-2.47H252.58Z"/><path class="cls-4" d="M341.77,123.52v49l29.12-49h26.47l-29.69,48.7,30.39,75.43H368.65l-19-49.85L341.77,209v38.62H315.45V123.52Z"/><path class="cls-4" d="M468.06,123.52v24.27H431.52v23.93h30.66v24.43H431.52v27.07h38.37v24.43H405.06V123.52Z"/><path class="cls-4" d="M511.47,123.52c9.1,0,22.68,0,34.3,8.26,11.07,7.92,19.33,23.1,19.33,53.48,0,29.05-7.56,45.56-19.47,54.14-11.62,8.25-25.34,8.25-34.16,8.25H480.81V123.52Zm-4.2,100h6.3c3.5,0,9.24,0,13.72-3.3,7.14-5.11,9.8-17,9.8-35,0-17.83-2.66-29.38-10.22-34.5-4.62-3.14-9.8-3.3-13.3-3.3h-6.3Z"/></g></g><g id="Go_your_own_way-2-2" data-name="Go your own way-2" class="cls-3"><g class="cls-3"><path class="cls-4" d="M80.7,267.28c10.65,0,26.54,0,40.14,9,12.94,8.61,22.61,25.09,22.61,58.07,0,31.54-8.85,49.46-22.78,58.78-13.59,9-29.65,9-40,9H44.82V267.28ZM75.78,375.89h7.38c4.09,0,10.81,0,16-3.59,8.36-5.55,11.47-18.46,11.47-38,0-19.36-3.11-31.9-12-37.46-5.41-3.4-11.47-3.58-15.56-3.58H75.78Z"/><path class="cls-4" d="M246.66,386.46c-9,11.47-23.1,18.1-41,18.1-16.88,0-31.29-5.91-40.63-18.28-9.51-12.72-12.95-31.18-12.95-51.61,0-22.58,4.26-40,13.6-51.8,9-11.47,23.27-18.1,41.12-18.1,16.88,0,31.3,5.92,40.64,18.28,10,13.27,12.94,32.44,12.94,50.9C260.42,356.71,256,374.63,246.66,386.46Zm-24.42-17.74c3.61-7,4.92-17.39,4.92-34.05,0-16.85-1.31-27.06-4.92-34.05-3.11-5.92-8.35-9.86-16.05-9.86-7.21,0-12.62,3.58-15.89,9.86-3.61,7-4.92,17.2-4.92,34.05,0,16.66,1.31,27.06,4.92,34.05,3.27,6.27,8.68,9.85,15.89,9.85C213.89,378.57,219.13,374.63,222.24,368.72Z"/><path class="cls-4" d="M296.29,267.28l16.06,94.45,16.87-92.65h32.44l16.39,92.65,16.54-94.45h25.89L392.63,402.05H359.7l-17.53-93.19-17.53,93.19H291.71L264.35,267.28Z"/><path class="cls-4" d="M460.28,267.28,500.09,344V267.28h27V402.05H499.44L456.35,322.3v79.75h-27V267.28Z"/></g></g></svg>