<svg xmlns="http://www.w3.org/2000/svg" width="80" height="40"><path fill="#1a1f71" d="M38.696 10.248L34.513 29.8h-5.06l4.182-19.553h5.06zm21.28 12.624l2.663-7.342 1.53 7.342h-4.193zM65.62 29.8h4.676l-4.084-19.553h-4.315c-.974 0-1.792.563-2.153 1.434l-7.59 18.12h5.312l1.054-2.924h6.49l.612 2.923zm-13.205-6.383c.02-5.158-7.135-5.443-7.088-7.75.02-.7.686-1.447 2.146-1.64.724-.094 2.724-.168 4.988.875l.886-4.15c-1.218-.44-2.782-.862-4.73-.862-5 0-8.518 2.657-8.545 6.463-.033 2.813 2.5 4.383 4.424 5.32 1.973.96 2.635 1.574 2.623 2.43-.014 1.312-1.572 1.893-3.024 1.914-2.543.04-4.02-.688-5.195-1.234l-.916 4.285c1.183.54 3.362 1.014 5.622 1.04 5.316-.001 8.794-2.628 8.808-6.692m-20.948-13.17L23.275 29.8h-5.35l-4.03-15.604c-.245-.96-.458-1.312-1.202-1.718-1.217-.66-3.226-1.277-4.99-1.663l.118-.567h8.606c1.095 0 2.083.73 2.333 1.994l2.13 11.312 5.26-13.307h5.315z"/></svg>