<?xml version="1.0" standalone="no"?>
<!DOCTYPE svg PUBLIC "-//W3C//DTD SVG 20010904//EN"
 "http://www.w3.org/TR/2001/REC-SVG-20010904/DTD/svg10.dtd">
<svg version="1.0" xmlns="http://www.w3.org/2000/svg"
 width="32.000000pt" height="32.000000pt" viewBox="0 0 32.000000 32.000000"
 preserveAspectRatio="xMidYMid meet">
<metadata>
Created by potrace 1.16, written by Peter Selinger 2001-2019
</metadata>
<g transform="translate(0.000000,32.000000) scale(0.100000,-0.100000)"
fill="#000000" stroke="none">
<path d="M3 304 c-4 -11 15 -36 58 -80 l63 -64 -63 -64 c-43 -44 -62 -69 -58
-80 11 -27 29 -18 94 46 l63 62 64 -63 c44 -43 69 -62 80 -58 27 11 18 29 -46
94 l-62 63 62 63 c64 65 73 83 46 94 -11 4 -36 -15 -80 -58 l-64 -63 -63 62
c-65 64 -83 73 -94 46z"/>
</g>
</svg>
