<svg xmlns="http://www.w3.org/2000/svg" xmlns:xlink="http://www.w3.org/1999/xlink" width="355" height="355" viewBox="0 0 355 355"><defs><style>.a{fill:none;}.b{clip-path:url(#a);}.c{fill:#231f20;}</style><clipPath id="a"><rect class="a" width="306" height="204.474"/></clipPath></defs><g transform="translate(-1927 -32)"><g transform="translate(-6)"><rect class="a" width="355" height="355" transform="translate(1933 32)"/></g><g transform="translate(780 -770.963)"><g transform="translate(1172 878)"><g class="b" transform="translate(0 0)"><path class="c" d="M105.785,101.315c-14.438,0-23.044-7.331-23.545-17.726H95.83c0,3.245,2.041,8,10.812,8.175,5.85,0,8.6-3.412,8.6-5.96-.356-4.086-5.5-4.42-11.029-5.283-5.481-.866-10.122-1.865-13.546-3.566a13.9,13.9,0,0,1-7.236-12.437c0-9.221,8.1-16.542,21.5-16.542,13.023,0,21.305,6.817,22.162,16.879h-13.07c-.164-2.719-.69-7.009-8.414-7.009-5.16,0-8.575,1.046-8.956,4.612,0,5.3,10.843,4.946,19.258,7.151,8.08,2.048,13.244,7,13.244,13.981,0,12.781-10.494,17.726-23.375,17.726" transform="translate(176.837 103.158)"/><path class="c" d="M10.477,55.326,55.693,29.585l23.885,40.9H19.248Z" transform="translate(22.529 63.614)"/><rect class="c" width="12.9" height="51.636" transform="translate(121.367 151.641)"/><path class="c" d="M12.377,74.544A14.967,14.967,0,0,0,27.325,89.2c8.26,0,15.143-6.638,15.143-14.655a15.047,15.047,0,0,0-30.091,0m14.611,26.771A27.047,27.047,0,0,1,0,74.544,26.769,26.769,0,0,1,26.988,47.975a27.1,27.1,0,0,1,15.48,4.6v-4.1h12.7v51.639h-12.7V96.7a27.56,27.56,0,0,1-15.48,4.612" transform="translate(0 103.158)"/><path class="c" d="M88.932,0,43.713,25.911,106.642,134.1h60.513Z" transform="translate(93.994 -0.001)"/><path class="c" d="M31.3,86.169c0,8.017,6.88,14.655,15.146,14.655A14.966,14.966,0,0,0,61.387,86.169a15.046,15.046,0,0,0-30.088,0m14.794,26.771A27.083,27.083,0,0,1,18.937,86.169c0-14.819,12.21-26.569,27.155-26.569a26.484,26.484,0,0,1,15.294,4.6V42.569H74.274v69.173H61.387v-3.415a27.732,27.732,0,0,1-15.294,4.612" transform="translate(40.719 91.534)"/><path class="c" d="M27.23,40.707l45.4-25.725,50.7,86.906H75.715v12.771H62.834V101.888Z" transform="translate(58.551 32.214)"/><path class="c" d="M75.685,74.544A14.984,14.984,0,0,0,90.662,89.2a14.812,14.812,0,0,0,14.756-14.655A14.964,14.964,0,0,0,90.662,59.725,15.135,15.135,0,0,0,75.685,74.544m14.438,26.771A27.046,27.046,0,0,1,63.138,74.544,26.768,26.768,0,0,1,90.123,47.975a26.052,26.052,0,0,1,15.294,4.6v-4.1h12.9v51.639h-12.9V96.7a26.893,26.893,0,0,1-15.294,4.612" transform="translate(135.763 103.158)"/><path class="c" d="M56.813,86.169a14.937,14.937,0,0,0,14.794,14.655c8.247,0,15.112-6.638,15.112-14.655a14.953,14.953,0,0,0-29.905,0m29.905-43.6H99.436v69.173H86.718v-3.412a27.462,27.462,0,0,1-15.483,4.609A27.043,27.043,0,0,1,44.256,86.169,27.3,27.3,0,0,1,86.718,64.2Z" transform="translate(95.162 91.534)"/></g></g></g></g></svg>