<?xml version="1.0" encoding="UTF-8"?>
<!DOCTYPE svg PUBLIC "-//W3C//DTD SVG 1.1//EN" "http://www.w3.org/Graphics/SVG/1.1/DTD/svg11.dtd">
<!-- Creator: CorelDRAW 2020 (64-Bit) -->
<svg xmlns="http://www.w3.org/2000/svg" xml:space="preserve" width="67.1653mm" height="10.425mm" version="1.1" style="shape-rendering:geometricPrecision; text-rendering:geometricPrecision; image-rendering:optimizeQuality; fill-rule:evenodd; clip-rule:evenodd"
viewBox="0 0 6732.88 1045.04"
 xmlns:xlink="http://www.w3.org/1999/xlink"
 xmlns:xodm="http://www.corel.com/coreldraw/odm/2003">
 <defs>
  <style type="text/css">
   <![CDATA[
    .fil0 {fill:black;fill-rule:nonzero}
   ]]>
  </style>
 </defs>
 <g id="Layer_x0020_1">
  <metadata id="CorelCorpID_0Corel-Layer"/>
  <polygon class="fil0" points="2304.82,822.21 2621.49,822.21 2621.49,186.54 2304.82,186.54 "/>
  <polygon class="fil0" points="5863.89,544.35 5629.25,544.35 5629.25,186.55 5312.42,186.55 5312.42,822.22 5629.25,822.22 5629.25,822.05 5863.89,822.05 "/>
  <path class="fil0" d="M1735.84 685.85c0,-29.49 27.84,-53.32 62.02,-53.32 34.26,0 62.11,23.83 62.11,53.32l0 136.3 327.69 0 -391.32 -636.29 -397.83 636.29 337.33 0 0 -136.3z"/>
  <path class="fil0" d="M4738.86 685.85c0,-29.49 27.87,-53.32 62.03,-53.32 34.44,0 62.13,23.83 62.13,53.32l0 136.3 327.79 0 -391.33 -636.29 -397.74 636.29 337.12 0 0 -136.3z"/>
  <path class="fil0" d="M4246.03 822.15l397.81 -636.27 -367.85 0 0 136.12c0,29.57 -27.83,53.42 -62.13,53.42 -34.23,0 -61.99,-23.85 -61.99,-53.42l0 -136.12 -154.79 0 0 136.12c0,29.57 -27.84,53.42 -62.1,53.42 -34.26,0 -62.03,-23.85 -62.03,-53.42l0 -136.12 -368.99 0 391.3 636.27 185.87 -241.03 164.9 241.03z"/>
  <path class="fil0" d="M3459.97 364.95c0,-159.34 -230.04,-179.08 -230.04,-179.08l-464.41 0 0 152.95 331.87 0c16.86,0 30.44,12.13 30.44,27.22 0,14.99 -13.58,27.1 -30.44,27.1l-331.87 0 0 429.02 238.82 0 0 -137.15c0,-29.59 27.76,-53.44 62.03,-53.44 34.26,0 62.02,23.85 62.02,53.44l0 137.15 330.55 0 -230.08 -292.3c0,0 231.1,-10.31 231.1,-164.9z"/>
  <path class="fil0" d="M6732.88 822.15l-223.68 -322.65 215.86 -313.61 -353.46 0 0 138.43c0,29.41 -27.76,53.36 -62.1,53.36 -34.23,0 -62.06,-23.95 -62.06,-53.36l0 -138.43 -230.22 0 0 636.27 230.22 0 0 -136.96c0,-29.45 27.83,-53.45 62.06,-53.45 34.34,0 62.1,24 62.1,53.45l0 136.96 361.28 0z"/>
  <path class="fil0" d="M6691.75 636.26c19.06,0 34.23,15.54 34.23,34.93 0,19.63 -15.18,34.89 -34.44,34.89 -18.96,0 -34.55,-15.27 -34.55,-34.89 0,-19.4 15.6,-34.93 34.55,-34.93l0.21 0zm-0.21 5.4c-15.25,0 -27.84,13.19 -27.84,29.53 0,16.48 12.59,29.53 28.05,29.53 15.46,0.14 27.83,-13.05 27.83,-29.38 0,-16.49 -12.37,-29.68 -27.83,-29.68l-0.21 0zm-6.44 49.81l-6.27 0 0 -38.91c3.26,-0.44 6.41,-0.95 11.11,-0.95 5.83,0 9.72,1.23 11.99,2.88 2.3,1.81 3.64,4.39 3.64,8.2 0,5.04 -3.43,8.08 -7.6,9.38l0 0.34c3.43,0.6 5.69,3.62 6.47,9.45 0.96,6.03 1.87,8.33 2.48,9.61l-6.47 0c-0.88,-1.28 -1.94,-4.85 -2.59,-9.99 -0.99,-4.88 -3.54,-6.81 -8.41,-6.81l-4.35 0 0 16.8zm0 -21.55l4.45 0c5.16,0 9.44,-1.91 9.44,-6.67 0,-3.46 -2.51,-6.9 -9.44,-6.9 -2.01,0 -3.32,0.22 -4.45,0.41l0 13.15z"/>
  <path class="fil0" d="M1045.17 522.51c0,-288.54 -233.96,-522.51 -522.52,-522.51 -288.55,0 -522.65,233.97 -522.65,522.51 0,288.53 234.1,522.53 522.65,522.53 288.56,0 522.52,-234 522.52,-522.53zm-128.04 230.06l-327.78 0 0 -136.19c0,-29.45 -27.84,-53.53 -62,-53.53 -34.28,0 -62.12,24.08 -62.12,53.53l0 136.19 -337.12 0 397.8 -636.17 391.22 636.17z"/>
 </g>
</svg>
