<svg xmlns="http://www.w3.org/2000/svg" xmlns:xlink="http://www.w3.org/1999/xlink" width="355" height="355" viewBox="0 0 355 355"><defs><style>.a{fill:none;}.b{clip-path:url(#a);}.c{fill:#040504;}</style><clipPath id="a"><rect class="a" width="316" height="105.162"/></clipPath></defs><g transform="translate(-78 -531)"><g transform="translate(2)"><rect class="a" width="355" height="355" transform="translate(76 531)"/></g><g transform="translate(97 656.322)"><g class="b"><path class="c" d="M32.684,74.582c-6,0-8.882-4.614-7.381-9.956C28.411,53.573,48.392,37.181,62,37.181c9.939,0,9.182,8.882,3.362,16.461L62.142,57.2C50.6,68.53,39.906,74.582,32.684,74.582M81.345,0C63.971.006,44.832,10.641,32.82,20.7l.948,1.377C52.415,9.006,78.3.5,85.434,13.256,89.2,19.986,82.8,33.572,73.8,44.312c2.156-4.746.737-13.849-11.824-13.849C41.1,30.463,0,58.123,0,86.421c0,11.341,7.861,18.741,20.815,18.741,34.676,0,81.715-56.845,81.718-85.4C102.525,9.682,96.725,0,81.345,0" transform="translate(0 0.001)"/><path class="c" d="M653.9,56.98a24.519,24.519,0,0,0-14.735,4.7A20.365,20.365,0,0,0,631.3,73.64c-2.982,11.136,5.762,16.505,12.8,20.313,5.041,2.734,9.4,5.09,8.461,8.585-.671,2.5-1.764,4.693-7.97,4.693H625.653l-3.436,12.84h20.962c5.62,0,10.805-1.169,14.987-4.375s6.551-7.71,8.019-13.185c1.4-5.212.449-10.185-2.9-13.9-2.791-3.113-6.817-5.278-10.361-7.192-4.538-2.449-8.815-4.755-8.066-7.546a5.66,5.66,0,0,1,5.8-4.05h18.418l3.438-12.841Z" transform="translate(-356.514 -32.648)"/><path class="c" d="M396.516,56.98a24.516,24.516,0,0,0-14.738,4.7A20.446,20.446,0,0,0,373.9,73.64c-2.978,11.136,5.774,16.505,12.805,20.313,5.047,2.734,9.4,5.09,8.466,8.585-.675,2.5-1.764,4.693-7.975,4.693H368.262l-3.44,12.84h20.965c5.623,0,10.808-1.169,14.989-4.375s6.552-7.71,8.018-13.185c1.4-5.212.449-10.185-2.9-13.9-2.791-3.113-6.815-5.278-10.371-7.192-4.529-2.449-8.81-4.755-8.056-7.546a5.653,5.653,0,0,1,5.8-4.05h18.411l3.445-12.841Z" transform="translate(-209.033 -32.648)"/><path class="c" d="M483.952,56.98l-16.44,63.091H481.4L497.832,56.98Z" transform="translate(-267.872 -32.648)"/><path class="c" d="M567.956,56.98c-24.449.091-37.243,16.375-41.308,31.544-4.818,17.99,4.758,31.547,22.274,31.547h11.743l3.433-12.84H552.364c-6.555,0-15.571-5.158-11.937-18.706,2.884-10.769,13.382-18.7,24.908-18.7h7.452l3.441-12.841Z" transform="translate(-301.043 -32.648)"/><path class="c" d="M266.387,107.231a5.958,5.958,0,0,1-4.75-1.99,5.836,5.836,0,0,1-.9-5.235c1.15-4.284,5.766-7.637,10.507-7.637H282.4l-3.982,14.863Zm32.079-44.571a16.394,16.394,0,0,0-12.057-5.679H266.123l-3.438,12.841h19.124l1.828.193a4.267,4.267,0,0,1,2.725,1.511c.789,1.086.9,2.711.338,4.829l-.907,3.379H273.741c-10.37,0-24.832,7.438-28.05,19.462a16.313,16.313,0,0,0,2.917,15c3.084,3.788,8.912,5.875,15.22,5.875h11.159l-.008,0h14.185l6.656-24.848,4.9-18.263c1.919-7.18-.161-11.742-2.255-14.3" transform="translate(-140.391 -32.648)"/></g></g></g></svg>