<svg xmlns="http://www.w3.org/2000/svg" xmlns:xlink="http://www.w3.org/1999/xlink" width="356" height="355" viewBox="0 0 356 355"><defs><style>.a{fill:none;}.b{fill:#1a1818;}.c{clip-path:url(#a);}.d{fill:#fff;}</style><clipPath id="a"><rect class="a" width="287.994" height="214.206"/></clipPath></defs><g transform="translate(-94 -980)"><g transform="translate(1)"><rect class="a" width="356" height="355" transform="translate(93 980)"/></g><g transform="translate(128 1050.545)"><rect class="b" width="288" height="214.206" transform="translate(0 0)"/><g transform="translate(0 0)"><g class="c"><path class="d" d="M61.043,100.242c4.125-3.441,4.833-7.7,4.833-11.518V72.666H43.454V94.454a5.64,5.64,0,0,1-5.638,5.638,5.462,5.462,0,0,1-5.426-5.638V32.725a5.462,5.462,0,0,1,5.426-5.638,5.64,5.64,0,0,1,5.638,5.638V54.646H65.847V31.908c0-12.566-8.21-22.91-28.215-22.933-20.546,0-28.307,10.391-28.307,22.956V96.376c0,12.456,9.884,21.886,22.536,21.88h6.944Z" transform="translate(44.326 42.662)"/><path class="d" d="M46.458,101.033V30.208H30.987V9.34h56V30.208H71.434v86.187H64.8Z" transform="translate(147.294 44.398)"/><path class="d" d="M69.493,9.362H38.246L20.054,91.021,53.942,63.669,89.274,93.276ZM47.9,58.433l6.041-30.861,6.007,30.861Z" transform="translate(95.326 44.502)"/><path class="d" d="M127.156,65.716,72.625,20.034,16.12,65.716Z" transform="translate(76.626 95.228)"/><path class="d" d="M42.249,14.34a4.057,4.057,0,1,1,8.112,0,4.058,4.058,0,1,1-8.112,0m4.068,5.011a5,5,0,1,0-5.08-5.011,4.994,4.994,0,0,0,5.08,5.011m-1.059-4.614h1.007l1.519,2.491h.978L47.122,14.7a1.509,1.509,0,0,0,1.5-1.588c0-1.145-.673-1.64-2.037-1.64h-2.2v5.759h.875Zm0-.742V12.206h1.191c.61,0,1.254.138,1.254.852,0,.886-.656.938-1.4.938Z" transform="translate(196.013 44.454)"/></g></g></g></g></svg>