<?xml version="1.0" encoding="utf-8"?>
<!-- Generator: Adobe Illustrator 26.1.0, SVG Export Plug-In . SVG Version: 6.00 Build 0)  -->
<svg version="1.1" id="Layer_1" xmlns="http://www.w3.org/2000/svg" xmlns:xlink="http://www.w3.org/1999/xlink" x="0px" y="0px"
	 viewBox="0 0 595.28 333.9" style="enable-background:new 0 0 595.28 333.9;" xml:space="preserve">
<style type="text/css">
	.st0{fill-rule:evenodd;clip-rule:evenodd;fill:#FFFFFF;}
	.st1{fill:#FFFFFF;}
</style>
<g>
	<g>
		<g>
			<rect x="98.94" y="79.76" width="403.02" height="184.65"/>
			<path class="st0" d="M296.26,203.13v-62.15h0.7h39.63c1.87,0,3.83-0.09,5.74,0.05c4.06,0.27,7.91,1.16,11.36,3.43
				c3.75,2.39,5.9,5.87,6.41,10.19c0.23,2.79,0.23,5.59,0.23,8.45v22.7c0,2.8-0.61,5.46-1.73,8.04c-2.25,5.15-6.41,7.95-11.93,8.95
				c-2.51,0.4-5.04,0.35-7.56,0.35h-42.15L296.26,203.13L296.26,203.13z M312.56,156.75v31.04h0.56h26.23c2.9,0,5.1-2.67,5.1-6.45
				v-17.95c0-3.1-1.7-5.79-3.89-6.41c-0.6-0.18-1.26-0.24-1.82-0.24h-25.46h-0.72V156.75z"/>
			<path class="st1" d="M363.9,181.08c-0.09,3.97,0.23,7.77,1.78,11.47c2.58,6.46,7.49,10.03,14.68,10.62
				c2.01,0.14,3.98,0.05,5.99,0.05c13.52,0.05,27.07,0,40.58,0h0.8v-15.54h-0.75h-19.31c-8.27,0-16.41,0-24.68-0.1
				c-1.64,0-2.48-0.54-2.67-2.13c-0.1-1.39-0.1-2.79-0.05-4.19c0.09-1.17,0.98-1.8,2.2-1.9c0.33-0.04,0.65-0.04,0.93-0.04
				c14.5,0.04,28.95,0.04,43.39,0.04h0.75v-14.19h-0.84h-43.9c-1.55,0-2.3-0.44-2.44-1.98c-0.14-1.45-0.14-2.89-0.09-4.38
				c0.14-1.49,0.94-2.03,2.48-2.03h23.19c6.13,0.04,12.31,0.04,18.47,0.04h3.32v-15.76h-0.8c-14.26-0.08-28.52-0.08-42.78-0.08
				c-1.87,0-3.65,0.08-5.51,0.31c-4.21,0.58-7.86,2.39-10.48,5.83c-2.75,3.52-4.19,7.76-4.3,12.09L363.9,181.08z"/>
			<path class="st0" d="M292.08,171.97c0,4.78,0.07,9.48-0.02,14.26c-0.1,5.42-2.09,9.98-6.68,13.27c-2.62,1.85-5.62,2.9-8.79,3.21
				c-2.73,0.32-5.45,0.36-8.25,0.41c-7.61,0.05-15.32,0-22.96-0.09c-3.14,0-6.19-0.54-8.93-2.08c-4.05-2.25-6.36-5.68-7.46-9.93
				c-0.44-1.59-0.7-3.26-0.73-4.88c-0.15-7.32-0.29-14.54-0.29-21.8c0-2.94,0.18-6.01,0.56-8.9c0.64-4.92,2.84-9.08,7.2-11.86
				c2.85-1.77,6.02-2.58,9.33-2.58c8.41-0.08,16.79,0,25.15-0.08c2.34,0,4.72,0.08,7.03,0.54c2.6,0.45,5.14,1.27,7.47,2.62
				c4.04,2.39,6.41,5.87,7.08,10.38c0.24,2.03,0.24,4.14,0.24,6.14c0.02,3.84,0,7.58,0,11.38L292.08,171.97L292.08,171.97z
				 M260.1,187.79h10.94c2.8,0,4.91-2.66,4.98-6.42c0.03-6.06,0.07-12.13,0.09-18.2c0-0.35-0.09-0.73-0.12-1.14
				c-0.49-2.92-2.05-5.41-5.04-5.36c-4.6,0.07-9.24,0.07-13.85,0.07c-2.65,0-5.32-0.07-7.99,0c-1.93,0-3.37,1.09-4.28,3.41
				c-0.43,1.02-0.66,2.17-0.61,3.39v16.97c0,0.55,0,1.09,0.07,1.69c0.4,2.98,2.02,5.58,4.85,5.58h10.96V187.79z"/>
			<path class="st1" d="M160.52,156.75h63.36v-15.79h-43.74C180.14,140.96,164.36,141.66,160.52,156.75"/>
			<path class="st1" d="M160.27,165.05h18.06l0.07,19.07c0,0,0.22,3.57,3.57,3.59l41.92,0.03v15.38H182.1c0,0-19.46,0.68-21.82-16
				v-22.07H160.27z"/>
		</g>
	</g>
</g>
</svg>