<svg xmlns="http://www.w3.org/2000/svg" xmlns:xlink="http://www.w3.org/1999/xlink" width="355" height="355" viewBox="0 0 355 355"><defs><style>.a{fill:none;}.b{fill:#1a1818;}.c{clip-path:url(#a);}</style><clipPath id="a"><rect class="a" width="321.891" height="217.178"/></clipPath></defs><g transform="translate(-1008 -32)"><g transform="translate(1)"><rect class="a" width="355" height="355" transform="translate(1007 32)"/></g><g transform="translate(1025.055 100.832)"><path class="b" d="M208.2,173.047l32.088-10.47,19.8,27.41V156.106l32.166-10.474-32.166-10.469V101.276l-19.8,27.415-32.127-10.47,19.9,27.41Z" transform="translate(-139.152 -67.702)"/><path class="b" d="M366.453,0l70.68,77.979-70.68,77.975h60.678l70.68-77.975L427.131,0Z" transform="translate(-244.972 -0.001)"/><g class="c"><path class="b" d="M20.054,548.638a9.685,9.685,0,0,1,7.392,3.638l.675.83,8.621-5.94-.776-.973a20.228,20.228,0,0,0-15.912-7.507C9,538.686,0,547.31,0,557.909s9,19.228,20.054,19.228a20.227,20.227,0,0,0,15.827-7.406l.792-.973-8.617-5.935-.675.81a9.592,9.592,0,0,1-7.326,3.552,9.275,9.275,0,1,1,0-18.547" transform="translate(0 -360.109)"/><path class="b" d="M288.574,541.818v20.46l-15.644-20.46h-9.893V578.03h9.634V557.757l14.524,20.273h11.022V541.818Z" transform="translate(-175.838 -362.203)"/><path class="b" d="M411.2,567.605v-.062c0,.355-.4.379-.566.379a.536.536,0,0,1-.57-.384l-8.02-25.718H390.962l11.786,36.212h15.773l11.786-36.212H419.227Z" transform="translate(-261.356 -362.204)"/><path class="b" d="M666.419,555.335h-8.509v-3.864h8.509a1.941,1.941,0,1,1,0,3.864m12.259-2.828a11.819,11.819,0,0,0-11.949-10.7H648.276v36.212h9.633V564.99h4.352a1.206,1.206,0,0,1,1.086.422l6.209,12.612h10.863l-7.473-14.779a11.347,11.347,0,0,0,5.732-10.738" transform="translate(-433.37 -362.199)"/><path class="b" d="M883.773,541.818V578.03H912.69v-9.655H893.411v-4.348h17.351v-8.686H893.411v-3.868H912.69v-9.655Z" transform="translate(-590.799 -362.203)"/><path class="b" d="M779.374,553.306c-5.17-1.175-6.632-1.922-6.632-3.629v-.106c0-1.337,1.02-2.4,3.521-2.4,3.3,0,6,1.055,9.661,3.222l5.794-6.85c-4.049-3.255-8.9-4.967-15.245-4.967-8.947,0-14.334,5.019-14.334,11.956v.105c0,7.69,6.31,9.928,14.248,11.745,5.062,1.174,6.473,2.027,6.473,3.576v.105c0,1.6-1.8,2.56-4.573,2.56a19.614,19.614,0,0,1-12.251-4.482l-5.825,6.884c4.576,4.108,11.219,6.188,17.82,6.188,9.059,0,15.431-4.535,15.431-12.166v-.105c0-6.989-5.515-9.765-14.09-11.635" transform="translate(-508.198 -360.035)"/><path class="b" d="M142.036,567.1a9.173,9.173,0,1,1,9.156-9.175,9.169,9.169,0,0,1-9.156,9.175m0-28.4a19.228,19.228,0,1,0,19.55,19.223,19.41,19.41,0,0,0-19.55-19.223" transform="translate(-81.881 -360.123)"/><path class="b" d="M530.518,541.818V578.03h28.92v-9.655H540.155v-4.348H557.5v-8.686H540.155v-3.868h19.283v-9.655Z" transform="translate(-354.649 -362.203)"/></g></g></g></svg>