<svg id="Layer_1" data-name="Layer 1" xmlns="http://www.w3.org/2000/svg" viewBox="0 0 702.27 137.58"><defs><style>.cls-1{fill:#1a1a1a;}</style></defs><title>Crocs Logo</title><path class="cls-1" d="M154.79,110.52a30.42,30.42,0,0,1,24,12.14c.11.2.24.37.36.55s.46.56.63.86v0a18.62,18.62,0,1,0,28.28-24.19C195.25,84.06,180,75,154.79,75c-40,0-70.12,27.69-70.12,66.53,0,39.41,30.1,67.12,70.12,67.12,25.58,0,40.63-9,53.28-23.18l0,0a18.22,18.22,0,1,0-27.45-24c-6,6-12.92,11.95-25.81,11.95-18.35,0-28.6-13.24-28.6-31.9,0-18.06,10.25-31,28.6-31m568.65,15.34c-17.47-3.91-25.59-4.82-25.59-12,0-5.11,4.52-7.52,13.84-7.52,9.65,0,18.66,4.51,24.68,9.63l0,0a15.72,15.72,0,0,0,10.82,4.32A15.84,15.84,0,0,0,757.8,92.54C747.28,81.83,732.31,75,711.4,75c-27.39,0-49.66,11.76-49.66,40.64,0,26.79,19.56,36.41,37,41,20.76,5.4,28.89,5.4,28.89,12.33,0,5.41-4.2,7.82-17.44,7.82a44.89,44.89,0,0,1-28.1-10.23l.38.36s0,0-.05,0a16.12,16.12,0,0,0-25.12,19.5c.11.21.24.42.35.63a17.09,17.09,0,0,0,.94,1.45c.25.34.54.65.82,1s.55.73.9,1.06.56.41.83.65c11.16,10,27.28,17.56,51.76,17.56,40.32,0,52.65-19.27,52.65-42.74C765.56,138.82,742.08,130.08,723.44,125.86ZM418.9,75c-39.74,0-70.73,28-70.73,67.13,0,38.81,31,66.52,70.73,66.52s70.42-27.71,70.42-66.52C489.32,103,458.62,75,418.9,75Zm0,99.33c-18.06,0-29.2-13.25-29.2-32.2,0-19.25,11.14-32.21,29.2-32.21s28.89,13,28.89,32.21C447.79,161.07,437,174.32,418.9,174.32ZM328,83.26c-6.24-3.32-10.71-4-20-3.21-16.77,1.41-29.78,13.17-32.14,16.13V97c0-.26-.05-.52-.08-.78h0v-.11a20.79,20.79,0,0,0-41.51,1.08V188a20.81,20.81,0,0,0,41.6-.35V163c0-33.7,19.47-42.19,30.37-42.42,2.88-.06,10.29,2.77,16.09,1.72a20.8,20.8,0,0,0,5.66-39Zm253,27.26a30.36,30.36,0,0,1,24,12.14c.12.2.27.37.41.57s.42.55.6.84l0,0a18.61,18.61,0,1,0,28.24-24.22C621.45,84,606.2,75,581,75c-40,0-70.11,27.69-70.11,66.53,0,39.41,30.08,67.12,70.11,67.12,25.59,0,40.64-9,53.27-23.18l0,0a18.22,18.22,0,1,0-27.45-24c-6,6-12.92,11.95-25.8,11.95-18.35,0-28.6-13.24-28.6-31.9C552.41,123.46,562.66,110.52,581,110.52Z" transform="translate(-84.67 -71.05)"/><polygon points="679.69 12.93 679.69 2.19 675.48 2.19 675.48 0 686.75 0 686.75 2.19 682.57 2.19 682.57 12.93 679.69 12.93"/><polygon points="688.58 12.93 688.58 0 692.89 0 695.43 8.82 697.95 0 702.27 0 702.27 12.93 699.61 12.93 699.6 2.75 696.8 12.93 694.03 12.93 691.25 2.75 691.24 12.93 688.58 12.93"/></svg>