<svg xmlns="http://www.w3.org/2000/svg" xmlns:xlink="http://www.w3.org/1999/xlink" width="356" height="355" viewBox="0 0 356 355"><defs><style>.a{fill:none;}.b{clip-path:url(#a);}.c{fill:#040504;}</style><clipPath id="a"><rect class="a" width="354" height="72.448"/></clipPath></defs><g transform="translate(7124 18401)"><g transform="translate(-7123 -18260)"><g class="b"><path class="c" d="M122.2,14.4c-1.012-.032-3.1,0-4.367.05a2.945,2.945,0,0,0-2.673,1.973c-2.127,7.224-9.737,33.249-10.054,34.214-.372,1.128-1.226,1.032-1.42.079s-5.955-33.33-6.16-34.233c-.251-1.1-.577-1.921-2.558-1.98-2.366-.075-5.955-.152-7.127-.17-1.815-.021-2.932.374-2.5,2,.373,1.412,9.016,35.939,11.272,44.969a2.758,2.758,0,0,0,3.167,1.827c1.2-.154,2.495-.322,3.166-.449a9.291,9.291,0,0,1,4.012.179c.515.121,1.134.254,1.7.367.951.193,2.144-.886,2.5-2.188.306-1.119,9.961-34.675,12.541-43.659.489-1.676-.185-2.933-1.5-2.978M84.873,61.112c-1.308-1.144-3.146-2.624-3.937-3.353a1.5,1.5,0,0,1-.541-1.339c.492-5.243,2.7-28.87,2.755-29.5a6.694,6.694,0,0,0-2.107-5.7c-1.772-1.886-3.752-4.01-4.08-4.337a9.531,9.531,0,0,0-6.829-2.645c-3.556-.013-9.537-.253-10.092-.262a9.8,9.8,0,0,0-6.166,1.662c-1.879,1.172-4.129,2.6-4.518,2.871a4.866,4.866,0,0,0-2.3,3.281c-.371,2.19-.975,5.7-1.053,6.217-.239,1.582.409,2.253,1.727,2.182.443-.027,4.229-.276,6.389-.4,1.318-.074,1.938-.44,2.47-2.029.127-.389,1.269-3.66,1.893-5.439a2.312,2.312,0,0,1,2.106-1.777c1.474-.262,3.425-.512,3.808-.561a3.711,3.711,0,0,1,2.808.6c.4.257,2.8,1.932,3.105,2.155a3.012,3.012,0,0,1,1.217,2.331c0,.481.108,7.445.108,7.445s-.027,1.176-1.426.723c-1.985-.646-7.065-2.379-9.318-1.937a32.717,32.717,0,0,0-4.8,1.584c-1.558.674-3.87,1.708-6.314,2.913a14.9,14.9,0,0,0-3.866,2.461c-1.6,1.456-1.666,3.4-1.777,5.212-.182,2.932-.62,9.311-.605,9.78a6.788,6.788,0,0,0,2.726,5.556c2.658,2.016,6.22,4.666,6.79,5.1a7.514,7.514,0,0,0,6.745.6c3.448-1.75,10.738-5.51,10.9-5.6.181-.1.447-.081.561.278.076.237.126.407.18.607a2.491,2.491,0,0,0,.772,1.123c1.624,1.36,5,4.254,5.223,4.439a2.753,2.753,0,0,0,3.348.417c2.589-1.4,3.97-2.272,4.184-2.386,1.249-.7.872-1.441-.082-2.274m-14.579-8.55c-.592.3-4.929,2.527-7.31,3.752a3.7,3.7,0,0,1-3.107.054c-.615-.305-2.626-1.364-3.756-1.908a3.337,3.337,0,0,1-1.689-2.7c-.1-.687-.319-4.533-.457-6.827A3.614,3.614,0,0,1,55.04,41.9c.49-.39,2.374-1.387,3.348-1.941a29.986,29.986,0,0,1,3.747-1.682c1.328-.513,2.546-.382,5.171.322a23.548,23.548,0,0,1,3.215,1.007,2.448,2.448,0,0,1,.871,2.1c0,.459.021,6.482.027,8.727a2.2,2.2,0,0,1-1.125,2.131M164.85,61.1c-1.308-1.144-3.146-2.627-3.933-3.349a1.5,1.5,0,0,1-.544-1.343c.494-5.241,2.7-28.873,2.758-29.5a6.7,6.7,0,0,0-2.11-5.7c-1.769-1.879-3.75-4.005-4.076-4.332a9.535,9.535,0,0,0-6.83-2.646c-3.557-.01-9.543-.251-10.094-.262a9.784,9.784,0,0,0-6.168,1.661c-1.874,1.179-4.124,2.6-4.515,2.873a4.857,4.857,0,0,0-2.3,3.277c-.372,2.19-.977,5.7-1.056,6.222-.239,1.58.409,2.251,1.724,2.178.444-.024,4.228-.271,6.4-.4,1.317-.076,1.931-.439,2.466-2.032.13-.383,1.272-3.657,1.893-5.437a2.313,2.313,0,0,1,2.11-1.777c1.471-.26,3.421-.511,3.8-.56a3.71,3.71,0,0,1,2.81.6c.4.253,2.8,1.929,3.1,2.151a3,3,0,0,1,1.215,2.334c.005.475.112,7.443.112,7.443s-.029,1.177-1.426.724c-1.986-.643-7.068-2.379-9.314-1.934a32.546,32.546,0,0,0-4.8,1.58c-1.555.673-3.87,1.708-6.316,2.913a14.683,14.683,0,0,0-3.862,2.463c-1.6,1.451-1.668,3.4-1.779,5.212-.182,2.93-.62,9.306-.6,9.784a6.788,6.788,0,0,0,2.726,5.55c2.659,2.012,6.22,4.669,6.787,5.1a7.54,7.54,0,0,0,6.747.6c3.446-1.752,10.742-5.515,10.893-5.6.185-.1.451-.079.566.279.073.236.122.4.176.606a2.505,2.505,0,0,0,.777,1.121c1.628,1.36,5,4.253,5.222,4.442a2.746,2.746,0,0,0,3.342.415c2.592-1.4,3.975-2.27,4.192-2.386,1.241-.7.869-1.441-.086-2.274m-14.579-8.55c-.59.309-4.928,2.535-7.311,3.75a3.675,3.675,0,0,1-3.1.06c-.62-.307-2.624-1.368-3.757-1.912a3.326,3.326,0,0,1-1.686-2.7c-.1-.692-.319-4.535-.457-6.829a3.579,3.579,0,0,1,1.064-3.025c.484-.392,2.371-1.391,3.346-1.945a29.7,29.7,0,0,1,3.748-1.684c1.323-.517,2.546-.38,5.166.324a23.907,23.907,0,0,1,3.224,1,2.434,2.434,0,0,1,.866,2.1c0,.461.018,6.484.023,8.727a2.186,2.186,0,0,1-1.123,2.13M34.836,19.63c-1.482-2.008-2.205-2.091-5.1-2.084-.51,0-6.325.073-8.52.147A7.887,7.887,0,0,0,16.123,19.4a43.447,43.447,0,0,0-3.02,3.377c-.165.179-.492.767-.848.7-.4-.083-.41-.469-.352-1.148.264-3.1,1.075-15.844,1.31-19.881C13.339,1.069,12.745,0,11.194,0c-.607,0-6.568.2-9.052.2A2.061,2.061,0,0,0,0,2.462c.007.632.692,51.414.805,59.5A.975.975,0,0,0,1.941,63c.567-.006,4.708-.046,6.582-.066a.925.925,0,0,0,.961-.839c0-.339,1.25-20.371,1.577-27.189.092-2.387.929-5.334,1.96-6.176s3.243-2.555,4.2-3.243a3.617,3.617,0,0,1,2.454-.712c1.087-.005,2.919.044,3.844.068a2.909,2.909,0,0,1,2.263.86c.508.359,1.239.887,1.878,1.375a3.142,3.142,0,0,1,1.529,2.97c-.006.316.632,24.359.738,30.249,0,1.62.265,2.851,1.905,2.851.429,0,2.935.023,4.618.023,1.546,0,1.654-1.269,1.776-2.689.029-.395,1.248-24.3,1.8-30.446A7.04,7.04,0,0,0,38.549,24.5c-.3-.414-2.156-2.79-3.713-4.873M248.1,56.913c-2.514.133-3.687.212-4.354.278-1.391.139-2.2.4-2.544,2.861-.392,2.8-.2,4.454-2.807,5.577a14.214,14.214,0,0,1-4.687,1.416,11.91,11.91,0,0,1-4.98-.091c-2.918-.607-4.057-1.505-5.6-4.095a23.754,23.754,0,0,1-2.212-4.618,6.934,6.934,0,0,1-.386-2.1c.316-5.214,1.027-28.47,1.062-29.1.128-2.234.449-3.98-1.288-5.776-1.806-1.879-3.906-4.1-4.24-4.422-1.637-1.584-3.246-2.089-6.082-2.1-3.515-.011-10.425-.227-10.973-.242-2.4-.053-2.177-.114-4.389,1.066-2.138,1.137-5.051,3.345-5.879,3.812a3.755,3.755,0,0,0-2,3.149c-.263,1.9-.877,4.049-1.11,6.074-.18,1.572.477,2.236,1.777,2.165.438-.025,4.169-.274,6.3-.4a2.317,2.317,0,0,0,2.516-1.967c.114-.38,1.235-3.3,1.8-5.063.41-1.233,1.089-2.092,2.176-2.239,1.771-.242,2.117-.381,3.238-.516,2.145-.259,2.539-.022,3.235.343.422.217,1.79,1.227,3.1,2.076a2.876,2.876,0,0,1,1.522,2.947c-.015.472.16,4.511.09,5.266s.507,2.76-.946,2.581c-1.78-.216-3.694-1.4-7.3-1.883a7.55,7.55,0,0,0-3.222.064c-1.712.56-4.7,1.721-5.05,1.87-2.82,1.2-3.4,1.537-7.028,3.378A6.081,6.081,0,0,0,184,42.475c-.342,2.938-.651,10.4-.677,10.87a6.9,6.9,0,0,0,2.965,6.161c2.688,2,5.694,4.28,6.428,4.8a7,7,0,0,0,7.059.562c3.342-1.74,10.038-5.089,10.187-5.178.179-.1.815-.567.939-.212.082.235.371.986.424,1.181a3.766,3.766,0,0,0,.9,1.136c1.725,1.74,3.118,3.26,4.48,4.68,3.187,3.322,3.631,3.6,7.5,4.51,4.188.99,4.472,1.055,5.277,1.2s1.465.644,7.477-.274,6.387-1.061,7.012-1.171,3.053-.316,4.046-4.338,1.54-6.266,1.681-7.111.917-2.5-1.595-2.377m-36.918-6.869c-.049,1.543-.082,2.517-1.249,3.044-.595.268-4.353,2.261-6.666,3.478a3.971,3.971,0,0,1-3.848.16c-1.351-.679-1.878-.841-3.535-1.819A3.439,3.439,0,0,1,194.049,52c-.1-1.572-.35-5.4-.42-6.814s.31-2.413,2.019-3.476c.776-.474,4.044-2.091,5.142-2.614a7.948,7.948,0,0,1,4.122-.571c.668.139,3.87,1.038,4.96,1.362a2.317,2.317,0,0,1,1.309,2.425c-.049,1.8.017,7,0,7.732m49.441-31.884a4.839,4.839,0,0,0-3.781-1.439c-3.005,0-7.153.223-8.667.313-2.3.136-3.33.709-4.4,1.954-1.125,1.31-2.734,3.031-3.018,3.287-1.527,1.38-1.683.816-1.622-.739.032-.911.267-3.551.358-4.694.158-2.019-1.115-2.521-2.766-2.535-1.98-.016-4.394-.033-5.424-.033-3.231,0-3.853-.062-3.853,3.834,0,2.868.138,32.8.152,41.988a2.434,2.434,0,0,0,2.268,2.711c1.177,0,4.056-.041,4.923-.041s1.862-1.072,1.983-2.776c.5-7.232,1.741-26.865,1.852-28.041a4.5,4.5,0,0,1,1.667-3.223c1.555-1.229,3.662-2.758,4.338-3.381a3.638,3.638,0,0,1,2.61-.889c1.657,0,2.753.044,3.822.093a4.556,4.556,0,0,1,2.313.62,15.721,15.721,0,0,1,2.442,2.353,2.585,2.585,0,0,1,1.02,2.312c0,6.5.5,28.545.5,30.1,0,1.856.683,2.793,1.671,2.834,1.386.056,3.28.044,3.939.044,1.143,0,1.813-.8,1.972-2.228.781-6.727,2.567-27.339,2.809-29.593.4-3.78-.27-4.577-2.093-6.844-1.967-2.447-3.644-4.492-5.019-5.986M312.709,61.11c-1.313-1.146-3.153-2.625-3.936-3.355a1.51,1.51,0,0,1-.551-1.337c.5-5.245,2.706-28.87,2.763-29.5a6.7,6.7,0,0,0-2.111-5.7c-1.767-1.882-3.747-4.007-4.072-4.335a9.523,9.523,0,0,0-6.832-2.641c-3.556-.016-9.542-.253-10.094-.267a9.786,9.786,0,0,0-6.165,1.665c-1.877,1.172-4.126,2.6-4.519,2.868a4.863,4.863,0,0,0-2.3,3.281c-.37,2.192-.977,5.7-1.054,6.221-.237,1.577.414,2.249,1.725,2.177.449-.025,4.23-.276,6.4-.4,1.314-.074,1.93-.44,2.461-2.028.133-.387,1.271-3.663,1.893-5.437a2.329,2.329,0,0,1,2.114-1.781c1.471-.261,3.414-.512,3.8-.557a3.7,3.7,0,0,1,2.811.6c.395.258,2.787,1.93,3.1,2.153a3.008,3.008,0,0,1,1.218,2.332c0,.481.1,7.443.1,7.443s-.025,1.174-1.42.723c-1.983-.645-7.068-2.382-9.316-1.934a32.485,32.485,0,0,0-4.8,1.584c-1.556.672-3.874,1.7-6.319,2.91a14.892,14.892,0,0,0-3.862,2.459c-1.6,1.455-1.668,3.409-1.784,5.216-.181,2.93-.618,9.308-.6,9.78a6.772,6.772,0,0,0,2.727,5.554c2.654,2.02,6.223,4.668,6.786,5.1a7.517,7.517,0,0,0,6.746.6c3.442-1.75,10.737-5.515,10.893-5.6.188-.106.448-.085.559.276.079.237.128.407.182.6a2.51,2.51,0,0,0,.778,1.128c1.622,1.356,5,4.248,5.223,4.437a2.747,2.747,0,0,0,3.342.42c2.591-1.4,3.976-2.274,4.186-2.39,1.247-.691.872-1.439-.078-2.271m-14.583-8.552c-.588.305-4.929,2.531-7.312,3.752a3.7,3.7,0,0,1-3.108.056c-.609-.3-2.622-1.362-3.753-1.912a3.339,3.339,0,0,1-1.688-2.7c-.1-.689-.321-4.531-.452-6.829a3.587,3.587,0,0,1,1.066-3.028c.484-.39,2.367-1.389,3.346-1.941a29.069,29.069,0,0,1,3.75-1.684c1.319-.517,2.538-.386,5.164.324a22.579,22.579,0,0,1,3.217,1.007,2.431,2.431,0,0,1,.87,2.091c0,.461.021,6.487.025,8.731a2.191,2.191,0,0,1-1.124,2.128M174.618,11.96a6.53,6.53,0,1,0,6.528,6.533,6.531,6.531,0,0,0-6.528-6.533m3.293,17.048c-2.182.024-5.458.062-6.655.062-1.853,0-2.626.513-2.606,2.548.019,1.682.059,23.285.076,30.65a2.24,2.24,0,0,0,2.254,2.486c1.381.039,1.731.021,3.46.073a2.316,2.316,0,0,0,2.657-2.384c.657-7.587,2.631-30.337,2.724-31.357a1.8,1.8,0,0,0-1.91-2.077M349.2,38.64c-1.006-1.507-1.324-1.436-6.068-2.691-2.671-.711-11.579-3.132-13.765-3.745-3.073-.869-3.411-1.353-3.69-3.751-.086-.78-.169-1.947-.28-3.447-.1-1.4.064-1.794,1.285-2.474.786-.436,3.493-2,4.636-2.611,1.416-.757,2.546-.436,4.256.248.878.347,3.662,1.521,4.713,1.956.973.407.96.716,2.123,3.017a1.47,1.47,0,0,0,2.16.583c.737-.319,4.209-2.164,4.931-2.563,1.374-.774,1.646-1.362,1.144-2.083-.7-1-.84-1.135-1.355-1.84-.566-.767-.991-1.252-2.053-2.55-1.215-1.478-1.065-1.341-3.6-1.865-1.783-.371-8.952-1.835-11.1-2.252a4.474,4.474,0,0,0-3.091.461c-1.23.528-6.158,2.737-7.469,3.348-3.07,1.446-3.6,1.469-3.984,2.195-.548,1.041-.325.538-1.725,3.3-1.642,3.264-2.09,3.884-1.765,5,.572,1.939,1.749,4.894,2.72,7.669,1,2.839,1.056,3.217,6.815,4.743,3.325.882,13.391,3.53,14.608,3.938,1.983.661,2.212.974,3.052,2.8.371.81.878,2.1,1.155,2.807a6.8,6.8,0,0,1,.834,3.829c-.317,1.835-2.2,2.35-3.227,2.921-1.226.683-3.934,2.037-5.391,2.7-1.9.855-2.146,1.1-4.726-.149-2.218-1.075-2.888-1.491-4.43-2.28a3.387,3.387,0,0,1-1.628-1.217c-.654-.729-1.675-1.771-2.47-2.739-1.144-1.4-2.069-1.032-3.367-.384-1.049.525-4.832,2.49-5.79,3.019a1.128,1.128,0,0,0-.325,1.91c1.066,1.072,3.5,3.312,4.35,4.074,1.659,1.5,2.954,2.662,4.433,3.062,2.938.791,7.926,2.1,11.293,2.957,4.06,1.04,3.1.779,6.6-.614,1.211-.48,7.873-3.177,9.455-3.966,1.9-.947,2.151-1.206,3.058-4.377.453-1.555,1.692-5.955,2.107-7.444a5.568,5.568,0,0,0-.346-4.819c-.527-.874-3.2-5.357-4.075-6.673" transform="translate(0 -0.001)"/></g></g><g transform="translate(-7217 -19806)"><rect class="a" width="356" height="355" transform="translate(93 1405)"/></g></g></svg>