<svg xmlns="http://www.w3.org/2000/svg" width="355" height="355" viewBox="0 0 355 355"><defs><style>.a{fill:none;}.b{fill:#1a1a18;}</style></defs><g transform="translate(-1488 -1405)"><rect class="a" width="355" height="355" transform="translate(1488 1405)"/><g transform="translate(1489 1535.442)"><g transform="translate(341.092 18.017)"><path class="b" d="M150.941,16.028a5.862,5.862,0,0,0-6,5.7,5.955,5.955,0,0,0,11.908,0A5.823,5.823,0,0,0,150.941,16.028Zm0,10.4a4.661,4.661,0,1,1,4.777-4.707A4.737,4.737,0,0,1,150.941,26.43Z" transform="translate(-144.94 -16.028)"/><path class="b" d="M151.788,18.816a1.62,1.62,0,0,0-.706-1.412,3.275,3.275,0,0,0-1.647-.306H146.54V23.57h.988V20.581h1.177l1.906,2.989h1.106l-2-2.989C150.894,20.557,151.788,20.063,151.788,18.816Zm-3.2.965h-1.059V17.828h1.718c.847,0,1.577.118,1.577.965C150.823,19.969,149.529,19.781,148.587,19.781Z" transform="translate(-142.775 -14.58)"/></g><path class="b" d="M110.313,16.178,80.331,74.564H62.446l11.7-22.686H60.351l-11.7,22.686H30.77L60.775,16.178H78.637L67.576,37.734H81.39L92.451,16.178Z" transform="translate(41.642 2.192)"/><path class="b" d="M103.605,16.178,73.6,74.564H55.55l30-58.386Z" transform="translate(75.178 2.192)"/><path class="b" d="M96.142,25.338,88.894,39.481H71.15L78.4,25.338Z" transform="translate(96.29 14.589)"/><path class="b" d="M135.915,16.178,128.69,30.227H116.712l-22.8,44.337H76.87l22.8-44.337H87.413l7.225-14.049Z" transform="translate(104.031 2.192)"/><path class="b" d="M132.039,29.639l-4.354,8.519h21.274l-6.707,13.014H120.978l-4.871,9.437h26.287l-7.154,13.955H91.42l30.005-58.386h43.819l-6.9,13.461Z" transform="translate(123.722 2.192)"/><path class="b" d="M65.023,48.069a32.5,32.5,0,1,1-.259-5.224H6.213c17.156,6.919,22.4,17.368,22.4,17.368h8.1a30.243,30.243,0,0,0-9.766-10.661c8.684,2.283,13.908,10.661,13.908,10.661h7.884c-2.848-7.319-12.52-12.143-12.52-12.143Z" transform="translate(0 0)"/><path class="b" d="M158.084,40.091c2.683-4.942,4-11.178-2.024-11.178-7.931,0-14.52,12.19-17.344,17.721-3.036,5.883-7.813,15.838.259,15.838,5.53,0,10.19-4.848,12.9-9.719l15.838,1.012c-8,13.485-22.286,22.121-35.724,22.121-17.532,0-20.192-12.661-11.673-29.252C129,29.76,144.246,15.828,162.625,15.828c14.9,0,18.85,8.849,12.567,23.392Z" transform="translate(156.487 1.719)"/></g></g></svg>