<svg xmlns="http://www.w3.org/2000/svg" width="355" height="355" viewBox="0 0 355 355"><defs><style>.a{fill:none;}.b{fill:#030504;fill-rule:evenodd;}</style></defs><g transform="translate(-76 -531)"><rect class="a" width="355" height="355" transform="translate(76 531)"/><g transform="translate(80.359 670.498)"><path class="b" d="M473.339,126.871c1.094,4.264,1.162,8.273,3.861,11.356,3.268,3.735,7.668,4.909,12.4,5.012,1.684.037,3.16.129,4.5,1.354.845.774,2.006,1.2,2.993,2.232a8,8,0,0,1-1.892.558,69.99,69.99,0,0,1-11.451-.191,18.577,18.577,0,0,1-15.287-11.747c-1.628.533-2.541,1.9-3.6,3.066a34.674,34.674,0,0,1-10.943,8.619c-4.229,1.967-8.436,2.184-12.643-.065-1.783-.953-2.344-1.482-3.98-3.987-1.182.7-2.384,1.4-3.57,2.126-4.7,2.87-8.354,2.627-12.665-.843a16.082,16.082,0,0,1-6.037-8.782l-2.331,3.151c-1.47,1.987-2.7,4.227-4.463,5.908-3.646,3.477-4.388,3.312-7.747-.318-2.018-2.183-2.828-5.034-3.385-7.915-.262-1.358-.443-2.731-.7-4.314a5.454,5.454,0,0,0-.914.731,93.747,93.747,0,0,1-10.267,12.119,36.013,36.013,0,0,1-4.008,3.129,7.706,7.706,0,0,1-2.115.968,4.115,4.115,0,0,1-5.3-1.93,11.889,11.889,0,0,1-1.751-5.837c-.155-2.81-.039-5.636-.039-8.391-1.862,1.038-2.349,4.008-5.018,4.812a41.737,41.737,0,0,1-.556-4.974,4.424,4.424,0,0,1,.995-2.287c2.353-3.282,4.773-6.515,7.167-9.767a3.413,3.413,0,0,1,3.964-1.116,2.6,2.6,0,0,1,1.8,3.015,28.455,28.455,0,0,1-.813,4.151c-.412,1.719-.859,3.431-1.357,5.126a17.475,17.475,0,0,0-.164,7.542c.118.819.315,1.626.544,2.777,1.217-.8,2.312-1.417,3.287-2.185a40.681,40.681,0,0,0,7.986-8.769c1.673-2.374,3.242-4.821,4.875-7.222a11.665,11.665,0,0,1,1.427-1.843c1.854-1.8,4.243-1.428,5.122.977a34.558,34.558,0,0,1,1.332,5.975c.361,2.086.534,4.2.874,6.294.177,1.087.535,2.145.85,3.367a9.178,9.178,0,0,0,2.785-3.184c1.635-2.313,3.249-4.64,4.884-6.952a10.8,10.8,0,0,1,.952-1.142c2.465-2.627,3.411-2.788,6.659-1.137.448,2.119.782,4.292,1.388,6.387a23.8,23.8,0,0,0,2.052,5.093c1.563,2.766,3.713,3.455,6.675,2.214a33.482,33.482,0,0,0,4.651-2.538c5.114-3.179,10.1-6.576,15.321-9.572a28.151,28.151,0,0,1,14.809-3.931,7.308,7.308,0,0,1,2.309.278C469.113,125.118,471.377,126.081,473.339,126.871Zm-9.158,2.3a23.455,23.455,0,0,0-4.268-.207,26.389,26.389,0,0,0-9.134,3.267,30.086,30.086,0,0,0-4.846,3.406,5.557,5.557,0,0,0-1.75,5.576,1.744,1.744,0,0,0,2.085,1.632,11.764,11.764,0,0,0,3.266-.724,40.747,40.747,0,0,0,11.728-8.277A11.108,11.108,0,0,0,464.181,129.171Z" transform="translate(-149.491 -95.948)"/><path class="b" d="M213.095,144.237a18.909,18.909,0,0,0,10.589-6.6c2.415-2.775,4.586-5.761,6.861-8.658.394-.5.749-1.033,1.152-1.527,1.505-1.846,2.757-2.129,4.671-.809a3.2,3.2,0,0,1,1.043,1.97c.377,2.225.594,4.477.875,6.718.113.894.231,1.789.421,3.259,1.292-1.491,2.278-2.55,3.174-3.679,2.641-3.328,5.234-6.694,7.871-10.024,1.179-1.488,1.936-1.648,3.646-.892a7.222,7.222,0,0,1,3.771,4.4c1.106,2.984,2.008,6.044,3.058,9.049,1.076,3.081,2.187,6.173,4.449,8.63,1.139,1.239,2.45,2.322,3.917,3.695-.19.736-.448,1.731-.78,3.016-1-.174-1.871-.273-2.716-.492a10.038,10.038,0,0,0-2.152-.477c-.854-.044-1.751-1.041-2.459-1.784-3.1-3.244-4.937-7.228-6.438-11.385-.69-1.913-1.308-3.853-2.072-6.114-.791.854-1.448,1.454-1.977,2.15-2.571,3.384-5.1,6.8-7.666,10.189a14.922,14.922,0,0,1-1.69,1.908,3.491,3.491,0,0,1-5.62-.726,18.5,18.5,0,0,1-2.263-6.363c-.12-.518-.262-1.03-.5-1.944-1.7,1.713-3.19,3.1-4.545,4.616a33.415,33.415,0,0,1-10.567,7.7,11.113,11.113,0,0,1-1.794.654c-3.3.939-5.683-.082-7.263-3.122-1.572-3.024-1.873-6.345-2.194-9.657-.048-.489-.075-.98-.145-1.466-.018-.119-.167-.219-.413-.52-1.641.978-3.318,1.973-4.99,2.975a102.033,102.033,0,0,1-16.089,8.168,51.986,51.986,0,0,1-5.5,1.551,4.685,4.685,0,0,1-1.483.059c-2.645-.2-3.821-1.487-3.758-4.128.068-2.857,1.645-4.929,3.675-6.682a38.15,38.15,0,0,1,8.8-5.5c4.289-2.019,8.326-4.61,12.934-5.9a61.043,61.043,0,0,1,6.228-1.2,2.649,2.649,0,0,1,2.327.732c.721.645,1.711.988,2.443,1.625a3.222,3.222,0,0,1,1.045,1.722c.506,2.991.891,6,1.313,9.007C212.555,140.262,212.808,142.138,213.095,144.237Zm-31.636-2.274c3.968.939,17.713-6.512,19.776-10.577C195.851,131.255,184.137,137.464,181.459,141.964Z" transform="translate(-90.025 -97.249)"/><path class="b" d="M92.069,137.132c.282,2.1,1,4.122-.039,6.033a15.226,15.226,0,0,1-2.173.656,2.148,2.148,0,0,1-1.316-.3,10.248,10.248,0,0,1-3.711-4.005c-.338-.614-.669-1.231-.9-1.664-6.41,0-12.638.15-18.852-.062a32.625,32.625,0,0,1-9.74-1.972c-1.188-.421-1.991-.981-2.122-2.3-.035-.347-.2-.677-.266-1.024-.638-3.54,1.107-5.2,4.4-3.926a29.135,29.135,0,0,0,10.178,1.774c4.31.071,8.619.248,13.261.389a71.233,71.233,0,0,1-3.16-18.177c-.223-6.067-.272-12.141-.4-18.42a10.821,10.821,0,0,0-1.381-.156c-3.046-.018-6.1.076-9.137-.05a11.088,11.088,0,0,1-3.885-.879,4.247,4.247,0,0,1-2.065-5.587,2.664,2.664,0,0,1,1.416-1.133,12.447,12.447,0,0,1,5.849-.721,128.208,128.208,0,0,0,15.467.7,47.329,47.329,0,0,1,15.263,2.176,14.35,14.35,0,0,1,6.753,4.243A7.531,7.531,0,0,1,107,95.693c.318,1.324-.349,1.85-1.686,1.484-.868-.237-1.665-.621-1.976.729-5.454-2.631-11.143-3.3-16.9-3.531-2.241,9.235-1.521,27.18,1.969,35.8,2.908,0,5.8.006,8.7,0a36.6,36.6,0,0,1,8.322.777c.267,2.631-.546,3.866-2.779,4.357-.825.182-1.67.289-2.51.392a5.134,5.134,0,0,0-2.638.766c-.971.664-2.581.4-3.913.532C93.1,137.047,92.624,137.083,92.069,137.132Z" transform="translate(-52.817 -85.526)"/><path class="b" d="M151.329,138.885c-1.549.685-3.129,1.3-4.726,1.957a62.611,62.611,0,0,0-.338,12.528,113.943,113.943,0,0,1,.129,11.9,7.746,7.746,0,0,1-1.226,3.322c-.479.851-2.09,1.376-2.608.885a3.033,3.033,0,0,1-1.078-2.116c.579-3.64-.423-7.171-.511-10.752-.089-3.609-.026-7.224-.029-10.835,0-.487,0-.973,0-1.664a6.627,6.627,0,0,0-1.717.022c-1.821.546-3.266.282-4.081-1.717.465-1.223,1.693-1.731,2.749-2.411.594-.382,1.242-.675,1.862-1.017a2.158,2.158,0,0,0,1.216-2.259,28.635,28.635,0,0,1-.012-3.4c.22-5.225.493-10.448.69-15.673.109-2.9.11-5.811.154-8.716.012-.845,0-1.692,0-2.453,3.181-2.025,5.834-.581,6.233,3.279.1.975.014,1.969.014,3.21a26.935,26.935,0,0,0,2.97-1.056c5.49-2.738,12.068.516,14.247,6.127.731,1.882.209,3.833-.392,5.608-2.355,6.961-6.722,12.217-13.547,15.235m-4.409-4.309a3.191,3.191,0,0,0,.674-.095,5.154,5.154,0,0,0,.953-.467,34.492,34.492,0,0,0,9.1-8.2,10.421,10.421,0,0,0,1.57-3.867,3.425,3.425,0,0,0-1.641-3.646c-3.6-2.546-9.261-.454-10.215,3.813a15.9,15.9,0,0,0-.42,3.143C146.886,128.346,146.92,131.44,146.92,134.576Z" transform="translate(-78.195 -91.704)"/><path class="b" d="M345.785,143.044a5.051,5.051,0,0,1-2.687,2.739c-4.4,1.774-8.818,3.526-13.732,3-4.154-.441-8.283-.942-12.085-2.884-4.031-2.059-5.764-5.294-5.066-9.715a2.137,2.137,0,0,0-.351-1.941c-1.842-2.32-1.8-2.355-1.5-5.508a5.618,5.618,0,0,1,4.014-.757,3.355,3.355,0,0,0,2.688-.868,43.223,43.223,0,0,1,12.878-7.7,17.56,17.56,0,0,1,9.794-.818,9.459,9.459,0,0,1,1.626.477c2.191.931,2.774,2.435,1.786,4.621a13.4,13.4,0,0,1-7.238,6.837,45.444,45.444,0,0,1-11.463,2.975c-1.186.181-2.38.309-3.569.461-.8.1-1.742-.185-2.151.917-.418,1.124-.982,2.178-.43,3.449a5.062,5.062,0,0,0,3.243,2.87,50.474,50.474,0,0,0,6.756,1.705,38.219,38.219,0,0,0,12.231-.338,21.375,21.375,0,0,1,4.036-.012A4.353,4.353,0,0,1,345.785,143.044Zm-21.492-14.049c4-1.3,7.732-2.485,11.092-4.607.25-.158.369-.522.561-.807C332.721,122.054,327.1,124.621,324.292,128.995Z" transform="translate(-132.16 -95.606)"/></g></g></svg>