<?xml version="1.0" encoding="utf-8"?>
<!-- Generator: Adobe Illustrator 23.0.2, SVG Export Plug-In . SVG Version: 6.00 Build 0)  -->
<svg version="1.1" id="Layer_1" xmlns="http://www.w3.org/2000/svg" xmlns:xlink="http://www.w3.org/1999/xlink" x="0px" y="0px"
	 viewBox="0 0 934.34 144.66" style="enable-background:new 0 0 934.34 144.66;" xml:space="preserve">
<style type="text/css">
	.st0{fill:none;stroke:#FFFFFF;stroke-width:1.25;stroke-miterlimit:10;}
	.st1{clip-path:url(#SVGID_2_);}
</style>
<path class="st0" d="M945.34,175.67v27 M945.34-24v-27 M-11,175.67v27 M-11-24v-27 M951.34,169.67h27 M-17,169.67h-27 M951.34-18h27
	 M-17-18h-27"/>
<g>
	<defs>
		<rect id="SVGID_1_" x="-23.07" y="-31.66" width="984.69" height="216.01"/>
	</defs>
	<clipPath id="SVGID_2_">
		<use xlink:href="#SVGID_1_"  style="overflow:visible;"/>
	</clipPath>
	<path class="st1" d="M342,72.66V41.13l38.75-0.01c9.19-0.13,16.82,7.39,16.54,16.35c-0.28,8.84-8.2,15.72-17.23,15.18L342,72.66z
		 M428.66,127.67l-31.4-40.43c17.24,0.28,31.62-13.58,31.76-30.89c0.14-18.56-16.25-31.31-35.87-31.32l-82.29,0.01l0.01,102.64
		l31.27-0.01l0-38.7l21.92-0.02l29.15,38.74L428.66,127.67z"/>
	<path class="st1" d="M480.2,72.67V41.13l38.75-0.01c9.19-0.13,16.81,7.39,16.54,16.35c-0.28,8.84-8.2,15.72-17.23,15.18
		L480.2,72.67z M480.33,88.97l21.91-0.02l29.17,38.74l35.46-0.01l-31.41-40.43c17.26,0.28,31.63-13.58,31.76-30.89
		c0.13-18.56-16.25-31.31-35.87-31.32h-82.3l0.01,102.65l31.26-0.01L480.33,88.97z"/>
	<polygon class="st1" points="292.21,111.97 221.58,111.98 221.58,82.01 281.76,82 281.76,66.99 221.81,67 221.82,40.71 
		291.6,40.71 291.6,25.03 190.3,25.03 190.31,127.69 292.22,127.67 	"/>
	<polygon class="st1" points="688.7,111.97 618.08,111.98 618.08,82.01 678.25,82 678.25,66.99 618.3,67 618.32,40.71 688.09,40.71 
		688.09,25.03 586.79,25.03 586.8,127.69 688.71,127.67 	"/>
	<polygon class="st1" points="166.46,25.03 121.13,25.03 92.38,102.86 60.17,25.03 19.45,25.03 19.46,127.68 38.36,127.68 
		38.36,43.57 69.56,127.67 103.34,127.68 134.46,43.51 134.48,127.68 166.47,127.67 	"/>
	<polygon class="st1" points="738.33,112.1 738.33,25.04 707.3,25.04 707.3,127.69 805.28,127.66 805.29,112.11 	"/>
	<polygon class="st1" points="919.11,112.1 852.15,112.1 852.14,25.01 821.12,25.01 821.12,127.66 919.1,127.66 	"/>
</g>
</svg>
