<svg xmlns="http://www.w3.org/2000/svg" xmlns:xlink="http://www.w3.org/1999/xlink" width="355" height="355" viewBox="0 0 355 355"><defs><style>.a{fill:none;}.b{clip-path:url(#a);}.c,.d{fill:#1a1818;}.c{fill-rule:evenodd;}</style><clipPath id="a"><rect class="a" width="306" height="159.583"/></clipPath></defs><g transform="translate(-1952 -980)"><g transform="translate(2)"><rect class="a" width="355" height="355" transform="translate(1950 980)"/></g><g transform="translate(1096 247.518)"><g transform="translate(880 830)"><g class="b"><path class="c" d="M214.237,37.309l10.125-17.691,34.327-2.249,1.19-2.142-31.751-2.195L235.533.072,294.436,0c18.1-.017,31.494,6.468,26.314,25.6-1.567,5.8-8.9,20.385-30.48,26.523,4.575.543,15.988,5.608,14.037,18.769-3.461,23.358-33.549,34.5-50.28,34.53l-69.53.112-3.449-13.514,36.421-2.61,1.235-2.142-39.5-2.376-4.278-16.012,56.2-3.351,1.216-2.126L131.38,57.124l4.825-8.446,108.666-7.2,1.229-2.129Zm45.479,3.461,10.042-.081c6.682-.049,13.654-3.121,16.184-9.351,2.362-5.782-.807-10.7-5-10.686l-9.716,0ZM248.193,60.913l-12.056,21.06,11.5-.011c5.338-.007,14.9-2.692,17.841-10.333,2.71-7.081-2.307-10.748-5.8-10.737ZM160.534,93.5l-6.961,12.035-49.951.12,4.824-8.444ZM163.96.149,204.116.134l3.047,11.433L159.135,8.588Zm45.506,20.444,4.393,16.716-68.6-4.458,4.827-8.44Zm-34.9,48.315-8.722,15.159-48.336-2.679,4.824-8.44Z" transform="translate(-57.149 0)"/><path class="d" d="M0,317.482H6.805V303.911c0-2.416,0-5.4,1.226-7.14a5.812,5.812,0,0,1,4.657-2.524c5.734,0,5.734,6.786,5.734,9.15v14.085h6.805V302.064c0-2.214,0-7-2.611-10.13a11.565,11.565,0,0,0-8.545-3.96,10.592,10.592,0,0,0-7.78,3.445v-2.473H0Z" transform="translate(0 -158.822)"/><path class="c" d="M67.038,300.592a8.226,8.226,0,0,1,8.036-6.678,7.624,7.624,0,0,1,7.676,6.678Zm22.258,5.5a15.469,15.469,0,0,0,.412-3.44c0-7.194-5.674-15-14.684-15-8.752,0-14.948,7.393-14.948,15.468a14.967,14.967,0,0,0,15,15.11,14.771,14.771,0,0,0,13.717-9.915h-7.17a6.977,6.977,0,0,1-6.547,3.644,8.147,8.147,0,0,1-7.834-5.864Z" transform="translate(-33.133 -158.641)"/><path class="d" d="M133.024,318.677h4.2l5.373-18.507h.1l5.323,18.507h4.2L162.6,290.141h-7.268l-5.216,17.433h-.1l-4.61-17.433h-5.424l-4.653,17.433h-.1l-5.175-17.433h-7.265Z" transform="translate(-67.719 -160.017)"/><path class="c" d="M247.334,292.341a8.505,8.505,0,0,1,8.437-8.584c4.295,0,8.3,3.342,8.3,8.893s-3.739,8.994-8.2,8.994c-3.989,0-8.536-2.984-8.536-9.3m-6.4,14.651h6.238v-3.446a11.456,11.456,0,0,0,9.568,4.369c10.4,0,14.131-9.612,14.131-15.316,0-7.562-5.631-15.115-14.278-15.115a12.593,12.593,0,0,0-8.854,3.55v-12.08h-6.805Z" transform="translate(-132.877 -148.332)"/><path class="c" d="M335.2,303.14c0,5.293-3.583,8.994-8.3,8.994a8.514,8.514,0,0,1-8.441-8.791c0-4.257,2.865-9.1,8.441-9.1,4.048,0,8.3,2.984,8.3,8.893m6.442-14.194h-6.246v3.607h-.1a12.063,12.063,0,0,0-9.409-4.579c-7.882,0-14.229,6.329-14.229,15.062,0,9.507,6.491,15.37,13.814,15.37a14.029,14.029,0,0,0,9.929-4.471v3.548h6.246Z" transform="translate(-171.879 -158.822)"/><rect class="d" width="6.804" height="38.037" transform="translate(173.377 120.622)"/><path class="c" d="M429.868,303.14c0,5.293-3.582,8.994-8.288,8.994a8.513,8.513,0,0,1-8.445-8.791c0-4.257,2.863-9.1,8.445-9.1,4.04,0,8.288,2.984,8.288,8.893m6.45-14.194h-6.246v3.607h-.1a12.1,12.1,0,0,0-9.428-4.579c-7.879,0-14.215,6.329-14.215,15.062,0,9.507,6.5,15.37,13.816,15.37a14.028,14.028,0,0,0,9.925-4.471v3.548h6.246Z" transform="translate(-224.097 -158.822)"/><path class="d" d="M481.26,317.482h6.812V303.911c0-2.416,0-5.4,1.224-7.14a5.826,5.826,0,0,1,4.656-2.524c5.733,0,5.733,6.786,5.733,9.15v14.085h6.8V302.064c0-2.214,0-7-2.6-10.13a11.572,11.572,0,0,0-8.547-3.96,10.593,10.593,0,0,0-7.783,3.445v-2.473H481.26Z" transform="translate(-265.422 -158.822)"/><path class="d" d="M564.822,308.174c-1.792,2.879-4.046,3.961-6.3,3.961-5.116,0-8.548-4.066-8.548-8.947,0-5.857,4.1-8.941,8.243-8.941a7.058,7.058,0,0,1,6.6,4.163H572.5a14.894,14.894,0,0,0-14.278-10.435,15.216,15.216,0,0,0,.052,30.431c6.656,0,11.927-3.861,14.227-10.231Z" transform="translate(-299.569 -158.822)"/><path class="c" d="M617.872,300.592a8.217,8.217,0,0,1,8.029-6.678,7.627,7.627,0,0,1,7.677,6.678Zm22.26,5.5a15.609,15.609,0,0,0,.415-3.44c0-7.194-5.687-15-14.694-15-8.753,0-14.936,7.393-14.936,15.468a14.953,14.953,0,0,0,14.983,15.11,14.772,14.772,0,0,0,13.726-9.915h-7.168a6.988,6.988,0,0,1-6.558,3.644,8.133,8.133,0,0,1-7.825-5.864Z" transform="translate(-336.929 -158.641)"/><path class="c" d="M676.824,346.685a1.668,1.668,0,1,1-1.662-1.7,1.651,1.651,0,0,1,1.662,1.7m-3.727,0a2.063,2.063,0,1,0,2.065-2.037,2.037,2.037,0,0,0-2.065,2.037m1.637-.874h.483c.423,0,.517.13.517.356,0,.262-.126.391-.572.391h-.428Zm0,1.038h.4l.627,1.028h.4l-.676-1.036a.609.609,0,0,0,.617-.655c0-.464-.269-.672-.821-.672h-.916v2.363h.373Z" transform="translate(-371.223 -190.078)"/></g></g></g></g></svg>