<svg xmlns="http://www.w3.org/2000/svg" xmlns:xlink="http://www.w3.org/1999/xlink" width="355" height="355" viewBox="0 0 355 355"><defs><style>.a{fill:none;}.b{clip-path:url(#a);}</style><clipPath id="a"><rect class="a" width="324" height="163.852"/></clipPath></defs><g transform="translate(-76 -32)"><rect class="a" width="355" height="355" transform="translate(76 32)"/><g transform="translate(92 120)"><path d="M89.875,0,58.423,85.287l21.138.058L93.822,47.259,92.129,85.372l21.046.042L143.915.136,123.521.084,110.1,36.49,112.794.07Z" transform="translate(-15.328 0)"/><path d="M138.94,85.474l21.042.066L190.723.248,170.332.2Z" transform="translate(-36.453 -0.052)"/><g class="b"><path d="M227.945,76.528,230.8,68.69l-23.186-.06,7.575-20.42,18.552.036,5.457-14.9-18.488-.055,6.272-17.037,18.422.04L251.255.482,191.294.343,172.058,22.909,180.21.326,159.32.277l-31.39,85.29,21.406.046L160.21,55.8a3.752,3.752,0,0,1,.927-1.466c.295-.223.814-.415.8.974l-.061,30.339,29.239.066L73.28,115.146c-9.315,2.192-18.923,1.246-26.7-4.393-19.386-14.022-12.456-38.868-3.83-56.491C26.027,73.328,8.838,92.67,1.848,118.334-1.167,129.416-1.043,141.152,6.4,150c17.27,20.551,47.144,14.728,69.362,5.543L324,52.517ZM180.52,81.46l-1.9-41.323,30.453-36.18Z" transform="translate(0 -0.073)"/></g></g></g></svg>