<svg xmlns="http://www.w3.org/2000/svg" xmlns:xlink="http://www.w3.org/1999/xlink" width="356" height="355" viewBox="0 0 356 355"><defs><style>.a{fill:none;}.b{clip-path:url(#a);}</style><clipPath id="a"><rect class="a" width="268.851" height="213.764"/></clipPath></defs><g transform="translate(-542 -531)"><rect class="a" width="356" height="355" transform="translate(542 531)"/><g transform="translate(585.575 601.852)"><g class="b" transform="translate(0 0)"><path d="M25.425.916c1.741-.29,4.626,6.227,6.346,5.651,1.828-.64,4.371-6.124,6.863-5.8,1.065.139,5.289,8.786,5.289,8.786,34.06,1.709,76.088,43.856,81.5,48.12,2.607,2.058,13.631,13.7,33.782,22.731a50.413,50.413,0,0,0,24.324,4.717c10.3-.747,21.817-9.982,28.906-22.556,8.882-15.741,12.653-43.141,38.285-58.679,3.592-2.174,11.719-7.03,16.42-.906,3.779,4.959.656,13.142-3.275,17.06-2.5,2.48-7.018,4.983-15.6,9.116a67.893,67.893,0,0,0-9.506,6.521c-9.2,7.157-15.872,23.41-23.287,41.209,0,0-3.159,8.743-17.1,18.157-2.341,1.55-.223,2.877,2.337,6.227,3.282,4.435,9.863,22.5,9.013,49.988-.143,4.884,1.792,7.006,3.966,11,3.771,6.887,11.218,5.349,11.032,14.393-.25,12.132,8.532,14.723,5.714,20.334-2.055,4.081-1.339,8.043-1.331,12.029,0,2.015,1.061,4.951-3.02,4.737-16.706-1.037-15.586-23.919-15.276-31.791a5.246,5.246,0,0,0-.636-3c-.827-.616-11.234-8.874-11.926-9.573-12.633-13.126-20.962-24.924-25.624-37.045-3.08-8.083-6.247-16.051-11.671-21.173-6.084-5.659-13.527-8.85-20.06-8.886-46.475-.242-56.04-21.066-68.681-31.442A5.883,5.883,0,0,0,70,69.844c-.711.048-1.272.906-1.725,1.307-4.876,5.222-9.8,6.927-16.408,6.927-15.7,0-32.6-14.056-35.574-10.924C14.028,69.6,16,74.628,11.826,75.467,5.786,76.7-.469,70.611.028,65.453c.91-9.239,10.161-11.942,18.288-12.883,6.716-.731,12.188,1.148,13.456,1.3,3.739.533,4.4-4.093,3.791-7.081-.707-3.239-3.66-3.914-6.744-4.852C25.051,40.786,20.875,43.97,18.065,43c-3.29-1.212-3.549-2.925-6.271-5.408-3.481-3.084-7.487-3.914-7.475-8.27,0-4.026,4.8-4.351,6.16-8.051.7-1.844.493-3.775,1.117-4.9,1.617-3.016,4.661-2.869,7.109-5.309C22.039,7.676,23.7,1.179,25.425.916" transform="translate(0 0.001)"/></g></g></g></svg>