<svg xmlns="http://www.w3.org/2000/svg" xmlns:xlink="http://www.w3.org/1999/xlink" width="355" height="355" viewBox="0 0 355 355"><defs><style>.a{fill:none;}.b{clip-path:url(#a);}.c{fill:#001232;}</style><clipPath id="a"><rect class="a" width="295.576" height="148.205"/></clipPath></defs><g transform="translate(-1471 -32)"><rect class="a" width="355" height="355" transform="translate(1471 32)"/><g transform="translate(1501.212 135.648)"><g class="b" transform="translate(0 0)"><path class="c" d="M57.709,1.737c-13.688,0-22.884,8.087-22.884,20.127C34.825,33.353,44.666,42,57.709,42,71.2,42,80.616,33.723,80.616,21.864c0-12.04-9.207-20.127-22.907-20.127M57.7,32.092a10.269,10.269,0,1,1,10.333-10.31A10.348,10.348,0,0,1,57.7,32.092" transform="translate(169.41 8.45)"/><path class="c" d="M51.847,10.8H43.6V21.189l5.583.018A8.479,8.479,0,0,1,57.418,29.9a8.6,8.6,0,0,1-8.011,8.82H39.2V0H26.547V49.134H49.325c10.07,0,20.849-7.559,20.849-18.808C70.174,18.1,60.849,10.8,51.847,10.8" transform="translate(129.141 0.001)"/><path class="c" d="M21.609,20.994A8.814,8.814,0,0,1,30.4,12.179H40.423l-8.087,13.4H44.422l8.134-12.627V1.846l-24.145.023a19.142,19.142,0,0,0,0,38.284H52.633V29.808H30.4a8.814,8.814,0,0,1-8.791-8.815" transform="translate(45.294 8.981)"/><path class="c" d="M30.883,0H0V49.128H12.269V10.721l15.917.012c4.363.006,9.026,2.311,9.026,8.773A8.308,8.308,0,0,1,28.8,28.191l-12.269-.006v10.24h8.6c7.384.293,10.65,3.66,10.7,10.9V59.837H48.694V45.85c0-7.413-5.284-11.178-10.375-12.451,7.993-2.686,11.929-8.85,11.929-16.333C50.248,6.527,40.2,0,30.883,0" transform="translate(0 0.001)"/><path class="c" d="M72.265,28.672c8.515-2.651,10.943-7.284,10.979-16.5V10.75H70.728v2.082c0,6.175-2.639,10.591-8.5,10.591l-5.953.006V0h-12.7V49.128h12.7V33.815h4.557c6.316,0,10.175,3.613,10.175,9.3v6.011H83.63V43.533c0-7.342-3.284-12.644-11.366-14.861" transform="translate(211.946 0.001)"/><path class="c" d="M58.428,45.285c32.431-13.014,52.629-20.509,106.15-33.546-29.042,1.924-93.341,6.346-137.648,15.013,0,0,30.813,18.133,31.5,18.532" transform="translate(130.999 57.106)"/><path class="c" d="M15.1,53.143H57.49c8.4-12.744,16.761-18.966,26.49-25.881-7.366-2.85-14.767-5.607-22.291-8.275C34.613,30.969,19.558,47.038,15.1,53.143" transform="translate(73.461 92.37)"/><path class="c" d="M77.06,16.9C39.269,30.455,18.279,45.087,4.087,63.215l46.77.076C55.42,56.928,72.8,38.572,105.451,25.81,96.443,22.755,87.183,19.823,77.524,17a4.7,4.7,0,0,0-.463-.1" transform="translate(19.882 82.222)"/><path class="c" d="M105.755,12.037H2.18C106.6,30.962,156.912,55.265,237.826,89.649c-6.92-5.178-118.436-71.015-132.071-77.612" transform="translate(10.605 58.556)"/><path class="c" d="M30.02,20.994a8.814,8.814,0,0,1,8.791-8.815H48.834l-8.087,13.4H52.833l8.134-12.627V1.846l-24.145.023a19.142,19.142,0,0,0,0,38.284H61.044V29.808H38.811a8.814,8.814,0,0,1-8.791-8.815" transform="translate(86.211 8.981)"/></g></g></g></svg>