<svg xmlns="http://www.w3.org/2000/svg" xmlns:xlink="http://www.w3.org/1999/xlink" width="356" height="355" viewBox="0 0 356 355">
  <defs>
    <clipPath id="clip-path">
      <rect id="Rectangle_2410" data-name="Rectangle 2410" width="277.45" height="173.239" transform="translate(0 0)" fill="none"/>
    </clipPath>
  </defs>
  <g id="Group_2083" data-name="Group 2083" transform="translate(-1019 -1830)">
    <g id="Group_1951" data-name="Group 1951" transform="translate(926 425)">
      <rect id="Rectangle_2298" data-name="Rectangle 2298" width="356" height="355" transform="translate(93 1405)" fill="none"/>
    </g>
    <g id="Group_2082" data-name="Group 2082" transform="translate(1058 1921)">
      <g id="Group_2081" data-name="Group 2081" transform="translate(0 -0.001)" clip-path="url(#clip-path)">
        <path id="Path_1675" data-name="Path 1675" d="M114.01,173.05c-4.438-.627-7.43-2.189-9.353-4.882-1.551-2.172-2.259-4.958-2.578-10.142-.27-4.384.2-9.7,1.083-12.367,1.472-4.426,4.879-7.021,10.334-7.869a58.264,58.264,0,0,1,13.606.145c4.976.944,8.251,3.646,9.56,7.887,1.745,5.657,1.37,16.883-.7,20.956-1.6,3.154-4.4,5.089-8.724,6.029-1.515.33-1.86.35-6.733.391a52.533,52.533,0,0,1-6.494-.148Zm10.867-7.767a6.13,6.13,0,0,0,4.506-5.02,30.87,30.87,0,0,0,.063-9.414,6.244,6.244,0,0,0-4.95-5.456,41.59,41.59,0,0,0-9.254,0,6.26,6.26,0,0,0-4.869,5.174,30.978,30.978,0,0,0,0,9.566,6.062,6.062,0,0,0,4.518,5.118c1.167.33,1.337.339,5.408.3,3.2-.027,3.942-.072,4.581-.276m91.7,7.881a18.36,18.36,0,0,1-6.664-1.83,8.717,8.717,0,0,1-2.5-1.9c-1.876-1.869-2.706-3.636-3.246-6.91a46.514,46.514,0,0,1-.072-13.845,13.055,13.055,0,0,1,2.411-6.416,10.141,10.141,0,0,1,3.827-3.024c2.6-1.264,4.7-1.646,9.718-1.762,5.41-.126,8.615.212,11.291,1.189,4.489,1.639,6.778,4.683,7.58,10.081.754,5.076.5,12.348-.561,16.006-1.163,4.013-4,6.63-8.453,7.8-2.137.559-3.955.7-8.58.682-2.382-.012-4.519-.044-4.748-.071m9.926-7.884c3.822-1.232,4.992-3.815,4.814-10.628a33.988,33.988,0,0,0-.282-3.927,6.266,6.266,0,0,0-4.894-5.33,41.59,41.59,0,0,0-9.254,0,6.037,6.037,0,0,0-4.565,4c-.935,2.461-.918,9.594.03,12.127a5.842,5.842,0,0,0,4.158,3.733c1.17.33,1.338.34,5.41.305,3.213-.027,3.939-.072,4.581-.278ZM51.783,172.825c-8.019-.6-12.13-3.1-13.135-7.963-.679-3.288-.029-6.318,1.771-8.263,2.254-2.434,5.76-3.6,14.628-4.863,5.871-.836,7.209-1.144,8.662-2a2.272,2.272,0,0,0,.941-3.169,5.174,5.174,0,0,0-3.15-1.594,49.932,49.932,0,0,0-10.829.078c-2.25.3-5.921.9-8.087,1.318l-1.006.2v-7.3l1.284-.3A66.231,66.231,0,0,1,56.712,137.3c9.732,0,14.7,2.375,16.368,7.825.5,1.621.6,3.747.531,11.159-.066,7.338-.092,7.65-.8,9.518a9.94,9.94,0,0,1-2.609,3.645c-2.941,2.426-7.593,3.565-14.353,3.513-1.4-.011-3.232-.071-4.072-.135Zm8.808-7.547c2.429-.553,4.058-1.638,4.744-3.161.3-.672.333-.944.375-3.4l.047-2.671-1.017.479c-1.915.9-4.725,1.562-10.347,2.432-4.029.624-5.456.97-6.36,1.544a2.077,2.077,0,0,0-1.039,1.928c0,1.626,1.224,2.535,4.025,2.989a50.412,50.412,0,0,0,9.573-.139M12.148,172.69a70.9,70.9,0,0,1-10.482-1.7l-.694-.185-.037-3.843c-.027-2.835.005-3.844.124-3.844a15.208,15.208,0,0,1,1.494.412,51.728,51.728,0,0,0,15.413,2.086c7.119,0,9.315-.744,9.314-3.143,0-1.945-1.322-2.446-8.538-3.237a89.359,89.359,0,0,1-9.371-1.4c-4.595-1.077-7.27-2.728-8.529-5.263C.106,151.094,0,150.516,0,147.99a8.453,8.453,0,0,1,.337-3.314c1.211-3.678,4.614-5.865,10.492-6.742,6.128-.915,17.582-.326,22.872,1.175l.521.148v3.687c0,3.455-.015,3.681-.243,3.592-.134-.052-1.064-.307-2.068-.565A49.8,49.8,0,0,0,18.464,144.5c-2.309-.006-4.511.057-5.164.147-3.081.428-4.318,1.153-4.608,2.7s.427,2.441,2.483,3.11c1.326.431,2.77.66,7.636,1.209,8.633.974,11.524,1.655,13.97,3.291,2.337,1.563,3.285,3.665,3.273,7.259-.01,3.146-.676,4.9-2.59,6.808a7.513,7.513,0,0,1-2.436,1.763,21.852,21.852,0,0,1-7.844,1.906c-1.745.163-8.859.158-11.037-.007Zm76.926-.414c-6.659-.758-10.47-3.369-11.835-8.112l-.32-1.111-.044-12.668-.044-12.668h7.777l.041,11.766c.047,13.513-.048,12.538,1.346,13.923a6.736,6.736,0,0,0,3.273,1.745,14.664,14.664,0,0,0,4.165.242c1.756-.011,3.968-.09,4.915-.175a11.4,11.4,0,0,1,1.792-.085c.074.074,1.131,6.232,1.135,6.611,0,.183-.306.25-1.768.385a97.246,97.246,0,0,1-10.432.147m51.63-9.9c0-10.008.052-11.3.576-14.314.672-3.871,2.141-6.306,4.881-8.1a14.369,14.369,0,0,1,5.024-1.949c1.6-.347,1.842-.361,6.247-.364a30.737,30.737,0,0,1,5.97.258,14.207,14.207,0,0,1,6.121,2.456,9.7,9.7,0,0,0,.97.684,6.346,6.346,0,0,0,.785-.568,14.953,14.953,0,0,1,5.968-2.512,54.775,54.775,0,0,1,11.022-.2c5.95.78,9.555,3.449,10.992,8.137a35.845,35.845,0,0,1,1,6.8c.076,1.26.14,6.148.14,10.863v8.573h-8.038l-.053-10.03c-.059-11.168-.08-11.45-1-13.391a5.872,5.872,0,0,0-4.461-3.3,29.2,29.2,0,0,0-6.883-.007,5.937,5.937,0,0,0-4.35,3.177c-1.026,2.086-1.18,4.047-1.18,15.121v8.434h-7.913v-9.009c0-8.958-.078-10.955-.5-12.787a6.093,6.093,0,0,0-4.985-4.927,28.933,28.933,0,0,0-6.918,0,6.3,6.3,0,0,0-3.221,1.616,6.749,6.749,0,0,0-1.909,4c-.26,1.363-.284,2.164-.337,11.289l-.057,9.822h-7.9v-9.773Zm101.485.02c0-9.963.067-11.687.561-14.506,1.036-5.914,4.411-9.024,10.961-10.1a54.471,54.471,0,0,1,13.054.149c5.063.96,8.359,3.742,9.621,8.119.87,3.016,1.065,6.137,1.065,17.022v9.075l-3.991-.037-3.991-.037-.086-10.135c-.083-9.776-.118-10.572-.539-12.155a6.2,6.2,0,0,0-3.033-3.8c-1.109-.562-2.261-.768-4.811-.86a21.343,21.343,0,0,0-6.338.5,5.792,5.792,0,0,0-3.739,3.6c-.686,1.816-.718,2.336-.78,12.96l-.058,9.961h-7.9v-9.753Zm-155.42-40.24a11.763,11.763,0,0,1-7.286-4.055,14.024,14.024,0,0,1-2.26-4.468l-.311-1.111L76.87,61.985c-.029-35.667,0-50.922.109-51.853A11.424,11.424,0,0,1,86.034.218C87,.019,92.094,0,137.956,0c34.492,0,51.138.048,51.741.145a11.6,11.6,0,0,1,9.132,8.322c.242.865.252,3.079.252,52.755v51.853l-.458,1.319a11.071,11.071,0,0,1-2.577,4.269,11.216,11.216,0,0,1-5.433,3.26l-1.111.315-50.95.018c-28.3.01-51.32-.035-51.783-.1m61.293-17.895c5.056-.14,9.155-.315,13.189-.564,5.978-.368,13.825-1.023,14.894-1.242a5.123,5.123,0,0,0,3.518-2.812l.4-.865V87.044c0-13.293.035-12.813-1.117-15.116-1.048-2.094-2.267-3.228-5.269-4.9-17.281-9.642-49.541-27.882-49.887-28.206a5.206,5.206,0,0,1-.832-1.129,3.322,3.322,0,0,1-.369-2.013,4.07,4.07,0,0,1,.3-1.961,4.2,4.2,0,0,1,1.995-2.053c.693-.3.7-.3,12.112-.26l11.419.039,1.043.423c.574.233,3.416,1.759,6.317,3.392s5.711,3.168,6.246,3.412c1.8.82,1.858.825,9.44.825,6.752,0,6.955-.008,7.427-.285a2.458,2.458,0,0,0,1.182-1.909c.049-.4.066-3.658.039-7.247-.043-5.717-.079-6.6-.284-7.122a5.284,5.284,0,0,0-3.23-3.021c-1.3-.392-10.711-1.146-20.821-1.669-5.736-.3-23.241-.42-29.571-.208-4.573.153-11.159.466-13.328.633-.534.041-2.252.169-3.818.285a91.96,91.96,0,0,0-9.611.978,4.994,4.994,0,0,0-2.979,2.557l-.391.764v24.3l.439,1.256A9.821,9.821,0,0,0,99.9,53.665c.382.28,12.233,7,26.336,14.933s25.855,14.624,26.116,14.87a4.1,4.1,0,0,1,1.19,3.159,3.446,3.446,0,0,1-.381,1.963,4.071,4.071,0,0,1-2.335,2.123c-1.073.318-21.662.324-23.01.006-1.289-.3-2.326-.825-7.987-4.015-2.815-1.586-5.461-3.036-5.882-3.221-1.61-.712-1.956-.739-9.339-.739-6.857,0-6.873,0-7.427.311a2.166,2.166,0,0,0-.871.935l-.316.624.039,7.15.038,7.15.327.722a5.954,5.954,0,0,0,2.554,2.471c.863.393,1.679.5,7.324.963A387.61,387.61,0,0,0,148.061,104.258Z" transform="translate(0 0.001)" fill="#1b1b1b"/>
      </g>
    </g>
  </g>
</svg>
