<?xml version="1.0" encoding="utf-8"?>
<!-- Generator: Adobe Illustrator 24.3.0, SVG Export Plug-In . SVG Version: 6.00 Build 0)  -->
<svg version="1.1" id="Layer_1" xmlns="http://www.w3.org/2000/svg" xmlns:xlink="http://www.w3.org/1999/xlink" x="0px" y="0px"
	 viewBox="0 0 727 121" style="enable-background:new 0 0 727 121;" xml:space="preserve">
<style type="text/css">
	.st0{display:none;fill:#00205C;}
	.st1{display:none;clip-path:url(#SVGID_2_);fill:#00205C;}
	.st2{clip-path:url(#SVGID_2_);fill:#FFD100;}
	.st3{fill:#FFD100;}
	.st4{clip-path:url(#SVGID_4_);fill:#FFD100;}
	.st5{clip-path:url(#SVGID_6_);fill:#FFD100;}
	.st6{clip-path:url(#SVGID_8_);fill:#FFD100;}
	.st7{clip-path:url(#SVGID_8_);fill:#FFFFFF;}
</style>
<rect x="-57" y="-37.9" class="st0" width="841.89" height="193.9"/>
<g>
	<g>
		<defs>
			<rect id="SVGID_1_" x="-57" y="-37.9" width="841.89" height="193.9"/>
		</defs>
		<clipPath id="SVGID_2_">
			<use xlink:href="#SVGID_1_"  style="overflow:visible;"/>
		</clipPath>
		<path class="st1" d="M454.3,60.05c0,32.88-26.65,59.53-59.54,59.53s-59.54-26.65-59.54-59.53s26.65-59.53,59.54-59.53
			S454.3,27.17,454.3,60.05"/>
		<path class="st2" d="M394.77,113.57c-29.51,0-53.52-24.01-53.52-53.52c0-29.51,24.01-53.52,53.52-53.52
			c29.51,0,53.52,24.01,53.52,53.52C448.29,89.56,424.28,113.57,394.77,113.57 M394.77,9.38c-27.94,0-50.67,22.73-50.67,50.67
			c0,27.94,22.73,50.68,50.67,50.68c27.94,0,50.68-22.73,50.68-50.68C445.44,32.11,422.71,9.38,394.77,9.38"/>
	</g>
	<polygon class="st3" points="9.96,30.57 7.41,43.6 26.45,43.6 17.06,91.5 38.48,91.5 47.86,43.6 66.91,43.6 69.46,30.57 	"/>
	<g>
		<defs>
			<rect id="SVGID_3_" x="-57" y="-37.9" width="841.89" height="193.9"/>
		</defs>
		<clipPath id="SVGID_4_">
			<use xlink:href="#SVGID_3_"  style="overflow:visible;"/>
		</clipPath>
		<path class="st4" d="M79.94,63.04c1.01-4.92,3.01-8.53,9.02-8.53c4.74,0,6.2,2.05,6.2,5.16c0,0.9-0.19,2.22-0.55,3.94H79.85
			L79.94,63.04z M78.21,72.06h33.8c1.09-5.08,1.55-8.21,1.55-11.32c0-10-5.56-17.88-22.6-17.88c-16.77,0-27.7,5.41-31.08,22.64
			l-0.45,2.14c-0.64,2.78-0.91,5.41-0.91,7.7c0,12.63,9.21,17.38,24.51,17.38c9.93,0,18.04-1.23,22.6-2.13l2.1-10.82
			c-10.94,0.4-15.49,0.65-20.68,0.65c-7.47,0-9.38-1.31-9.38-4.43c0-0.98,0.09-2.05,0.36-3.28L78.21,72.06z"/>
	</g>
	<polygon class="st3" points="179.03,44.01 158.44,44.01 140.3,64.68 147.59,27.37 127.91,27.37 115.43,91.5 135.11,91.5 
		139.39,69.77 149.32,91.5 170.56,91.5 158.35,66.98 	"/>
	<polygon class="st3" points="240.5,44.01 219.91,44.01 201.77,64.68 209.07,27.37 189.38,27.37 176.9,91.5 196.58,91.5 
		200.86,69.77 210.8,91.5 232.02,91.5 219.81,66.98 	"/>
	<g>
		<defs>
			<rect id="SVGID_5_" x="-57" y="-37.9" width="841.89" height="193.9"/>
		</defs>
		<clipPath id="SVGID_6_">
			<use xlink:href="#SVGID_5_"  style="overflow:visible;"/>
		</clipPath>
		<path class="st5" d="M263.91,27.37h-14.2l-2.19,11.07h20.59l1.34-6.79c0.01-0.05,0.02-0.1,0.03-0.16
			C270.22,27.47,267.91,27.37,263.91,27.37 M246.79,44.01l-9.2,47.49h19.77l9.2-47.49H246.79z"/>
		<path class="st5" d="M291.35,63.04c1.01-4.92,3-8.53,9.02-8.53c4.74,0,6.19,2.05,6.19,5.16c0,0.9-0.17,2.22-0.54,3.94h-14.76
			L291.35,63.04z M289.62,72.06h33.81c1.09-5.08,1.55-8.21,1.55-11.32c0-10-5.56-17.88-22.6-17.88c-16.77,0-27.7,5.41-31.08,22.64
			l-0.45,2.14c-0.64,2.78-0.91,5.41-0.91,7.7c0,12.63,9.2,17.38,24.52,17.38c9.93,0,18.04-1.23,22.6-2.13l2.1-10.82
			c-10.93,0.4-15.49,0.65-20.69,0.65c-7.47,0-9.38-1.31-9.38-4.43c0-0.98,0.09-2.05,0.37-3.28L289.62,72.06z"/>
	</g>
	<polygon class="st3" points="465.53,30.46 462.98,43.49 482.02,43.49 472.64,91.39 494.05,91.39 503.44,43.49 522.48,43.49 
		525.04,30.46 	"/>
	<g>
		<defs>
			<rect id="SVGID_7_" x="-57" y="-37.9" width="841.89" height="193.9"/>
		</defs>
		<clipPath id="SVGID_8_">
			<use xlink:href="#SVGID_7_"  style="overflow:visible;"/>
		</clipPath>
		<path class="st6" d="M549.37,65.39l-0.92,4.59c-1.55,7.63-3.74,10.01-9.29,10.01c-4.1,0-5.74-1.31-5.74-4.84
			c0-1.47,0.18-3.04,0.63-5.17l0.92-4.59c1.45-7.63,3.83-10.01,9.2-10.01c4.38,0,5.84,1.56,5.84,4.92
			C550,61.62,549.82,63.1,549.37,65.39 M545.81,42.76c-15.94,0-26.79,5-30.07,21.41l-0.91,4.59c-0.45,2.22-0.64,4.35-0.64,6.56
			c0,11.81,8.38,17.31,23.51,17.31c16.04,0,26.51-5.24,30.07-21.4l1-4.59c0.46-1.97,0.64-4.51,0.73-6.57
			C569.5,47.92,560.85,42.76,545.81,42.76"/>
		<path class="st6" d="M641.59,43.9l-7.84,21.16c-1.55,4.34-2.73,8.04-3.73,11.07h-0.37c-0.09-3.12-2.91-32.24-2.91-32.24h-18.96
			c0,0-11.12,28.87-12.58,32.15h-0.36c0.36-4.92,0.46-6.65,0.54-10.99l0.55-21.16h-19.68l1.46,47.49h23.51c0,0,12.87-23.8,13.97-27
			l3.26,27h23.42l19.87-47.49H641.59z"/>
		<path class="st6" d="M704.28,42.76c-5.48,0-11.94,1.72-17.5,5l0.64-3.86H669.1l-9.2,47.49h19.68l6.65-33.95
			c3.1-1.31,6.47-2.14,9.21-2.14c3.01,0,4.2,0.9,4.2,3.36c0,0.74-0.1,1.64-0.37,2.87l-5.74,29.85h19.68l5.56-28.62
			c0.55-2.71,0.82-5.58,0.91-8.21C719.68,48,716.68,42.76,704.28,42.76"/>
		<path class="st7" d="M425.82,70.57c-3.9-2.04-7.78-5.75-9.28-8.17l-0.02,0.01c0.06-0.53-0.07-1.1-0.41-1.71
			c-0.44-0.82-1.05-1.14-1.48-1.28c-0.22-0.07-0.46-0.08-0.7-0.08c0.12-0.58,0-1.22-0.38-1.92c-0.44-0.82-1.04-1.14-1.48-1.27
			c-0.25-0.08-0.52-0.1-0.8-0.08c0.09-0.55-0.03-1.16-0.39-1.83c-0.44-0.82-1.05-1.14-1.48-1.27c-0.27-0.08-0.57-0.1-0.87-0.08
			c0.13-0.59,0.02-1.24-0.37-1.96c-0.44-0.82-1.05-1.14-1.48-1.27c-0.21-0.06-0.42-0.08-0.65-0.09c0.11-0.57-0.01-1.2-0.38-1.9
			c-0.44-0.82-1.05-1.14-1.48-1.27c-0.22-0.07-0.45-0.09-0.69-0.09c0.07-0.53-0.06-1.11-0.4-1.75c-0.44-0.82-1.05-1.14-1.48-1.27
			c-0.06-0.02-0.13-0.02-0.2-0.04c-0.85-1.6-1.01-3.12-1.12-4.35c-0.12-1.26-0.23-2.34-1.07-3c-0.59-0.46-1.39-0.58-2.55-0.41
			c-3.98,0.61-7.11,3.37-8.9,5.6c-2.52-1.79-7.8-5.53-9.92-6.81c-2.23-1.36-4.55-0.76-5.49,0.6c-0.22,0.32-0.35,0.66-0.4,1.01
			c-1.71,0.11-4.23,0.3-5.19,3.67c-2.89,1.4-6.36,5.16-7.36,8.47c-0.03-0.02,0.53,0.35-0.1-0.06c-0.63-0.41-1.07,0.14-1.07,0.14
			c-0.29,0.31-2.84,3.05-2.66,5.54c0.07,0.9,0.49,1.68,1.24,2.26c0.3,0.22,30.67,22.45,54.27,29.29c1.9,0.55,5.37,1.39,8.85,1.39
			c2.75,0,5.51-0.52,7.5-2.13c2.09-1.67,3.04-4.24,2.82-7.65l-0.05-0.71C430.05,73.5,429.82,72.65,425.82,70.57 M414.14,61.08
			c0.06,0.02,0.26,0.08,0.45,0.43c0.39,0.73,0.27,0.96-0.37,1.36c-0.78,0.49-3.27,2.12-4.08,2.66c-0.32-0.56-0.66-1.15-1.04-1.78
			c1.4-0.85,3.71-2.25,4.19-2.51C413.53,61.11,413.88,61,414.14,61.08 M411.08,75.86c-2.8-0.93-5.83-2.16-9.2-3.72
			c1.79-7.57-3.18-14.38-8.01-20.96c-1.79-2.44-3.48-4.77-4.82-7.1c0.32,0.04,0.63,0.09,0.93,0.13c2.05,0.28,4.16,0.58,4.54,1.06
			C411.85,69.54,412.07,72.17,411.08,75.86 M390.33,49.21c0.71,1,1.43,2,2.15,2.98c4.52,6.15,9.16,12.51,7.81,19.19
			c-6.54-3.13-14.3-7.44-23.95-13.15C378.29,54.89,382.28,50.89,390.33,49.21 M411.59,57.8c0.07,0.02,0.26,0.08,0.45,0.43
			c0.39,0.73,0.27,0.96-0.37,1.36c-0.74,0.47-2.82,1.85-3.64,2.41c-0.35-0.57-0.73-1.16-1.14-1.79c0.87-0.52,3.31-1.96,3.85-2.25
			C410.97,57.83,411.32,57.72,411.59,57.8 M408.93,54.61c0.07,0.02,0.26,0.08,0.45,0.44c0.39,0.73,0.27,0.96-0.38,1.36l-3.26,2.04
			c-0.36-0.54-0.73-1.1-1.12-1.68c0.7-0.41,2.89-1.69,3.45-2C408.31,54.65,408.66,54.53,408.93,54.61 M406.21,51.3
			c0.07,0.02,0.26,0.08,0.45,0.44c0.39,0.73,0.27,0.96-0.37,1.36l-2.91,1.83c-0.36-0.54-0.74-1.09-1.14-1.65
			c0.9-0.53,2.63-1.54,3.11-1.8C405.59,51.33,405.94,51.22,406.21,51.3 M403.7,48.05c0.06,0.02,0.26,0.08,0.45,0.44
			c0.39,0.73,0.26,0.96-0.38,1.36l-2.73,1.71c-0.37-0.53-0.75-1.08-1.15-1.64c0.93-0.55,2.48-1.46,2.94-1.7
			C403.09,48.08,403.44,47.96,403.7,48.05 M401.21,46.73l-2.45,1.54c-0.38-0.53-0.76-1.07-1.15-1.63c0.94-0.55,2.26-1.32,2.67-1.55
			c0.24-0.13,0.59-0.24,0.85-0.16c0.07,0.02,0.26,0.08,0.45,0.44C401.98,46.11,401.85,46.33,401.21,46.73 M396.95,37.2
			c0.86-0.13,1.15,0,1.23,0.07c0.26,0.2,0.33,0.98,0.41,1.8c0.11,1.19,0.27,2.75,1.04,4.44c-0.06,0.03-0.12,0.05-0.18,0.08
			c-0.44,0.24-1.89,1.09-2.85,1.65c-0.24-0.33-0.47-0.66-0.72-1.01c-0.83-1.06-2.76-1.33-5.68-1.73c-0.39-0.06-0.78-0.11-1.19-0.17
			C390.54,40.38,393.39,37.74,396.95,37.2 M373.79,35.86c0.24-0.34,0.78-0.63,1.48-0.63c0.5,0,1.09,0.14,1.71,0.52
			c1.8,1.09,6.12,4.12,8.83,6.05c-3.77-0.74-8.01-2.05-11.78-5.07C373.49,36.3,373.71,35.98,373.79,35.86 M372.14,37.6
			c0.11-0.01,0.22-0.02,0.33-0.03c0.14,0.18,0.3,0.35,0.5,0.51c4.56,3.64,9.82,4.97,14.04,5.68l-0.09,0.05
			c0.61,1.16,1.34,2.32,2.11,3.48c-7.69,0.8-16.9-4.73-20.49-7.45C369.19,37.82,370.56,37.7,372.14,37.6 M367.42,41.17
			c1.86,1.38,9.66,6.84,17.69,7.79c-5.49,2.16-8.56,5.49-10.26,8.39c-4.25-2.53-8.86-5.32-13.89-8.39
			C361.55,46.15,364.82,42.48,367.42,41.17 M426.39,83.11c-2.74,2.2-8.13,2.36-14.8,0.43c-23.3-6.75-53.43-28.8-53.71-29.01
			c-0.35-0.27-0.52-0.59-0.55-1.01c-0.09-1.19,0.98-2.78,1.73-3.71c40.09,24.54,54.7,31.76,69.37,29.76
			C428.13,81.08,427.45,82.26,426.39,83.11 M412.72,76.38c0.65-2.36,0.93-4.2-1.75-9.33c0.68-0.44,3.36-2.21,4.17-2.72
			c0.16-0.1,0.3-0.21,0.43-0.31c1.83,2.55,5.51,6.02,9.46,8.08c3.32,1.73,3.34,2.05,3.49,4.12l0.05,0.72
			c0.02,0.3,0.03,0.59,0.03,0.88C423.66,78.54,418.72,78.18,412.72,76.38"/>
	</g>
</g>
</svg>
