<svg xmlns="http://www.w3.org/2000/svg" width="355" height="355" viewBox="0 0 355 355"><defs><style>.a{fill:none;}.b{fill:#1a1818;}.c{fill:#fff;}</style></defs><g transform="translate(-1488 -980)"><rect class="a" width="355" height="355" transform="translate(1488 980)"/><g transform="translate(856.687 498.138)"><path class="b" d="M845.452,659.853l36.18-27.89V705.4H864.379V666.292c-1.17.87-2.159,1.593-3.133,2.331-4.993,3.786-10,7.56-14.958,11.382a1.406,1.406,0,0,1-2.108.017q-17.232-13.244-34.548-26.391a2.132,2.132,0,0,1-.977-1.909c.039-6.219.021-12.438.021-18.657V631.76l36.775,28.093" transform="translate(-5.407 -2.451)"/><path class="b" d="M807.591,664.211c4.937,3.776,9.534,7.511,14.392,10.912a6.358,6.358,0,0,1,3.033,6.074c-.2,8.582-.072,17.17-.072,25.755v1.359H813.788c.232,5.4.461,10.709.694,16.113,1.045-.358,2.188-.74,3.323-1.14,2.529-.889,5.018-1.9,7.595-2.644a31.876,31.876,0,0,1,5.431-.894c.477-.051,1.435.4,1.448.658.037.733.4,1.689-.751,2.143-2.308.906-4.556,1.958-6.9,2.778-2.995,1.05-6.142,1.74-8.8,3.514-1.206.8-1.207,1.331.122,2.03a15.747,15.747,0,0,0,2.884,1.085q3.682,1.077,7.4,2.054c2.694.711,5.408,1.353,8.1,2.067,1.249.331,2.468.762,3.877,1.2-.183-1.8-.333-3.46-.542-5.109-.029-.228-.314-.477-.548-.62a3.106,3.106,0,0,0-1.148-.5c-1.713-.232-1.693-1.628-2.082-2.72-.078-.217.182-.629.407-.836a7.879,7.879,0,0,1,1.86-1.456,2.459,2.459,0,0,0,1.464-2.688c-.141-3.087-.271-6.173-.443-9.258-.19-3.411-.379-6.823-.659-10.228a1.815,1.815,0,0,1,1.7-2.151,7.7,7.7,0,0,1,2.4-.113c.307.039.715.605.77.972.448,2.984,1,5.969,1.175,8.972.2,3.436.046,6.891.046,10.523.583-.171.93-.256,1.266-.374,3.324-1.167,6.617-2.427,9.983-3.475a27.023,27.023,0,0,1,5.2-.9c.559-.058,1.624.328,1.687.648.162.808.329,1.812-.921,2.28-2.287.856-4.507,1.875-6.813,2.681-3,1.047-6.14,1.753-8.8,3.542-1.113.751-1.166,1.309.082,1.883a34.987,34.987,0,0,0,4.544,1.543c1.9.572,3.813,1.1,5.732,1.612,1.537.41,3.1.732,4.635,1.155,2.545.706,5.076,1.462,7.9,2.28-.166-3.27-.3-6.475-.5-9.677-.088-1.414-.337-2.817-.438-4.231-.106-1.47.4-2.323,1.471-2.674,1.641-.54,2.293-.225,2.766,1.323a65.977,65.977,0,0,1,2.313,14.855c.127,1.812.219,3.628.391,5.438a.993.993,0,0,1-.822,1.2c-.635.213-1.195.635-1.835.828a1.461,1.461,0,0,1-1.094-.218,7.4,7.4,0,0,1-1.081-1.157l-.422.561c-.337-1.128-.637-2.127-.942-3.144-.114-.013-.251-.07-.333-.029-1.673.839-3.206.044-4.777-.345-5.294-1.31-10.582-2.64-15.889-3.9-1.61-.382-1.875-.245-1.962,1.34a31.926,31.926,0,0,0,.341,4.758,15.361,15.361,0,0,0,.34,2.046,3.579,3.579,0,0,1-1.458,3.647c-.742.669-1.328,1.619-2.634.776.047-.324.1-.709.168-1.162H839.1l-.856-4.678-.11-.05c-1.58.746-3.051.12-4.561-.272-4.981-1.292-9.973-2.548-14.963-3.811a8.73,8.73,0,0,0-.913-.139c-2-.279-2.333-.122-2.291,1.819a24.439,24.439,0,0,0,.677,5.618c.626,2.4-.7,3.864-2.351,5.223-.323.266-1.058.09-1.714.122l.2-1.3-2.1-.477c-.935.8-2.207.311-3.269-.421a15.624,15.624,0,0,1-3.447-3c-1.468-1.86-2.635-3.931-3.962-5.892a21.289,21.289,0,0,0-1.388-1.644c-.549.79-.966,1.467-1.462,2.09-1.779,2.234-3.436,4.578-5.423,6.638a9.4,9.4,0,0,1-6.784,2.641c-3.329.064-5.249-1.913-4.932-5.051.262-2.59,1.683-4.706,3.071-6.857,2.794-4.333,7.182-6.8,11.744-9.087.985-.495,1.915-1.1,2.936-1.517,2.584-1.045,3.969-.52,4.683,2.108a40.229,40.229,0,0,0,4.32,11.114c.948,1.51,2.171,2.868,3.27,4.294l.382-.151c-.046-.653-.086-1.308-.141-1.961-.154-1.847-.348-3.691-.457-5.541a1.194,1.194,0,0,0-.954-1.182,6.266,6.266,0,0,0-.949-.395c-1.685-.251-1.524-1.683-1.95-2.714-.081-.2.214-.625.45-.825a17.7,17.7,0,0,1,2.253-1.7,1.707,1.707,0,0,0,.982-1.586c-.04-2.106-.031-4.214-.148-6.315a84.948,84.948,0,0,0-.754-9.894c-1.269-7.228-.444-14.48-.6-21.716-.165-7.672-.014-15.35,0-23.026,0-.391,0-.782,0-1.434m-21.91,76.633c-.019,1.962.357,2.291,1.607,1.7a7.911,7.911,0,0,0,2.7-1.948,67.214,67.214,0,0,0,4.156-5.743,9.563,9.563,0,0,0,1.119-2.715,4.141,4.141,0,0,0-.174-1.524,4.348,4.348,0,0,0-1.566.421,61.082,61.082,0,0,0-5.369,4.6,8.14,8.14,0,0,0-2.472,5.208" transform="translate(-4.359 -5.451)"/><path class="b" d="M792.348,667.447H774.961c-.137-.453-.31-.925-.421-1.409-2.28-9.88-12.073-16.982-24-15.571-7.165.848-12.638,4.1-16,10.16a37.493,37.493,0,0,0-2.263,5.924c-.177.509-.3.818-.967.814-5.41-.025-10.819-.021-16.229-.029a1.61,1.61,0,0,1-.327-.107,35.9,35.9,0,0,1,1.768-9.559c1.84-5.581,5.448-10.024,9.9-13.986,4.81-4.278,10.168-7.554,16.764-8.767,13.365-2.456,25.663-.526,36.313,7.953,6.418,5.109,10.04,11.772,11.841,19.392.4,1.688.665,3.4,1.008,5.185" transform="translate(-2.042 -2.652)"/><path class="b" d="M714.678,677.977h15.556c1.787,0,1.8,0,2.2,1.607a19.241,19.241,0,0,0,10.5,13.173c9.556,4.7,25.658,3.225,30.984-11.7q.221-.619.425-1.245c.549-1.687.547-1.687,2.47-1.687h15.43a35.78,35.78,0,0,1-10.8,22.394c-3.194,3.079-6.355,6.148-10.664,7.9a42.364,42.364,0,0,1-14.189,2.841c-14.641.658-26.6-4.229-35.359-15.436a33.329,33.329,0,0,1-6.4-15.948c-.076-.5-.154-1.006-.224-1.511a1.937,1.937,0,0,1,.072-.381" transform="translate(-2.036 -6.724)"/><path class="b" d="M940.039,705.913H922.647v-1.189c.014-11.271.016-22.544.066-33.815a3.094,3.094,0,0,1,.628-1.773q12.506-16.043,25.093-32.026a2.069,2.069,0,0,1,1.336-.789c6.682-.049,13.365-.033,20.049-.03a4.49,4.49,0,0,1,.511.079c-.247.344-.44.633-.654.907q-14.471,18.537-28.922,37.089a3.277,3.277,0,0,0-.649,1.878c-.053,9.49-.053,18.981-.067,28.471Z" transform="translate(-9.493 -2.87)"/><path class="b" d="M933.98,742.7c.2,1.229.372,2.262.561,3.412l-141.59,21.021.015.2c.631-.027,1.261-.046,1.892-.082,7.284-.413,14.567-.849,21.853-1.231,1.771-.093,3.555-.064,5.329,0,1.435.049,2.066.6,2.166,1.663s-.379,1.743-1.811,2c-3.677.649-7.372,1.211-11.067,1.77-11.468,1.734-22.953,3.386-34.17,6.324a38.6,38.6,0,0,0-11.913,4.92c-.469.314-.92.651-1.382.979,1.223,1.335,1.227,2.468-.344,3.263a3.465,3.465,0,0,1-2.854-.333,2.613,2.613,0,0,1-.469-4.138,15.3,15.3,0,0,1,3.043-2.647c4.306-2.9,9.232-4.5,14.3-5.715,4.479-1.076,8.995-2.013,13.49-3.2l-47.65,3.539c-.141-1.1-.283-2.192-.436-3.378L933.98,742.7" transform="translate(-3.052 -12.708)"/><rect class="b" width="17.282" height="46.934" transform="translate(674.522 655.667)"/><rect class="b" width="50.434" height="15.852" transform="translate(657.95 632.952)"/><path class="b" d="M904.787,732.24a4.159,4.159,0,0,1,.679-5.069A14.157,14.157,0,0,1,910.6,723.9a16.844,16.844,0,0,1,7.413-1.443,2.386,2.386,0,0,1,2.668,1.953,1.027,1.027,0,0,1-.445.918,19.349,19.349,0,0,1-2.787,1.014c-1.844.528-3.716.966-5.552,1.512a4.265,4.265,0,0,0-1.134.822c.331.369.584.863,1,1.088,2.131,1.152,4.543,1.292,6.906,1.634,3.05.442,6.093.94,9.113,1.52a4.447,4.447,0,0,1,3.271,2.39c.761,1.529.277,3.129-1.348,4.34a18.8,18.8,0,0,1-7.527,2.94,36.826,36.826,0,0,1-12.431.373,2.512,2.512,0,0,1-2.1-2.057,2.635,2.635,0,0,1,1.135-2.793,1.725,1.725,0,0,1,1.072-.009c2.892.687,5.805,1.37,8.8.893a16.263,16.263,0,0,0,3.641-1.279c.361-.152.577-.608.858-.925a3.76,3.76,0,0,0-1.087-.632c-2.877-.519-5.765-.986-8.649-1.467-1.593-.267-3.182-.56-4.783-.776a1.3,1.3,0,0,0-1.02.326,26.319,26.319,0,0,0-1.443,2.333c-.055.092-.041.233-.113.3-2.346,2.333-4.122,5.19-7.481,6.568a15.565,15.565,0,0,1-15.131-1.512c-.192-.123-.378-.253-.57-.376-3.08-1.977-5.661-4.216-5.554-8.162.042-1.581-.421-3.181-.315-4.752a3.539,3.539,0,0,1,1.33-2.4,14.136,14.136,0,0,1,7.325-2.729c3.969-.193,8.1,2.719,9.058,6.355a3.926,3.926,0,0,1-1.484,4.332,33.569,33.569,0,0,1-4.921,3.013c-.946.49-.848.827-.255,1.443a7.113,7.113,0,0,0,8.964,1.05,32.318,32.318,0,0,0,5.057-4.255,35.342,35.342,0,0,0,2.71-3.209m-22.422-1.535c.054.49.075.963.164,1.423.538,2.765,2.342,3.5,4.806,1.958a3.291,3.291,0,0,0,.245-5.622,3.8,3.8,0,0,0-3.99-.615c-1.213.565-1.025,1.827-1.226,2.855" transform="translate(-7.856 -10.836)"/><path class="b" d="M917.294,664.335c-7.05-9.435-14.005-18.741-21.14-28.288,2.635,0,4.936,0,7.235,0,4.289.009,8.578.046,12.866.014a1.91,1.91,0,0,1,1.8.851c3.113,4.291,6.272,8.553,9.414,12.825.3.409.616.734.155,1.32-3.426,4.35-6.8,8.734-10.325,13.278" transform="translate(-8.543 -2.847)"/><path class="b" d="M767.479,753.469c-.026,1.772-.014,1.812-1.77,2.331-3.667,1.085-2.892,1-4.023-1.79a40.474,40.474,0,0,1-2.438-11.176c-.513-4.951-1.01-9.9-1.448-14.861-.078-.884-.625-1.041-1.28-1.026-2.04.045-4.086.1-6.118.273-3.613.314-7.216.73-10.825,1.077a10.081,10.081,0,0,1-1.85-.033c-1.3-.117-1.638-.63-1.078-1.758a3.381,3.381,0,0,1,2.528-2.049c5.215-.793,10.414-1.751,15.661-2.277,6.994-.7,13.92-1.7,20.818-2.969a38.937,38.937,0,0,1,6.889-.394,2.228,2.228,0,0,1,1.658,1.041c.371.8-.439,1.4-1.144,1.643a90.133,90.133,0,0,1-8.752,2.727,66.759,66.759,0,0,1-8.231,1.1c-1.1.111-1.448.481-1.527,1.523-.39,5.125.445,10.147,1.249,15.18.607,3.807,1.125,7.626,1.682,11.439" transform="translate(-2.817 -10.5)"/><path class="b" d="M763.794,610.988v13.871h-4.162V605.5c1.708,0,3.359-.037,5.006.034.3.014.678.42.85.729,2.234,3.976,4.437,7.967,6.65,11.954a3.508,3.508,0,0,0,.225.32V605.554h4.063v19.373c-1.5,0-2.961.034-4.415-.031-.273-.012-.617-.376-.773-.653-2.41-4.3-4.795-8.615-7.187-12.924a3.562,3.562,0,0,0-.257-.33" transform="translate(-3.65 -0.023)"/><path class="b" d="M922.463,624.924c-1.485,0-2.908.05-4.321-.037a1.53,1.53,0,0,1-.939-.773c-2.4-4.267-4.76-8.552-7.134-12.831a2.475,2.475,0,0,0-.224-.281v13.83H905.7V605.508c1.691,0,3.378-.038,5.059.036.289.014.635.464.82.782,2.344,4.039,4.664,8.093,6.843,11.886V605.568h4.045Z" transform="translate(-8.885 -0.023)"/><path class="b" d="M675.077,606.215c-.294,1.118-.6,2.262-.84,3.189a52.119,52.119,0,0,0-5.707-.395c-3.822.143-5.992,2.744-5.834,6.718.134,3.394,2.647,5.721,6.221,5.751.578.005,1.158-.031,1.734-.074a2.5,2.5,0,0,0,.569-.188v-4.008h-2.985v-3.373h7.478v10.206c-4.072,1.177-8.2,1.715-12.307.148a8.351,8.351,0,0,1-5.558-7.556c-.613-6.605,3.705-11.111,10.768-11.37a14.848,14.848,0,0,1,6.462.952" transform="translate(0 0)"/><path class="b" d="M812.813,605.544h4.437c0,.463,0,.885,0,1.306.033,3.706.007,7.414.131,11.117a3.481,3.481,0,0,0,2.4,3.529,3.281,3.281,0,0,0,4.272-1.786,8.549,8.549,0,0,0,.52-2.868c.061-3.343.024-6.688.024-10.031v-1.24h4.462l.13.176c-.056,4.462.3,8.971-.284,13.373-.738,5.581-8.176,8.167-13.1,4.877a6.234,6.234,0,0,1-2.94-4.989c-.17-4.454-.053-8.919-.053-13.464" transform="translate(-5.555 -0.028)"/><path class="b" d="M970.734,616.7h-7.316v4.519H971.6v3.631H958.786V605.519h12.382v3.531H963.4v4.006h7.333Z" transform="translate(-10.788 -0.025)"/><path class="b" d="M711.6,605.544h12.424v3.49h-7.793v4.1h7.348v3.581h-7.365v4.528H724.5v3.689H711.6Z" transform="translate(-1.929 -0.028)"/><rect class="b" width="4.469" height="19.304" transform="translate(858.027 605.554)"/><path class="b" d="M858.193,765.931c.348,2.047.657,3.858.974,5.723l-1.86.308c-.471-2.787-.93-5.518-1.387-8.224,2.144-.735,2.151-.739,3.456.83.923,1.11,1.824,2.235,2.851,3.5-.324-1.834-.619-3.509-.932-5.28.662-.1,1.212-.178,1.871-.275.476,2.8.938,5.5,1.4,8.205-1.957.642-1.963.646-3.175-.832-1.031-1.258-2.046-2.529-3.194-3.951" transform="translate(-7.101 -14.539)"/><path class="b" d="M886.562,758.623,892,757.78c.078.556.146,1.041.221,1.59l-3.354.558c.1.545.194,1.029.306,1.62l3.151-.448c.1.466.191.941.311,1.527l-3.186.576c.1.618.185,1.175.289,1.839,1.215-.163,2.344-.317,3.572-.484.091.5.174.95.284,1.551l-5.609.89-1.422-8.377" transform="translate(-8.199 -14.102)"/><path class="b" d="M930.332,751.582c.113.452.218.867.345,1.371-1.207.447-2.645.615-3.085,2.095a1.122,1.122,0,0,0,.3,0c1.806-.8,3.169-.559,3.935.712a2.914,2.914,0,0,1-.974,4.041,3.457,3.457,0,0,1-4.451-.714,4.675,4.675,0,0,1,2.729-7.283c.364-.1.744-.138,1.2-.22m.086,6.169c-.3-.961-.5-1.623-1.447-1.645a1.117,1.117,0,0,0-1.254,1.125c-.051.794.725,1.683,1.409,1.506.49-.128.867-.643,1.293-.986" transform="translate(-9.595 -13.529)"/><path class="b" d="M916.865,762.222c-.105-.477-.2-.892-.3-1.359,1.4-.316,2.717-.636,3.182-2.228-.338.129-.566.227-.8.306a2.869,2.869,0,0,1-3.018-.45,2.753,2.753,0,0,1-.585-3.043,3.173,3.173,0,0,1,2.985-1.9,2.941,2.941,0,0,1,2.83,1.565c1.911,3.3-.183,6.878-4.294,7.113m-.26-5.936c.755.606,1.181,1.186,1.708,1.284a1.527,1.527,0,0,0,1.164-.937c.059-.7-.251-1.576-1.205-1.553-.46.013-.9.626-1.667,1.205" transform="translate(-9.223 -13.71)"/><path class="b" d="M836.819,767.108c-.089.578-.159,1.036-.223,1.456a16.612,16.612,0,0,0-2.218.17,1.08,1.08,0,0,0-.723.717c-.022.23.372.612.67.73.6.237,1.264.312,1.886.5a2.35,2.35,0,0,1,1.9,2.209,2.434,2.434,0,0,1-1.577,2.444,5.646,5.646,0,0,1-4.114.236c.033-.432.068-.888.11-1.423a12.737,12.737,0,0,0,2.331-.038c.439-.086.794-.55,1.187-.843a5.02,5.02,0,0,0-1.086-.939c-.577-.267-1.259-.32-1.867-.539a2.163,2.163,0,0,1-1.558-1.978,2.254,2.254,0,0,1,1.241-2.192,5.428,5.428,0,0,1,4.043-.51" transform="translate(-6.227 -14.949)"/><path class="b" d="M940.535,750.168c.216,1.216.475,2.389.616,3.574.082.684.244,1.132,1.133.919.135.73.727,1.51-.67,1.623.084.64.157,1.2.239,1.829l-1.832.329c-.134-.616-.252-1.164-.4-1.865l-3.909.52a16.411,16.411,0,0,1,.432-2.245c.315-.928.892-1.787,1.138-2.725.422-1.616,1.525-2.095,3.256-1.958m-2.9,5.141,1.755-.274c-.158-.914-.3-1.743-.5-2.886l-1.257,3.16" transform="translate(-9.961 -13.396)"/><path class="b" d="M879.183,766.742c.171.5.32.933.462,1.347a5.451,5.451,0,0,1-6.013-.067,4.66,4.66,0,0,1-1.063-5.43c.924-1.817,3.178-2.726,5.778-2.3v1.413c-1.4.042-2.9-.068-3.628,1.236a3.5,3.5,0,0,0-.3,2.274c.42,1.977,1.909,2.442,4.761,1.525" transform="translate(-7.682 -14.325)"/><path class="b" d="M869.832,718a3,3,0,0,1-1.024-.087c-.532-.252-1.381-.6-1.408-.953a2.109,2.109,0,0,1,.8-1.689,6.771,6.771,0,0,1,5.1-.621,1.583,1.583,0,0,1,.926,1.087,1.3,1.3,0,0,1-.607,1.122c-1.191.536-2.457.923-3.695,1.365Z" transform="translate(-7.513 -10.094)"/><path class="b" d="M907.531,757.276l-1.383.8c-1.006-1.527.17-2.619,3.072-2.837.444,2.625.889,5.257,1.347,7.972l-1.927.331c-.366-2.069-.722-4.084-1.109-6.268" transform="translate(-8.889 -13.867)"/><path class="b" d="M848.8,773.432l-2.023.323c-.471-2.788-.933-5.516-1.417-8.373l2.03-.279c.47,2.783.932,5.506,1.411,8.329" transform="translate(-6.723 -14.779)"/><path class="c" d="M930.5,758.212c-.426.343-.8.859-1.293.986-.684.178-1.46-.712-1.409-1.506a1.117,1.117,0,0,1,1.254-1.125c.946.022,1.149.683,1.447,1.645" transform="translate(-9.677 -13.99)"/><path class="c" d="M916.66,756.442c.764-.579,1.207-1.193,1.667-1.205.955-.024,1.264.857,1.205,1.553a1.527,1.527,0,0,1-1.164.937c-.527-.1-.954-.678-1.708-1.284" transform="translate(-9.278 -13.867)"/><path class="c" d="M937.7,755.513l1.257-3.16c.2,1.143.339,1.972.5,2.886l-1.755.274" transform="translate(-10.032 -13.6)"/></g></g></svg>