<?xml version="1.0" encoding="UTF-8"?>
<!DOCTYPE svg PUBLIC "-//W3C//DTD SVG 1.1//EN" "http://www.w3.org/Graphics/SVG/1.1/DTD/svg11.dtd">
<!-- Creator: CorelDRAW 2020 (64-Bit) -->
<svg xmlns="http://www.w3.org/2000/svg" xml:space="preserve" width="619.682mm" height="402.532mm" version="1.1" style="shape-rendering:geometricPrecision; text-rendering:geometricPrecision; image-rendering:optimizeQuality; fill-rule:evenodd; clip-rule:evenodd"
viewBox="0 0 61962.34 40249.4"
 xmlns:xlink="http://www.w3.org/1999/xlink"
 xmlns:xodm="http://www.corel.com/coreldraw/odm/2003">
 <defs>
  <style type="text/css">
   <![CDATA[
    .fil0 {fill:black}
   ]]>
  </style>
 </defs>
 <g id="Layer_x0020_1">
  <metadata id="CorelCorpID_0Corel-Layer"/>
  <g id="Umbro_x0020_logo_x0020_white.eps">
   <path class="fil0" d="M30758.01 0l834.65 0 -834.65 0zm31204.33 13466.1l0 834.61 0 -834.61zm-30735.97 26587.42l-834.66 0 834.66 0zm-1137.08 -36193.09l-23214 9704.86c-327.53,137.7 -327.62,359.11 -0.08,496.59l23214.08 9710.49c455.13,187.05 1198.87,187.18 1653.57,0.21l23214.41 -9710.78c329.23,-137.49 329.23,-358.73 0,-496.51l-23214.37 -9704.86c-454.71,-190.73 -1198.58,-190.6 -1653.61,0zm-23466.85 28226.37l0 4516.58c0,2558.3 1799.89,3646.03 4130.31,3646.03 2326.53,-0.05 4128.41,-1087.73 4128.41,-3645.95l0.04 -4516.66 -2754.14 0 0 4294.02c0,983.24 -243.1,1865.25 -1374.31,1865.25 -1136.57,-0.04 -1379.67,-881.97 -1379.67,-1865.2l0.04 -4294.07 -2750.68 0zm43947.1 -185.61c-2636.77,0 -4643.42,1533.93 -4643.42,4183.32 0,2637.17 2006.65,4164.68 4643.42,4164.68 2631.29,0 4638.35,-1527.49 4638.35,-4164.68 0,-2649.47 -2007.06,-4183.2 -4638.35,-4183.32zm-1958.89 4205.57c0,-1391.08 780.6,-2400.9 1930.15,-2400.9 1225.62,-0.13 1916.63,1045.92 1916.63,2272.64 0,1478.49 -727.35,2472.46 -1916.63,2472.46 -1043.47,-0.11 -1930.15,-995.78 -1930.15,-2344.19zm-21924.29 -4205.57c-1131.12,0 -2189.26,459.82 -2832.41,1533.93 -427.62,-1043.3 -1363.66,-1533.81 -2498.33,-1533.81 -1253.6,-0.12 -2357.13,503.99 -2909.93,1657.47l-27.35 -0.13 0 -1471.64 -2512.1 0 0 7981.43 2757.4 0 0 -3371.63c0,-1715.51 579.09,-2495.5 1560.77,-2495.5 780.21,-0.09 1103.82,674.9 1103.82,1576.07l0 4291.06 2757.74 0 0 -3371.63c0,-1715.51 582.97,-2495.5 1560.34,-2495.5 782.63,-0.09 1103.49,674.9 1103.49,1576.07l0 4291.06 2758.46 0 0 -4704.45c0,-2159.68 -523.13,-3462.68 -2821.89,-3462.8zm9329.32 -4.7c-1101.5,0 -2035.55,321.79 -2739.14,1208.43l-30.73 -0.17 0 -3845.71 -2773.08 0 0 10800.02 2539.83 0 0 -1423.48 31.32 0c352.9,891.76 1473.15,1609.03 2745.1,1609.03 2372.1,-0.02 3644.08,-1960.68 3644.08,-4318.94 0.04,-1932.94 -1212.27,-4029.05 -3417.38,-4029.18zm-1091.27 6349.74c-961.02,0 -1761.6,-911.62 -1761.6,-2130.8 0,-1250.18 703.5,-2178.23 1761.51,-2178.23 1122.25,-0.17 1749.01,958.99 1749.01,2067.12 0,1330.26 -659.73,2241.99 -1748.92,2241.91zm7694.21 -4687.37l-31.28 0 0 -1472.06 -2510.24 0 0 7981.64 2757.9 0 0 -3371.95c0,-1563.62 719.32,-2495.18 2004.95,-2495.18 321.2,-0.09 622.11,0 926.83,87.27l0.42 -2318.03c-241.33,-36.52 -520.68,-69.14 -791.17,-69.14 -1190.12,0 -1880.69,644.84 -2357.42,1657.46zm18322.22 -21130.22c530.4,235.41 893.03,766.1 893.03,1386.31 0.41,619.36 -369.81,1149.17 -902.31,1385.08l-28897.84 12085.37c-613.66,255.19 -1618.89,255.19 -2233.18,0.08l-28899.76 -12085.58c-533.7,-235.82 -900.77,-765.59 -900.77,-1384.95 0.03,-620.34 367.03,-1154.29 900.73,-1389.82l28899.8 -12080.38c614.38,-256.21 1619.48,-256.21 2233.05,0l28907.26 12083.89zm-15667.27 722.1c254.43,113.22 429.39,365.67 429.39,664.21 0,295.84 -177.08,547.39 -429.39,660.48l-13819.04 5779.45c-296.17,125.69 -776.75,125.73 -1072.54,0.04l-13819.89 -5779.61c-251.98,-113.01 -432.82,-364.52 -432.82,-660.36 0.04,-298.63 180.76,-550.9 432.74,-665.23l13820.01 -5778.72c295.79,-122.22 776.2,-122.1 1072.46,0l13819.08 5779.74zm-14599.33 3593.19c131.61,52.41 352.94,52.5 483.99,0.17l6831.42 -2857.94c95.13,-40.79 95.05,-106 0,-147.16l-6831.29 -2853.17c-131.19,-53.67 -352.61,-53.67 -484.12,0.04l-6827.36 2853c-97.04,41.21 -97.08,106.59 0,147.29l6827.36 2857.77z"/>
  </g>
 </g>
</svg>
