<svg xmlns="http://www.w3.org/2000/svg" xmlns:xlink="http://www.w3.org/1999/xlink" width="355" height="355" viewBox="0 0 355 355"><defs><style>.a{fill:none;}.b{clip-path:url(#a);}.c{fill:currentColor;}</style><clipPath id="a"><rect class="a" width="316.286" height="129.132"/></clipPath></defs><g transform="translate(-1043 -531)"><g transform="translate(21 -449)"><rect class="a" width="355" height="355" transform="translate(1022 980)"/></g><g transform="translate(-292.143 -121.711)"><g transform="translate(1355 766)"><g class="b"><path class="c" d="M13.307,245.342H8.525l-.915-10.3h4.785Zm289.671,0h4.782l.914-10.3h-4.784ZM4.784,235.043H0l.912,10.3H5.7Zm305.805,10.3h4.783l.914-10.3H311.5ZM37.521,247.848a6.478,6.478,0,0,1-6.5,6.741,6.59,6.59,0,0,1-6.541-6.814V247.7a6.47,6.47,0,0,1,6.467-6.741,6.6,6.6,0,0,1,6.577,6.813Zm-20.317,0c0,7.246,5.848,13.049,13.74,13.049s13.812-5.875,13.812-13.122V247.7c0-7.247-5.847-13.05-13.738-13.05S17.2,240.529,17.2,247.776Zm31.96,12.546h7.09v-9.013H68.347v-5.8H56.254v-4.29H69.627v-6.127H49.164Zm24.59,0h7.09v-9.013H92.937v-5.8H80.843v-4.29H94.216v-6.127H73.753Zm40.409,0h7.089V241.286h7.674v-6.127H106.49v6.127h7.672Zm19.416,0h7.089V250.8h9.1v9.591h7.087V235.159h-7.087V244.6h-9.1v-9.446h-7.089Zm28.081,0h20.755v-5.95H168.676v-4h12.276v-5.515H168.676v-3.821h13.556v-5.948H161.659Zm40.227.18h6.176l5.116-14.528,5.152,14.528H224.5l8.551-25.415h-7.344l-4.458,14.6-4.934-14.67h-6.1l-4.934,14.67-4.457-14.6h-7.491Zm39.459-10.131,2.887-7.172,2.85,7.172Zm-11.363,9.951h7.454l1.826-4.507h9.866l1.863,4.507h7.6L247.7,234.977h-6.834Zm32.005,0h19.475v-6.129H269.077V235.159h-7.089Zm23.421,0h19.477v-6.129H292.5V235.159h-7.089Z" transform="translate(0 -131.766)"/><path class="c" d="M327.97,39.9H314.225c-1.333-3.388-2.82-6.03-10.527-6.03-5.32,0-7.587,2.2-7.587,4.41,0,2.41,1.893,4.445,7.765,5.751l12.453,3.335a15.621,15.621,0,0,1,12.1,15.538A17.038,17.038,0,0,1,324,75.1c-2.7,2.818-6.776,6.537-20.3,6.537-18.6,0-24.716-11.8-24.716-18.933h14.483c1.423,5.206,4.984,7.19,12.037,7.19,4.886,0,9.081-1.749,9.081-5.5,0-3.569-3.036-4.91-6.962-5.987l-9.838-2.664c-4.745-1.45-8.711-2.61-11.508-4.991-7.331-6.233-6.8-17.49,1.175-23.342,4.412-3.239,8.937-4.93,16.114-4.93,8.435,0,13.251,2.417,17.047,5.039,3.363,2.323,7.359,7.928,7.359,12.377M95.785,0c.114.494,28.777,80.96,28.777,80.96h17.1L168,14.006H331.6L332.839,0H155.43L133.57,55.516,113.888,0Zm141.49,52.017L258.631,80.96h13.363V23.716H256.571V54.848L237.2,23.716H222.434V80.96h14.841Zm96.174,25.97a3.015,3.015,0,0,0-3.021-3.034,3.046,3.046,0,0,0-3.041,3.052,3.031,3.031,0,1,0,6.062-.018m-.353,0a2.68,2.68,0,1,1-2.668-2.7,2.671,2.671,0,0,1,2.668,2.7m-1.229-.631c0-.672-.494-1.068-1.265-1.068h-1.431v3.237h.712V78.483h.561l.686,1.043h.829l-.787-1.159a1.013,1.013,0,0,0,.7-1.011m-.72.042c0,.279-.193.471-.553.471h-.712v-.949h.694c.351,0,.571.159.571.478M155.755,80.96h16.407l3.063-8.955h21.715l3.142,8.955h16.154l-20.67-57.244H178.188Zm24.054-19.311,6.355-19.03,6.273,19.03Z" transform="translate(-53.786)"/></g></g></g></g></svg>