<?xml version="1.0" encoding="utf-8"?>
<svg version="1.1" id="Layer_1" xmlns="http://www.w3.org/2000/svg" xmlns:xlink="http://www.w3.org/1999/xlink" x="0px" y="0px"
	 viewBox="0 0 58 58" style="enable-background:new 0 0 58 58;" xml:space="preserve">
<style type="text/css">
	.st0{fill:#FF5F00;}
</style>
<g>
	<path class="st0" d="M10.1,2.7c12.6,0,25.3,0,37.9,0c3-0.1,6,1.9,7.1,4.7c0.6,1.3,0.6,2.7,0.6,4.1c0,11.6,0,23.2,0,34.8
		c0,1.4,0.1,2.8-0.4,4.1c-0.8,2.5-3,4.5-5.6,5c-1,0.2-2,0.2-3,0.2c-11.4,0-22.9,0-34.3,0c-1.4,0-2.9,0.1-4.2-0.3
		c-2.5-0.7-4.5-2.7-5.2-5.2c-0.4-1.2-0.3-2.5-0.3-3.8c0-12,0-24.1,0-36.1c0-1.9,0.8-3.8,2.2-5.2C6.2,3.6,8.2,2.7,10.1,2.7z
		 M27.2,11.3c-0.4,0.2-0.6,0.6-0.6,1.1c0,9.9,0,19.7,0,29.6c0,0.5,0.2,1,0.6,1.2c2.7,1.8,5.5,3.6,8.2,5.4c0.8,0.6,1.9-0.1,1.8-1.1
		c0-9.5,0-19,0-28.6c0-0.6-0.2-1.3-0.5-1.8c-0.4-0.7-1.2-1-1.8-1.5c-2.1-1.4-4.3-2.8-6.4-4.3C28.1,11.1,27.6,11,27.2,11.3z
		 M23.5,14.2c-2.7,1.9-5.3,3.9-7.9,5.9c-0.5,0.3-0.5,1.1,0.1,1.3c2.3,1.1,4.7,2.3,7,3.4c0.4,0.2,0.8-0.1,1.2-0.3
		c0.3-0.2,0.8-0.5,0.8-1c0-2.9,0-5.7,0-8.6C24.6,14.4,24,13.9,23.5,14.2z"/>
</g>
</svg>
