<svg xmlns="http://www.w3.org/2000/svg" width="80" height="40"><g transform="matrix(.925935 0 0 -.925935 -183.89263 429.47571)"><path fill="#f7b600" d="M208.647 427.527h66.3v-5.945h-66.3v5.945z"/><g fill="#1a1f71"><path d="M208.647 456.933h66.3v5.944h-66.3v-5.944zm31.84-5.37l-3.324-15.536h-4.02l3.322 15.536h4.02zm16.906-10.03l2.116 5.835 1.216-5.835h-3.332zm4.486-5.505h3.716l-3.244 15.536h-3.43a1.82 1.82 0 0 1-1.71-1.138l-6.032-14.398h4.22l.836 2.322h5.155l.5-2.322zm-10.492 5.073c.018 4.1-5.668 4.326-5.63 6.16.015.557.544 1.15 1.704 1.3.576.075 2.164.134 3.966-.695l.702 3.297c-.966.35-2.2.687-3.76.687-3.972 0-6.767-2.1-6.8-5.136-.025-2.236 1.995-3.483 3.516-4.227 1.566-.76 2.094-1.25 2.084-1.93-.01-1.042-1.25-1.504-2.404-1.52-2.022-.032-3.193.546-4.128.98l-.73-3.404c.94-.43 2.673-.806 4.47-.826 4.226-.002 6.988 2.085 7 5.314m-16.645 10.463l-6.5-15.536h-4.25l-3.203 12.4c-.195.765-.364 1.042-.957 1.365-.966.525-2.563 1.017-3.965 1.323l.095.45h6.84c.87 0 1.655-.58 1.854-1.583l1.693-9 4.18 10.572 4.223-.002zm10.9-19.8h-1.634v-1.52h1.828v-.458h-2.378v4.217h2.283v-.457h-1.734v-1.332h1.634v-.45zm1.035 2.463h.552v-4.442h-.552v4.442z"/><path d="M250.218 431.584c.006.345-.145.9-.765.9-.562 0-.798-.506-.844-.9h1.6zm-1.614-.393c.014-.747.482-1.053 1.04-1.053.396 0 .64.07.837.157l.1-.393c-.194-.1-.532-.194-1.015-.194-.932 0-1.5.62-1.5 1.53s.54 1.626 1.422 1.626c.996 0 1.25-.863 1.25-1.42a1.31 1.31 0 0 0-.018-.256h-2.127v.003zm5.14-1.306a2.12 2.12 0 0 0-.87-.176c-.913 0-1.508.62-1.508 1.545s.64 1.614 1.626 1.614a1.76 1.76 0 0 0 .764-.161l-.124-.42a1.34 1.34 0 0 1-.638.144c-.694 0-1.068-.52-1.068-1.144 0-.7.45-1.134 1.05-1.134a1.57 1.57 0 0 1 .675.144l.093-.412zm1.545 3.645v-.726h.8v-.42h-.8v-1.633c0-.377.108-.6.412-.6a1 1 0 0 1 .32.04l.025-.42c-.108-.04-.274-.076-.487-.076-.257 0-.464.088-.595.232-.15.167-.213.437-.213.793v1.652h-.47v.42h.47v.563l.538.164zm1.556-1.67l-.023.944h.48l.023-.6h.02c.137.407.477.663.846.663.057 0 .1-.006.15-.013v-.52c-.057.015-.112.015-.188.015-.388 0-.662-.3-.738-.702a1.58 1.58 0 0 1-.02-.255v-1.615h-.55v2.084zm2.482-.575c0-.663.374-1.163.913-1.163.525 0 .918.494.918 1.175 0 .514-.254 1.158-.906 1.158-.643 0-.925-.6-.925-1.17m2.396.03c0-1.12-.783-1.607-1.508-1.607-.812 0-1.45.6-1.45 1.56 0 1.006.67 1.6 1.502 1.6.868-.002 1.456-.633 1.456-1.552m.843.67l-.024.818h.488l.028-.5h.015c.15.282.5.56 1 .56.42 0 1.068-.25 1.068-1.288v-1.8h-.55v1.747c0 .5-.18.894-.7.894-.358 0-.637-.255-.738-.56-.024-.07-.038-.164-.038-.257v-1.82h-.55v2.208h.002z"/></g></g></svg>