<svg xmlns="http://www.w3.org/2000/svg" width="80" height="40"><path d="M25.402 37.645v-2.363c0-.89-.566-1.488-1.48-1.496-.48-.01-.978.143-1.324.67-.26-.416-.67-.67-1.244-.67a1.24 1.24 0 0 0-1.103.56v-.466h-.82v3.767h.827v-2.09c0-.65.363-1 .922-1 .544 0 .818.354.818.993v2.095h.828v-2.09c0-.65.38-1 .922-1 .56 0 .826.354.826.993v2.095l.826-.002zm12.242-3.766h-1.34v-1.14h-.828v1.14h-.763v.75h.763v1.716c0 .874.34 1.396 1.31 1.396.354 0 .765-.108 1.023-.29l-.234-.703c-.244.145-.514.215-.726.215-.41 0-.544-.252-.544-.63v-1.7h1.34v-.752zm6.988-.094a1.11 1.11 0 0 0-.993.551v-.457h-.81v3.767h.817v-2.1c0-.623.27-.97.804-.97.166 0 .34.024.514.096l.25-.77c-.18-.075-.417-.105-.582-.105h0zm-10.565.394c-.394-.26-.938-.394-1.536-.394-.953 0-1.566.457-1.566 1.205 0 .614.457.992 1.3 1.11l.386.057c.448.062.66.182.66.396 0 .3-.3.455-.858.455-.567 0-.978-.18-1.252-.394l-.386.637c.45.33 1.017.488 1.63.488 1.086 0 1.717-.51 1.717-1.23 0-.66-.496-1.008-1.314-1.127l-.387-.057c-.354-.045-.637-.117-.637-.367 0-.277.27-.44.715-.44.48 0 .946.182 1.174.324l.353-.662zm21.948-.394a1.11 1.11 0 0 0-.993.551v-.457H54.2v3.767h.82v-2.1c0-.623.266-.97.803-.97.166 0 .338.024.514.096l.252-.77a1.67 1.67 0 0 0-.584-.105h0zm-10.556 1.98c0 1.14.795 1.977 2.01 1.977.565 0 .944-.125 1.354-.45l-.395-.66c-.31.22-.63.34-.984.34-.654-.01-1.134-.48-1.134-1.205s.48-1.2 1.134-1.206c.354 0 .678.118.984.338l.395-.66c-.4-.32-.79-.448-1.354-.448-1.214-.004-2.01.83-2.01 1.975h0zm7.673 0V33.88h-.82v.457c-.26-.338-.654-.55-1.19-.55-1.056 0-1.883.828-1.883 1.98s.827 1.977 1.883 1.977c.535 0 .93-.21 1.19-.552v.457h.82v-1.882zm-3.05 0c0-.662.435-1.206 1.143-1.206.678 0 1.135.52 1.135 1.206s-.457 1.205-1.135 1.205c-.708 0-1.143-.544-1.143-1.205h0zm-9.885-1.98c-1.104 0-1.875.804-1.875 1.98 0 1.195.803 1.977 1.93 1.977.568 0 1.088-.14 1.546-.526l-.402-.608c-.315.254-.718.396-1.096.396-.53 0-1.01-.244-1.126-.922h2.797l.015-.314c-.01-1.178-.734-1.982-1.79-1.982h0zm-.015.733c.525 0 .863.33.95.914H39.18c.086-.543.417-.914 1.002-.914h0zm20.55 1.246v-3.396h-.818v1.97c-.26-.338-.654-.553-1.19-.553-1.055 0-1.882.828-1.882 1.98s.827 1.976 1.882 1.976c.535 0 .93-.21 1.19-.55v.457h.818v-1.883zM62.1 37.1a.37.37 0 0 1 .147.028.4.4 0 0 1 .121.08c.034.035.062.072.08.12s.03.092.03.146-.01.1-.03.146a.37.37 0 0 1-.08.117.34.34 0 0 1-.121.081c-.047.02-.096.03-.147.03a.38.38 0 0 1-.151-.029c-.047-.02-.087-.046-.12-.08a.37.37 0 0 1-.08-.117c-.02-.047-.03-.094-.03-.146s.01-.1.03-.146a.4.4 0 0 1 .08-.121c.034-.033.074-.06.12-.08s.097-.028.15-.028zm0 .667a.28.28 0 0 0 .112-.021c.033-.016.064-.037.092-.064s.047-.057.062-.09.022-.073.022-.113a.33.33 0 0 0-.022-.115c-.016-.034-.035-.063-.062-.09a.25.25 0 0 0-.092-.062.28.28 0 0 0-.112-.021c-.04 0-.08.008-.116.02a.31.31 0 0 0-.093.062.34.34 0 0 0-.062.091.26.26 0 0 0-.022.115c0 .04.007.077.022.113s.035.065.062.09.058.05.093.064.075.02.116.02zm.022-.466c.043 0 .078.01.103.028s.037.047.037.082c0 .026-.01.05-.03.07s-.047.03-.083.033l.114.13h-.09l-.105-.13h-.033v.13h-.074v-.346l.16.002zm-.086.063v.094h.084c.02 0 .035-.006.047-.012s.02-.02.02-.035-.006-.026-.02-.035-.026-.012-.047-.012h-.084zm-4.35-1.6c0-.662.434-1.206 1.143-1.206.68 0 1.135.52 1.135 1.206s-.455 1.205-1.135 1.205c-.7 0-1.143-.544-1.143-1.205h0zm-27.665 0V33.88h-.82v.457c-.26-.338-.652-.55-1.188-.55-1.056 0-1.884.828-1.884 1.98s.828 1.977 1.884 1.977c.536 0 .93-.21 1.188-.552v.457h.82v-1.882zm-3.048 0c0-.662.434-1.206 1.143-1.206.678 0 1.135.52 1.135 1.206s-.457 1.205-1.135 1.205c-.7 0-1.143-.544-1.143-1.205z"/><path fill="#ff5f00" d="M33.795 5.184h12.4v22.3h-12.4z"/><path fill="#eb001b" d="M34.584 16.334c0-4.523 2.117-8.554 5.416-11.15a14.12 14.12 0 0 0-8.764-3.03c-7.83 0-14.18 6.35-14.18 14.18s6.35 14.18 14.18 14.18c3.31 0 6.353-1.132 8.764-3.03-3.3-2.6-5.416-6.63-5.416-11.152z"/><path d="M62.943 16.334c0 7.83-6.35 14.18-14.18 14.18a14.12 14.12 0 0 1-8.764-3.03c3.3-2.598 5.416-6.626 5.416-11.15S43.298 7.782 40 5.186a14.12 14.12 0 0 1 8.764-3.03 14.18 14.18 0 0 1 14.18 14.178zM61.6 25.12v-.457h.184v-.094h-.468v.094h.184v.457h.1zm.9 0v-.55h-.143l-.166.377-.165-.377h-.145v.55h.102v-.416l.154.358h.104l.156-.358v.416h.103z" fill="#f79e1b"/></svg>