<svg xmlns="http://www.w3.org/2000/svg" width="80" height="40"><path d="M30.95 37.602v-2.355c0-.887-.564-1.48-1.475-1.49-.48-.01-.973.14-1.318.667-.26-.416-.668-.667-1.24-.667-.4 0-.793.116-1.098.557v-.462h-.818v3.75h.826v-2.08c0-.65.36-.997.918-.997.54 0 .815.354.815.99v2.088h.823v-2.08c0-.65.377-.997.92-.997.557 0 .823.354.823.99v2.088l.825-.002zm4.6-1.877V33.85h-.816v.454c-.26-.337-.65-.55-1.185-.55-1.05 0-1.875.822-1.875 1.97s.824 1.97 1.875 1.97c.533 0 .926-.212 1.185-.55v.456h.816v-1.877zm-3.036 0c0-.658.432-1.2 1.138-1.2.675 0 1.13.52 1.13 1.2s-.455 1.202-1.13 1.202c-.707.001-1.138-.54-1.138-1.202zm20.5-1.973a2.15 2.15 0 0 1 .804.149 1.97 1.97 0 0 1 .642.415c.182.178.32.385.424.625s.152.502.152.783-.052.544-.152.784a1.91 1.91 0 0 1-.424.625 1.95 1.95 0 0 1-.642.414c-.245.1-.514.15-.804.15s-.56-.052-.807-.15a1.97 1.97 0 0 1-.637-.414c-.18-.177-.32-.384-.423-.625a2 2 0 0 1-.151-.784 2.04 2.04 0 0 1 .151-.783c.103-.24.243-.447.423-.625a1.99 1.99 0 0 1 .637-.415c.25-.098.517-.15.807-.15zm0 .77a1.22 1.22 0 0 0-.467.089 1.09 1.09 0 0 0-.371.247 1.14 1.14 0 0 0-.248.38c-.06.147-.09.31-.09.486 0 .18.028.34.09.488s.145.273.248.38a1.14 1.14 0 0 0 .371.247 1.22 1.22 0 0 0 .467.088 1.21 1.21 0 0 0 .465-.088c.145-.06.27-.143.376-.247a1.12 1.12 0 0 0 .247-.38c.06-.147.09-.31.09-.488s-.03-.34-.09-.486a1.16 1.16 0 0 0-.247-.38c-.106-.106-.23-.188-.376-.247a1.25 1.25 0 0 0-.465-.089zm-13.022 1.203c-.008-1.17-.73-1.97-1.78-1.97-1.1 0-1.868.8-1.868 1.97 0 1.193.8 1.97 1.923 1.97.564 0 1.083-.142 1.54-.525l-.4-.604c-.312.25-.714.394-1.09.394-.526 0-1.005-.244-1.123-.92h2.786l.015-.316zm-2.795-.33c.086-.542.416-.9.996-.9.526 0 .864.33.95.9h-1.946zm6.232-.588a2.42 2.42 0 0 0-1.17-.321c-.446 0-.714.164-.714.438 0 .25.28.32.637.368l.383.056c.817.117 1.31.464 1.31 1.123 0 .714-.627 1.224-1.71 1.224-.6 0-1.176-.156-1.623-.486l.385-.635c.273.21.683.392 1.248.392.557 0 .854-.164.854-.455 0-.212-.21-.33-.658-.394l-.386-.055c-.84-.115-1.295-.495-1.295-1.105 0-.746.612-1.2 1.563-1.2.595 0 1.137.133 1.527.392l-.35.658zm3.92-.21h-1.334v1.694c0 .375.133.627.542.627.21 0 .478-.07.722-.21l.235.697c-.26.182-.668.29-1.02.29-.965 0-1.303-.52-1.303-1.4v-1.7h-.76v-.745h.762L45.2 32.7h.825v1.14h1.334v.747zm2.824-.84c.166 0 .4.03.582.103l-.252.768c-.174-.07-.346-.092-.512-.092-.53 0-.8.344-.8.965v2.104h-.816v-3.75h.81v.454c.21-.333.517-.55.988-.55h0zm5.65 3.3c.053 0 .103.01.148.028s.086.045.12.08.062.072.082.12.03.094.03.145-.013.1-.03.146a.36.36 0 0 1-.082.117.35.35 0 0 1-.119.08c-.047.02-.098.03-.148.03a.39.39 0 0 1-.15-.03c-.046-.02-.086-.046-.12-.08s-.062-.072-.08-.117a.35.35 0 0 1-.031-.146c0-.05.01-.1.03-.145a.33.33 0 0 1 .2-.199c.046-.02.097-.028.15-.028zm0 .664a.3.3 0 0 0 .111-.022c.037-.015.066-.037.092-.062s.05-.058.062-.093.023-.072.023-.113-.008-.078-.023-.112-.034-.067-.062-.093-.055-.047-.092-.062-.07-.02-.11-.02a.34.34 0 0 0-.115.021.37.37 0 0 0-.092.062c-.025.025-.047.06-.062.093s-.02.072-.02.112a.28.28 0 0 0 .021.113.31.31 0 0 0 .062.093c.025.024.057.048.092.062a.34.34 0 0 0 .115.022zm.023-.466c.045 0 .077.01.103.03s.035.047.035.082c0 .027-.01.053-.027.07s-.047.03-.082.036l.113.13h-.1l-.104-.13h-.033v.13h-.073v-.35h.158v.003zm-.086.064v.094h.085c.02 0 .033-.006.046-.013s.02-.02.02-.034-.006-.027-.02-.035-.026-.012-.046-.012h-.085z"/><path fill="#7375cf" d="M33.812 5.222h12.375v22.243H33.812z"/><path fill="#eb001b" d="M34.598 16.343c0-4.512 2.11-8.53 5.402-11.12a14.08 14.08 0 0 0-8.742-3.023 14.15 14.15 0 0 0-14.145 14.146c0 7.813 6.332 14.145 14.145 14.145A14.09 14.09 0 0 0 40 27.466c-3.29-2.593-5.402-6.612-5.402-11.123z"/><path d="M61.537 25.108v-.456h.185v-.092h-.468v.093h.185v.456h.098zm.908 0v-.548H62.3l-.165.377-.164-.377h-.145v.55h.103v-.415l.155.358h.104l.155-.358v.415h.1zm.442-8.765a14.15 14.15 0 0 1-14.146 14.146 14.09 14.09 0 0 1-8.74-3.023 14.12 14.12 0 0 0 5.402-11.122c0-4.512-2.1-8.53-5.402-11.12a14.08 14.08 0 0 1 8.74-3.023c7.813-.003 14.146 6.33 14.146 14.143z" fill="#00a2e5"/></svg>