<svg xmlns="http://www.w3.org/2000/svg" width="178.795" height="112.202" viewBox="0 0 178.795 112.202">
  <g id="Group_7673" data-name="Group 7673" transform="translate(-110.4 -270.78)">
    <path id="Path_21378" data-name="Path 21378" d="M110.4,382.982H223.442s16.788,0,26.3-22.1,12.871-70.791,39.453-90.1H182.03s-25.183-.28-33.857,32.737-12.311,64.355-37.774,79.465" transform="translate(0 0)" fill="#da272a"/>
    <path id="Path_21379" data-name="Path 21379" d="M511.058,402l7.051,25.8,13.934-.628-5.6-22.092s-1.679-8.954-10.353-8.954l-8.114,3.917Z" transform="translate(-315.037 -99.318)" fill="#a4a8b0"/>
    <path id="Path_21380" data-name="Path 21380" d="M570.246,588.864s3.47,12.758,5.484,14.886a9.771,9.771,0,0,0,4.141,2.686h14.662a30.3,30.3,0,0,1-8.954-16.788c-2.014-10.968-15.333-.784-15.333-.784" transform="translate(-364.376 -248.636)" fill="#a4a8b0"/>
    <path id="Path_21381" data-name="Path 21381" d="M381,396.119a10.946,10.946,0,0,0-7.835,8.394c-1.679,7.129-7.744,36.655-12.591,44.209s-6.9,7.835-5.876,7.835h14.83s4.477.28,7-8.394,2.238-8.394,2.238-8.394l34.136-.28s3.638.56,4.477,3.358V431.095s-1.959-3.93-3.917-3.93H382.4s3.917-29.646,13.151-31.046Z" transform="translate(-193.375 -99.317)" fill="#fff"/>
    <rect id="Rectangle_4661" data-name="Rectangle 4661" width="6.38" height="17.796" transform="translate(220.979 296.802)" fill="#fff"/>
    <rect id="Rectangle_4662" data-name="Rectangle 4662" width="17.796" height="6.38" transform="translate(215.103 302.51)" fill="#fff"/>
  </g>
</svg>
