<svg id="Layer_1" data-name="Layer 1" xmlns="http://www.w3.org/2000/svg" viewBox="0 0 525 280.15"><defs><style>.cls-1{fill:#ffe600;}.cls-2{fill:#002159;}.cls-3{fill:#fff;}</style></defs><polygon class="cls-1" points="525 14.21 0 14.21 0 280.15 525 280.15 525 265.94 525 14.21"/><rect class="cls-2" width="525" height="265.94"/><path class="cls-1" d="M132.53,61V76h14.39V94.65a41,41,0,0,1-9.16,1.07c-16,0-26.4-10.59-26.4-31.4,0-20.57,10.11-30.57,29.85-30.57a74.33,74.33,0,0,1,21.17,3.33h1V21.5a95.18,95.18,0,0,0-23-2.73c-30.45,0-50.55,14.75-50.55,46.5,0,30.93,19.15,45.2,47.69,45.2a88.62,88.62,0,0,0,28.91-4.76V61Z"/><path class="cls-1" d="M204.25,34.7h12.37c2.14,0,7.38,0,10.82,2.27,3.22,2.14,4.88,6.3,4.88,10.94,0,5.23-2.14,9-4.88,10.82C224.11,61,219,61,216.62,61H204.25ZM217,76l17.36,33.18h22.48L236,72.88c10.22-4,16.65-12.25,16.65-25.69,0-9.16-3-16.77-10.23-21.76-8.33-5.71-18.43-5.71-25.81-5.71H184.5v89.44h19.75V76Z"/><polygon class="cls-1" points="269.79 19.72 269.79 109.16 328.66 109.16 328.66 93.94 289.76 93.94 289.76 70.62 321.05 70.62 321.05 55.4 289.76 55.4 289.76 34.94 326.76 34.94 326.76 19.72 269.79 19.72"/><path class="cls-1" d="M376.47,39.34l11.06,35.09H364.94Zm43.66,69.82L389.32,19.72h-22.6l-31.28,89.44h18.2l6.54-20.22h31.88l6.42,20.22Z"/><polygon class="cls-1" points="415.96 19.72 415.96 35.3 439.63 35.3 439.63 109.16 459.97 109.16 459.97 35.3 483.64 35.3 483.64 19.72 415.96 19.72"/><path class="cls-3" d="M65.5,150.1h9.41c4.78,0,11.25,0,16.19,3.39s7.55,9.55,7.55,17.26c0,7.4-2.47,13.72-7.55,17.27-4.94,3.39-11.41,3.39-16.19,3.39H65.5ZM39.14,130.67V246.6H65.5V210.83h8.64c10,0,22.2-.15,33-6.16,11.25-6.33,19-17.89,19-34.54,0-14.49-5.86-26.2-17.27-32.83s-25.43-6.63-34.37-6.63Z"/><path class="cls-3" d="M171.25,150.1h16c2.78,0,9.56,0,14,2.93,4.16,2.77,6.32,8.16,6.32,14.17,0,6.79-2.78,11.72-6.32,14-4.32,2.93-10.95,2.93-14,2.93h-16Zm16.5,53.49,22.51,43h29.13l-27-47c13.26-5.24,21.59-15.88,21.59-33.3,0-11.87-3.86-21.73-13.26-28.21-10.79-7.4-23.89-7.4-33.45-7.4H145.67V246.6h25.58v-43Z"/><rect class="cls-3" x="256.19" y="130.67" width="26.36" height="115.93"/><path class="cls-3" d="M386.92,224.55h-1.23A62.92,62.92,0,0,1,365,228.41c-23.74,0-33.45-18.19-33.45-39.93s9.71-39.62,33.45-39.62a62.92,62.92,0,0,1,20.66,3.86h1.23V132.83a90.7,90.7,0,0,0-25-3.39c-40.39,0-58.28,26.36-58.28,59.19s17.89,59.2,58.28,59.2a90.7,90.7,0,0,0,25-3.39Z"/><polygon class="cls-3" points="408.04 130.67 408.04 246.6 484.35 246.6 484.35 226.87 433.94 226.87 433.94 196.65 474.48 196.65 474.48 176.92 433.94 176.92 433.94 150.41 481.88 150.41 481.88 130.67 408.04 130.67"/><path class="cls-3" d="M68.89,87.24c2.94,2.53,4.63,6.48,4.63,11.48,0,4.73-1.51,8.76-4.68,11.38s-8,3.63-13.22,3.63c-5.78,0-10.23-1.2-13.26-3.81s-4.64-6.52-4.64-11.52c0-4.73,1.52-8.77,4.68-11.38,3.4-2.8,8.31-3.63,13-3.63,5.83,0,10.41,1.24,13.45,3.85m-4.55,6.84c-1.79-1-4.45-1.37-8.72-1.37s-6.93.37-8.72,1.37a4.92,4.92,0,0,0-2.53,4.5A4.86,4.86,0,0,0,46.9,103c1.79,1,4.41,1.38,8.72,1.38s6.93-.37,8.72-1.38a4.86,4.86,0,0,0,2.53-4.45A4.92,4.92,0,0,0,64.34,94.08Z"/><path class="cls-3" d="M38.36,69.28h23c3,0,5.45-.78,5.45-4.73s-2.47-4.68-5.45-4.68h-23V52.2H60c2.94,0,6.47,0,9.41,2.39s4.18,5.69,4.18,10.6S72.19,73.5,69.39,75.7,63.1,78.09,60,78.09H38.36Z"/><path class="cls-3" d="M60.63,37.23H72.88v8.44H38.36V33.88c0-2.67,0-6.52,2.11-9.55,1.84-2.62,4.87-3.81,8.68-3.81,5,0,8.12,2,9.87,5.37l13.86-6.7v9.55L60.63,33.88Zm-6.71,0V33.78a5.39,5.39,0,0,0-.64-3.12,4.67,4.67,0,0,0-3.86-1.51,4.43,4.43,0,0,0-3.71,1.47A5.6,5.6,0,0,0,45,33.74v3.49Z"/></svg>